<?xml version="1.0" encoding="UTF-8" standalone="no"?>
<svg width="262px" height="208px" viewBox="0 0 262 208" version="1.1" xmlns="http://www.w3.org/2000/svg" xmlns:xlink="http://www.w3.org/1999/xlink" xmlns:sketch="http://www.bohemiancoding.com/sketch/ns">
    <title>Slice 4</title>
    <description>Created with Sketch (http://www.bohemiancoding.com/sketch)</description>
    <defs></defs>
    <g id="Page 1" stroke="none" stroke-width="1" fill="none" fill-rule="evenodd">
        <path d="M105.390886,112 C99.0998733,112 94,117.096091 94,123.390886 L94,175.609114 C94,181.900127 99.0960905,187 105.390886,187 L157.609114,187 C163.900127,187 169,181.903909 169,175.609114 L169,123.390886 C169,117.099873 163.903909,112 157.609114,112 L105.390886,112 L105.390886,112 Z M105.390886,112" id="Rectangle 2 copy" stroke="#BCBCBC"></path>
        <path d="M197.427422,1 C191.116231,1 186,6.1124362 186,12.4274223 L186,64.81314 C186,71.1243317 191.112436,76.2405623 197.427422,76.2405623 L249.81314,76.2405623 C256.124332,76.2405623 261.240562,71.1281261 261.240562,64.81314 L261.240562,12.4274223 C261.240562,6.11623061 256.128126,1 249.81314,1 L197.427422,1 L197.427422,1 Z M197.427422,1" id="Rectangle 2 copy 2" stroke="#BCBCBC"></path>
        <path d="M197.427422,112 C191.116231,112 186,117.112436 186,123.427422 L186,175.81314 C186,182.124332 191.112436,187.240562 197.427422,187.240562 L249.81314,187.240562 C256.124332,187.240562 261.240562,182.128126 261.240562,175.81314 L261.240562,123.427422 C261.240562,117.116231 256.128126,112 249.81314,112 L197.427422,112 L197.427422,112 Z M197.427422,112" id="Rectangle 2 copy 3" stroke="#BCBCBC"></path>
        <path d="M12.4274223,1 C6.11623109,1 1,6.1124362 1,12.4274223 L1,64.81314 C1,71.1243317 6.1124362,76.2405623 12.4274223,76.2405623 L64.81314,76.2405623 C71.1243317,76.2405623 76.2405623,71.1281261 76.2405623,64.81314 L76.2405623,12.4274223 C76.2405623,6.11623061 71.1281261,1 64.81314,1 L12.4274223,1 L12.4274223,1 Z M12.4274223,1" id="Rectangle 2 copy 3" stroke="#BCBCBC"></path>
        <path d="M12.4274223,112 C6.11623109,112 1,117.112436 1,123.427422 L1,175.81314 C1,182.124332 6.1124362,187.240562 12.4274223,187.240562 L64.81314,187.240562 C71.1243317,187.240562 76.2405623,182.128126 76.2405623,175.81314 L76.2405623,123.427422 C76.2405623,117.116231 71.1281261,112 64.81314,112 L12.4274223,112 L12.4274223,112 Z M12.4274223,112" id="Rectangle 2 copy 4" stroke="#BCBCBC"></path>
        <g id="Group" transform="translate(93.000000, 1.000000)">
            <path d="M0,11.4274219 L0,63.8131403 C0,70.1243312 5.11243623,75.2405623 11.4274219,75.2405623 L63.8131403,75.2405623 C70.1243312,75.2405623 75.2405623,70.1281261 75.2405623,63.8131403 L75.2405623,11.4274219 C75.2405623,5.11623108 70.1281261,0 63.8131403,0 L11.4274219,0 C5.11623108,0 0,5.11243623 0,11.4274219 Z M0,11.4274219" id="Rectangle 2" fill="#147EFB"></path>
            <g transform="translate(11.428946, 12.381358)" fill="#FFFFFF">
                <path d="M3.33344263,6.66688526 C5.17445225,6.66688526 6.66688526,5.17445225 6.66688526,3.33344263 C6.66688526,1.49243301 5.17445225,0 3.33344263,0 C1.49243301,0 0,1.49243301 0,3.33344263 C0,5.17445225 1.49243301,6.66688526 3.33344263,6.66688526 L3.33344263,6.66688526 Z M3.33344263,6.66688526" id="Oval 3"></path>
                <path d="M10.1142639,11.4289462 L10.1142639,6.65665427 L12.1423252,6.65665427 C12.6523271,6.65665427 13.0228868,6.6995155 13.2540153,6.78523922 C13.4851439,6.87096295 13.6701524,7.02341868 13.8090465,7.24261099 C13.9479407,7.4618033 14.0173867,7.71246005 14.0173867,7.99458877 C14.0173867,8.35267522 13.9121325,8.64836338 13.7016212,8.88166212 C13.4911097,9.11496087 13.1764324,9.26199114 12.7575797,9.32275732 C12.9659209,9.44428968 13.1379084,9.57775623 13.2735472,9.72316109 C13.409186,9.86856586 13.5920243,10.1268183 13.8220678,10.497926 L14.4047692,11.4289462 L13.2523877,11.4289462 L12.5557503,10.3905007 C12.308345,10.0193929 12.1390703,9.78555505 12.047921,9.68898026 C11.9567718,9.59240547 11.8601984,9.52621473 11.758198,9.49040604 C11.6561976,9.4545974 11.4945186,9.43669334 11.2731561,9.43669334 L11.0778372,9.43669334 L11.0778372,11.4289462 L10.1142639,11.4289462 L10.1142639,11.4289462 Z M11.0778372,8.67494962 L11.7907512,8.67494962 C12.2530082,8.67494962 12.5416433,8.65541792 12.656665,8.61635395 C12.7716867,8.57728997 12.8617495,8.51001414 12.9268561,8.41452441 C12.9919628,8.31903469 13.0245156,8.19967433 13.0245156,8.05643976 C13.0245156,7.89584341 12.9816544,7.76617465 12.8959306,7.6674296 C12.8102069,7.56868456 12.6892189,7.50629164 12.532963,7.48024899 C12.454835,7.46939788 12.2204547,7.46397241 11.8298149,7.46397241 L11.0778372,7.46397241 L11.0778372,8.67494962 L11.0778372,8.67494962 Z M14.9256196,11.4289462 L14.9256196,6.65665427 L18.4641471,6.65665427 L18.4641471,7.46397241 L15.8891929,7.46397241 L15.8891929,8.52194981 L18.2851048,8.52194981 L18.2851048,9.32601263 L15.8891929,9.32601263 L15.8891929,10.6248833 L18.5552959,10.6248833 L18.5552959,11.4289462 L14.9256196,11.4289462 L14.9256196,11.4289462 Z M21.0944417,6.65665427 L22.0547596,6.65665427 L22.0547596,9.67758665 C22.0547596,10.0725668 22.0200366,10.3763933 21.9505895,10.5890749 C21.85727,10.8668632 21.6879953,11.08985 21.4427604,11.2580421 C21.1975254,11.4262343 20.8741674,11.510329 20.4726765,11.510329 C20.0017386,11.510329 19.6393171,11.3784901 19.3854012,11.1148082 C19.1314854,10.8511265 19.0034443,10.4642903 19.0012741,9.95428848 L19.909507,9.8501184 C19.9203581,10.1235662 19.9605066,10.3167129 20.0299536,10.4295644 C20.1341243,10.6010119 20.2925479,10.6867343 20.5052297,10.6867343 C20.7200815,10.6867343 20.8719946,10.6254265 20.9609738,10.502809 C21.0499528,10.3801916 21.0944417,10.125737 21.0944417,9.73943763 C21.0944417,9.73943763 21.0944417,10.125737 21.0944417,9.73943763 L21.0944417,6.65665427 L21.0944417,6.65665427 Z M22.8360352,9.87616087 L23.773566,9.78501208 C23.8299917,10.0996941 23.9444691,10.3308191 24.1170017,10.4783941 C24.2895342,10.6259692 24.522287,10.6997556 24.8152668,10.6997556 C25.1256084,10.6997556 25.3594462,10.6341074 25.5167871,10.502809 C25.6741282,10.3715106 25.7527975,10.2179698 25.7527975,10.0421819 C25.7527975,9.92933043 25.7197022,9.83329966 25.6535104,9.75408658 C25.5873187,9.67487351 25.4717561,9.60597001 25.3068194,9.54737409 C25.1939679,9.50831008 24.9368006,9.43886405 24.5353097,9.33903389 C24.0187971,9.21099086 23.6563757,9.05365221 23.4480344,8.8670132 C23.1550547,8.60441648 23.0085669,8.2843137 23.0085669,7.90669526 C23.0085669,7.66363052 23.0774704,7.43630329 23.2152794,7.22470675 C23.3530885,7.01311022 23.5516607,6.85197373 23.8110021,6.74129247 C24.0703435,6.6306112 24.3833931,6.57527139 24.7501605,6.57527139 C25.3491414,6.57527139 25.799998,6.70656779 26.1027439,6.96916452 C26.4054897,7.23176125 26.564456,7.58224667 26.5796475,8.02063129 L25.6160743,8.06295038 C25.5748401,7.81771543 25.4864049,7.64138762 25.3507661,7.53396169 C25.2151273,7.42653575 25.0116722,7.37282359 24.7403945,7.37282359 C24.460436,7.37282359 24.241247,7.43033358 24.0828209,7.54535529 C23.9808205,7.6191428 23.9298211,7.71788637 23.9298211,7.84158896 C23.9298211,7.95444044 23.9775652,8.05101383 24.0730549,8.131312 C24.1945873,8.23331239 24.4897329,8.33965162 24.9585006,8.45033287 C25.4272684,8.56101414 25.7739559,8.67549158 25.9985738,8.79376862 C26.2231916,8.91204566 26.3989769,9.07372469 26.5259349,9.27881056 C26.6528928,9.48389644 26.7163708,9.73726594 26.7163708,10.0389266 C26.7163708,10.3123745 26.6404142,10.5684567 26.4884987,10.807181 C26.3365833,11.0459053 26.1217346,11.2233182 25.8439463,11.339425 C25.5661581,11.4555318 25.220013,11.5135844 24.8055009,11.5135844 C24.2021795,11.5135844 23.7388442,11.3741498 23.4154813,11.0952764 C23.0921184,10.8164029 22.8989716,10.4100352 22.8360352,9.87616087 C22.8360352,9.87616087 22.8989716,10.4100352 22.8360352,9.87616087 L22.8360352,9.87616087 L22.8360352,9.87616087 Z M27.5269443,11.4289462 L27.5269443,6.65665427 L31.0654717,6.65665427 L31.0654717,7.46397241 L28.4905175,7.46397241 L28.4905175,8.52194981 L30.8864294,8.52194981 L30.8864294,9.32601263 L28.4905175,9.32601263 L28.4905175,10.6248833 L31.1566205,10.6248833 L31.1566205,11.4289462 L27.5269443,11.4289462 L27.5269443,11.4289462 Z M31.9867258,11.4289462 L31.9867258,6.65665427 L32.9502992,6.65665427 L32.9502992,8.77586439 L34.8969776,6.65665427 L36.192593,6.65665427 L34.395659,8.51543918 L36.2902524,11.4289462 L35.0434667,11.4289462 L33.7315748,9.1892894 L32.9502992,9.98684155 L32.9502992,11.4289462 L31.9867258,11.4289462 L31.9867258,11.4289462 Z M36.5929967,9.07209805 C36.5929967,8.58596858 36.665698,8.17797316 36.8111028,7.84809959 C36.9196139,7.60503485 37.0677292,7.38693092 37.2554534,7.19378126 C37.4431774,7.0006316 37.6488027,6.85739917 37.8723355,6.76407967 C38.1696558,6.63820686 38.5125455,6.57527139 38.9010151,6.57527139 C39.6041667,6.57527139 40.166788,6.79337533 40.588896,7.22958972 C41.0110039,7.66580413 41.2220548,8.27237177 41.2220548,9.04931085 C41.2220548,9.81973931 41.0126316,10.4225091 40.5937789,10.8576384 C40.1749263,11.2927677 39.6150177,11.510329 38.9140363,11.510329 C38.2043741,11.510329 37.6401251,11.2938528 37.2212725,10.8608937 C36.8024198,10.4279346 36.5929967,9.83167541 36.5929967,9.07209805 C36.5929967,9.07209805 36.5929967,9.83167541 36.5929967,9.07209805 L36.5929967,9.07209805 L36.5929967,9.07209805 Z M37.5858678,9.03954491 C37.5858678,9.57992992 37.7106536,9.98955297 37.960229,10.2684263 C38.2098045,10.5472997 38.5266519,10.6867343 38.9107811,10.6867343 C39.2949101,10.6867343 39.61013,10.5483848 39.8564501,10.2716817 C40.1027702,9.99497848 40.2259283,9.57993002 40.2259283,9.02652364 C40.2259283,8.47962798 40.1060254,8.07163257 39.866216,7.80252518 C39.6264066,7.53341779 39.3079314,7.39886611 38.9107811,7.39886611 C38.5136306,7.39886611 38.1935278,7.53504543 37.9504631,7.80740816 C37.7073984,8.07977088 37.5858678,8.49047902 37.5858678,9.03954491 C37.5858678,9.03954491 37.5858678,8.49047902 37.5858678,9.03954491 L37.5858678,9.03954491 L37.5858678,9.03954491 Z M41.9772878,11.4289462 L41.9772878,6.65665427 L44.0053492,6.65665427 C44.515351,6.65665427 44.8859107,6.6995155 45.1170392,6.78523922 C45.3481678,6.87096295 45.5331763,7.02341868 45.6720705,7.24261099 C45.8109646,7.4618033 45.8804106,7.71246005 45.8804106,7.99458877 C45.8804106,8.35267522 45.7751564,8.64836338 45.564645,8.88166212 C45.3541336,9.11496087 45.0394563,9.26199114 44.6206037,9.32275732 C44.8289449,9.44428968 45.0009323,9.57775623 45.1365711,9.72316109 C45.2722099,9.86856586 45.4550483,10.1268183 45.6850917,10.497926 L46.2677931,11.4289462 L45.1154116,11.4289462 L44.4187741,10.3905007 C44.171369,10.0193929 44.0020943,9.78555505 43.910945,9.68898026 C43.8197957,9.59240547 43.7232223,9.52621473 43.6212219,9.49040604 C43.5192216,9.4545974 43.3575425,9.43669334 43.13618,9.43669334 L42.9408611,9.43669334 L42.9408611,11.4289462 L41.9772878,11.4289462 L41.9772878,11.4289462 Z M42.9408611,8.67494962 L43.6537751,8.67494962 C44.1160321,8.67494962 44.4046672,8.65541792 44.5196889,8.61635395 C44.6347107,8.57728997 44.7247734,8.51001414 44.78988,8.41452441 C44.8549866,8.31903469 44.8875395,8.19967433 44.8875395,8.05643976 C44.8875395,7.89584341 44.8446783,7.76617465 44.7589545,7.6674296 C44.6732309,7.56868456 44.5522428,7.50629164 44.3959869,7.48024899 C44.317859,7.46939788 44.0834787,7.46397241 43.6928389,7.46397241 L42.9408611,7.46397241 L42.9408611,8.67494962 L42.9408611,8.67494962 Z M47.8628975,11.4289462 L47.8628975,7.46397241 L46.4468354,7.46397241 L46.4468354,6.65665427 L50.2392775,6.65665427 L50.2392775,7.46397241 L48.8264708,7.46397241 L48.8264708,11.4289462 L47.8628975,11.4289462 L47.8628975,11.4289462 Z M47.8628975,11.4289462" id="REJSEKORT"></path>
            </g>
            <path d="M13.8783262,42.6669452 C13.6587112,38.7138744 16.0195729,35.7765232 20.1373549,35.7765232 C23.5139362,35.7765232 26.2316724,37.7530586 26.2316724,41.3767068 C26.2316724,44.8081919 23.9257145,46.5102084 21.509949,48.0475138 C19.0941835,49.5024635 16.4862548,50.7927018 16.0470247,53.1810154 L26.0395092,53.1810154 L26.0395092,55.2399065 L13.3292886,55.2399065 C13.686163,50.6554424 16.0470247,48.9259739 18.7922128,47.2788612 C22.0864385,45.2199701 23.7610032,44.0669911 23.7610032,41.3492549 C23.7610032,39.2354602 22.0589866,37.8354143 20.0000956,37.8354143 C17.2823593,37.8354143 16.1293804,40.3335353 16.211736,42.6669452 L13.8783262,42.6669452 Z M42.5616196,38.1648368 L34.7103818,38.1648368 L33.6672104,43.7650204 L33.7221141,43.8199242 C34.5731224,42.8591083 36.0280721,42.4198783 37.3457623,42.4198783 C40.8046993,42.4198783 43.6322429,44.6160287 43.6322429,49.0906852 C43.6322429,52.3849109 41.3537369,55.5693291 36.8241766,55.5693291 C33.4475953,55.5693291 30.7024073,53.510438 30.6200516,49.9965973 L32.9534615,49.9965973 C33.0907208,52.0005846 34.7103818,53.510438 37.0437917,53.510438 C39.267394,53.510438 41.1615737,51.9731327 41.1615737,48.8985221 C41.1615737,46.3454972 39.4046534,44.4787693 36.7692729,44.4787693 C35.2594194,44.4787693 34.0515367,45.2199701 33.1456246,46.3180453 L31.1416374,46.2082378 L32.9534615,36.1059458 L42.5616196,36.1059458 L42.5616196,38.1648368 Z M52.6325381,46.0984303 L52.6325381,44.1218949 C52.8247013,44.1493467 52.9894125,44.1493467 53.1541238,44.1493467 L53.6482576,44.1493467 C55.6247931,44.1493467 57.3542615,43.0512715 57.3542615,40.9649286 C57.3542615,38.9060376 55.87186,37.8354143 53.8953246,37.8354143 C51.3697516,37.8354143 50.2167726,39.7844977 50.2167726,42.0630039 L47.8833628,42.0630039 C48.0206221,38.357 49.9971575,35.7765232 53.8953246,35.7765232 C57.2719059,35.7765232 59.8249308,37.3961842 59.8249308,40.9923805 C59.8249308,42.721849 58.6444999,44.1767986 57.1346465,44.8630957 L57.1346465,44.9179994 C59.5229601,45.4395851 60.6484872,47.306313 60.6484872,49.6397229 C60.6484872,53.510438 57.6013285,55.5693291 53.9502284,55.5693291 C49.9971575,55.5693291 47.3892289,53.2633711 47.4715845,49.2279447 L49.8049944,49.2279447 C49.88735,51.7535177 51.2873959,53.510438 53.9502284,53.510438 C56.2287344,53.510438 58.177818,52.0829402 58.177818,49.7495304 C58.177818,47.306313 56.3385419,46.0160746 54.032584,46.0160746 C53.5384501,46.0160746 53.0717681,46.0435265 52.6325381,46.0984303 L52.6325381,46.0984303 Z M52.6325381,46.0984303" id="253" fill="#FFFFFF"></path>
        </g>
        <path d="M102,84 L106.491686,84 C108.559705,84 109.600301,84.9483911 109.600301,86.5422151 C109.600301,88.3467926 108.362123,88.807816 108.045993,88.9131929 C108.612394,89.0053975 109.442236,89.4532489 109.442236,90.9285239 C109.442236,92.0349803 109.600301,93.0228877 109.955948,93.4048786 L108.190886,93.4048786 C107.940616,92.9965435 107.940616,92.4828317 107.940616,92.0218082 C107.940616,90.2962632 107.584969,89.5322815 106.070179,89.5322815 L103.646513,89.5322815 L103.646513,93.4048786 L102,93.4048786 L102,84 Z M103.646513,88.2809321 L106.346793,88.2809321 C107.400561,88.2809321 107.953789,87.7803923 107.953789,86.7793128 C107.953789,85.5674798 107.176635,85.3435541 106.320448,85.3435541 L103.646513,85.3435541 L103.646513,88.2809321 Z M115.914127,89.4005605 C115.848267,88.4521694 115.229178,87.595983 114.201754,87.595983 C113.161158,87.595983 112.449865,88.3863089 112.410349,89.4005605 L115.914127,89.4005605 Z M114.241271,92.4037991 C115.123801,92.4037991 115.637513,92.0218082 115.900955,91.2709986 L117.323542,91.2709986 C117.007412,92.7594457 115.716546,93.5892879 114.241271,93.5892879 C112.094218,93.5892879 110.90873,92.1140129 110.90873,90.006477 C110.90873,88.0701785 112.173251,86.4104941 114.201754,86.4104941 C116.348806,86.4104941 117.666016,88.3467926 117.415746,90.3884679 L112.410349,90.3884679 C112.410349,91.455408 112.989921,92.4037991 114.241271,92.4037991 Z M118.776863,84 L120.278483,84 L120.278483,85.4225866 L118.776863,85.4225866 L118.776863,84 Z M118.776863,86.5949035 L120.278483,86.5949035 L120.278483,93.9844509 C120.278483,95.3411771 119.738426,96.1051588 118.329012,96.1051588 C118.026054,96.1051588 117.854817,96.0919867 117.657235,96.0524704 L117.657235,94.8669816 C117.854817,94.9064978 118.026054,94.9196699 118.170947,94.9196699 C118.711003,94.9196699 118.776863,94.5903674 118.776863,93.9185905 L118.776863,86.5949035 Z M123.220252,91.2183101 C123.312456,92.1008408 123.957889,92.4037991 124.761387,92.4037991 C125.340959,92.4037991 126.315694,92.2852501 126.276178,91.5080964 C126.236662,90.7177704 125.143378,90.6255657 124.050093,90.3752958 C122.943637,90.138198 121.863525,89.7430351 121.863525,88.3599647 C121.863525,86.8715176 123.470521,86.4104941 124.708698,86.4104941 C126.10494,86.4104941 127.382635,86.9768944 127.553872,88.5048578 L125.986392,88.5048578 C125.841498,87.7803923 125.275099,87.595983 124.603322,87.595983 C124.168643,87.595983 123.365144,87.7013597 123.365144,88.2941042 C123.365144,89.0317417 124.4716,89.1502907 125.578057,89.3873885 C126.671341,89.6376583 127.777797,90.0328212 127.777797,91.3763754 C127.777797,92.9965435 126.144457,93.5892879 124.735042,93.5892879 C123.009498,93.5892879 121.758148,92.8253062 121.718632,91.2183101 L123.220252,91.2183101 Z M133.775493,89.4005605 C133.709633,88.4521694 133.090544,87.595983 132.063121,87.595983 C131.022525,87.595983 130.311231,88.3863089 130.271715,89.4005605 L133.775493,89.4005605 Z M132.102636,92.4037991 C132.985167,92.4037991 133.498879,92.0218082 133.762321,91.2709986 L135.184908,91.2709986 C134.868777,92.7594457 133.577911,93.5892879 132.102636,93.5892879 C129.955585,93.5892879 128.770095,92.1140129 128.770095,90.006477 C128.770095,88.0701785 130.034617,86.4104941 132.063121,86.4104941 C134.210172,86.4104941 135.527382,88.3467926 135.277113,90.3884679 L130.271715,90.3884679 C130.271715,91.455408 130.851288,92.4037991 132.102636,92.4037991 Z M136.63823,84 L138.139848,84 L138.139848,89.3478721 L140.853301,86.5949035 L142.697395,86.5949035 L140.089319,89.0976023 L142.947664,93.4048786 L141.116743,93.4048786 L139.035551,90.0986818 L138.139848,90.9680403 L138.139848,93.4048786 L136.63823,93.4048786 L136.63823,84 Z M143.531628,89.993305 C143.531628,87.9252855 144.79615,86.4104941 146.969546,86.4104941 C149.142942,86.4104941 150.407463,87.9252855 150.407463,89.993305 C150.407463,92.0876687 149.142942,93.5892879 146.969546,93.5892879 C144.79615,93.5892879 143.531628,92.0876687 143.531628,89.993305 Z M148.905844,89.993305 C148.905844,88.8209882 148.313099,87.595983 146.969546,87.595983 C145.625991,87.595983 145.033247,88.8209882 145.033247,89.993305 C145.033247,91.1787939 145.625991,92.4037991 146.969546,92.4037991 C148.313099,92.4037991 148.905844,91.1787939 148.905844,89.993305 Z M151.83444,86.5949035 L153.243855,86.5949035 L153.243855,87.9121133 L153.2702,87.9121133 C153.441437,87.1876479 154.350311,86.4104941 155.259186,86.4104941 C155.614833,86.4104941 155.680693,86.4368383 155.825586,86.4500104 L155.825586,87.8989413 C155.614833,87.8594249 155.390907,87.8330807 155.180154,87.8330807 C154.165902,87.8330807 153.33606,88.6497508 153.33606,90.1645422 L153.33606,93.4048786 L151.83444,93.4048786 L151.83444,86.5949035 Z M155.961698,86.5949035 L157.094498,86.5949035 L157.094498,84.5532281 L158.596118,84.5532281 L158.596118,86.5949035 L159.952845,86.5949035 L159.952845,87.7145319 L158.596118,87.7145319 L158.596118,91.3500312 C158.596118,91.9691198 158.648807,92.2852501 159.320584,92.2852501 C159.531337,92.2852501 159.742091,92.2852501 159.952845,92.2325617 L159.952845,93.3917064 C159.623541,93.4312228 159.307411,93.470739 158.978109,93.470739 C157.397457,93.470739 157.134015,92.8648225 157.094498,91.732022 L157.094498,87.7145319 L155.961698,87.7145319 L155.961698,86.5949035 Z M155.961698,86.5949035" id="Rejsekort" fill="#717171"></path>
        <path d="M15.277,87.887 C16.057,87.887 16.642,87.432 16.642,86.6 C16.642,85.664 16.161,85.326 15.277,85.326 L12.625,85.326 L12.625,87.887 L15.277,87.887 Z M15.511,84 C17.175,84 18.267,84.754 18.267,86.301 C18.267,87.237 17.786,87.913 16.941,88.277 C18.085,88.55 18.683,89.434 18.683,90.695 C18.683,92.151 17.669,93.282 15.264,93.282 L11,93.282 L11,84 L15.511,84 Z M15.498,91.956 C16.486,91.956 17.058,91.423 17.058,90.487 C17.058,89.564 16.486,89.057 15.498,89.057 L12.625,89.057 L12.625,91.956 L15.498,91.956 Z M22.869,87.549 C21.842,87.549 21.14,88.329 21.101,89.33 L24.559,89.33 C24.494,88.394 23.883,87.549 22.869,87.549 Z M22.908,92.294 C23.779,92.294 24.286,91.917 24.546,91.176 L25.95,91.176 C25.638,92.645 24.364,93.464 22.908,93.464 C20.789,93.464 19.619,92.008 19.619,89.928 C19.619,88.017 20.867,86.379 22.869,86.379 C24.988,86.379 26.288,88.29 26.041,90.305 L21.101,90.305 C21.101,91.358 21.673,92.294 22.908,92.294 Z M29.811,92.294 C30.383,92.294 31.345,92.177 31.306,91.41 C31.267,90.63 30.188,90.539 29.109,90.292 C28.017,90.058 26.951,89.668 26.951,88.303 C26.951,86.834 28.537,86.379 29.759,86.379 C31.137,86.379 32.398,86.938 32.567,88.446 L31.02,88.446 C30.877,87.731 30.318,87.549 29.655,87.549 C29.226,87.549 28.433,87.653 28.433,88.238 C28.433,88.966 29.525,89.083 30.617,89.317 C31.696,89.564 32.788,89.954 32.788,91.28 C32.788,92.879 31.176,93.464 29.785,93.464 C28.082,93.464 26.847,92.71 26.808,91.124 L28.29,91.124 C28.381,91.995 29.018,92.294 29.811,92.294 Z M35.44,84 L35.44,89.278 L38.118,86.561 L39.938,86.561 L37.364,89.031 L40.185,93.282 L38.378,93.282 L36.324,90.019 L35.44,90.877 L35.44,93.282 L33.958,93.282 L33.958,84 L35.44,84 Z M43.825,87.549 C42.798,87.549 42.096,88.329 42.057,89.33 L45.515,89.33 C45.45,88.394 44.839,87.549 43.825,87.549 Z M45.502,91.176 L46.906,91.176 C46.594,92.645 45.32,93.464 43.864,93.464 C41.745,93.464 40.575,92.008 40.575,89.928 C40.575,88.017 41.823,86.379 43.825,86.379 C45.944,86.379 47.244,88.29 46.997,90.305 L42.057,90.305 C42.057,91.358 42.629,92.294 43.864,92.294 C44.735,92.294 45.242,91.917 45.502,91.176 Z M53.055,93.282 L53.055,92.372 L53.029,92.372 C52.626,93.152 51.794,93.464 50.949,93.464 C48.83,93.464 47.803,91.891 47.803,89.876 C47.803,87.432 49.246,86.379 50.715,86.379 C51.547,86.379 52.496,86.691 52.951,87.432 L52.977,87.432 L52.977,84 L54.459,84 L54.459,93.282 L53.055,93.282 Z M53.029,89.915 C53.029,88.42 52.314,87.549 51.17,87.549 C49.779,87.549 49.285,88.797 49.285,89.993 C49.285,91.15 49.857,92.294 51.144,92.294 C52.457,92.294 53.029,91.085 53.029,89.915 Z M58.996,87.549 C57.969,87.549 57.267,88.329 57.228,89.33 L60.686,89.33 C60.621,88.394 60.01,87.549 58.996,87.549 Z M60.673,91.176 L62.077,91.176 C61.765,92.645 60.491,93.464 59.035,93.464 C56.916,93.464 55.746,92.008 55.746,89.928 C55.746,88.017 56.994,86.379 58.996,86.379 C61.115,86.379 62.415,88.29 62.168,90.305 L57.228,90.305 C57.228,91.358 57.8,92.294 59.035,92.294 C59.906,92.294 60.413,91.917 60.673,91.176 Z M64.69,86.561 L64.69,87.861 L64.716,87.861 C64.885,87.146 65.782,86.379 66.679,86.379 C67.03,86.379 67.095,86.405 67.238,86.418 L67.238,87.848 C67.03,87.809 66.809,87.783 66.601,87.783 C65.6,87.783 64.781,88.589 64.781,90.084 L64.781,93.282 L63.299,93.282 L63.299,86.561 L64.69,86.561 Z M64.69,86.561" id="Beskeder" fill="#BCBCBC"></path>
        <path d="M198.625,84 L198.625,88.225 L202.759,84 L204.761,84 L201.056,87.705 L205.021,93.282 L202.993,93.282 L199.951,88.849 L198.625,90.162 L198.625,93.282 L197,93.282 L197,84 L198.625,84 Z M211.326,91.787 C211.326,92.151 211.404,92.294 211.677,92.294 L211.833,92.294 C211.898,92.294 211.963,92.281 212.041,92.268 L212.041,93.295 C211.82,93.373 211.352,93.464 211.105,93.464 C210.494,93.464 210.078,93.256 209.961,92.645 C209.376,93.217 208.427,93.464 207.634,93.464 C206.425,93.464 205.333,92.814 205.333,91.501 C205.333,89.824 206.672,89.551 207.92,89.408 C208.999,89.2 209.935,89.343 209.935,88.459 C209.935,87.679 209.129,87.549 208.544,87.549 C207.712,87.549 207.127,87.887 207.062,88.615 L205.58,88.615 C205.684,86.886 207.14,86.379 208.635,86.379 C209.948,86.379 211.326,86.912 211.326,88.329 L211.326,91.787 Z M209.844,89.915 C209.389,90.214 208.687,90.201 208.024,90.318 C207.387,90.422 206.815,90.656 206.815,91.436 C206.815,92.112 207.66,92.294 208.18,92.294 C208.83,92.294 209.844,91.956 209.844,91.02 L209.844,89.915 Z M212.964,84 L214.446,84 L214.446,93.282 L212.964,93.282 L212.964,84 Z M220.673,89.33 C220.608,88.394 219.997,87.549 218.983,87.549 C217.956,87.549 217.254,88.329 217.215,89.33 L220.673,89.33 Z M217.215,90.305 C217.215,91.358 217.787,92.294 219.022,92.294 C219.893,92.294 220.4,91.917 220.66,91.176 L222.064,91.176 C221.752,92.645 220.478,93.464 219.022,93.464 C216.903,93.464 215.733,92.008 215.733,89.928 C215.733,88.017 216.981,86.379 218.983,86.379 C221.102,86.379 222.402,88.29 222.155,90.305 L217.215,90.305 Z M223.286,86.561 L224.69,86.561 L224.69,87.549 L224.716,87.575 C225.171,86.834 225.925,86.379 226.809,86.379 C228.278,86.379 229.188,87.146 229.188,88.667 L229.188,93.282 L227.706,93.282 L227.706,89.057 C227.667,88.004 227.277,87.549 226.393,87.549 C225.405,87.549 224.768,88.329 224.768,89.317 L224.768,93.282 L223.286,93.282 L223.286,86.561 Z M237.079,93.282 L235.675,93.282 L235.675,92.372 L235.649,92.372 C235.246,93.152 234.414,93.464 233.569,93.464 C231.45,93.464 230.423,91.891 230.423,89.876 C230.423,87.432 231.866,86.379 233.335,86.379 C234.167,86.379 235.116,86.691 235.571,87.432 L235.597,87.432 L235.597,84 L237.079,84 L237.079,93.282 Z M233.764,92.294 C235.077,92.294 235.649,91.085 235.649,89.915 C235.649,88.42 234.934,87.549 233.79,87.549 C232.399,87.549 231.905,88.797 231.905,89.993 C231.905,91.15 232.477,92.294 233.764,92.294 Z M243.306,89.33 C243.241,88.394 242.63,87.549 241.616,87.549 C240.589,87.549 239.887,88.329 239.848,89.33 L243.306,89.33 Z M241.655,92.294 C242.526,92.294 243.033,91.917 243.293,91.176 L244.697,91.176 C244.385,92.645 243.111,93.464 241.655,93.464 C239.536,93.464 238.366,92.008 238.366,89.928 C238.366,88.017 239.614,86.379 241.616,86.379 C243.735,86.379 245.035,88.29 244.788,90.305 L239.848,90.305 C239.848,91.358 240.42,92.294 241.655,92.294 Z M245.919,86.561 L247.31,86.561 L247.31,87.861 L247.336,87.861 C247.505,87.146 248.402,86.379 249.299,86.379 C249.65,86.379 249.715,86.405 249.858,86.418 L249.858,87.848 C249.65,87.809 249.429,87.783 249.221,87.783 C248.22,87.783 247.401,88.589 247.401,90.084 L247.401,93.282 L245.919,93.282 L245.919,86.561 Z M245.919,86.561" id="Kalender" fill="#BCBCBC"></path>
        <path d="M211,196 L212.625,196 L212.625,200.225 L216.759,196 L218.761,196 L215.056,199.705 L219.021,205.282 L216.993,205.282 L213.951,200.849 L212.625,202.162 L212.625,205.282 L211,205.282 L211,196 Z M219.385,201.915 C219.385,199.874 220.633,198.379 222.778,198.379 C224.923,198.379 226.171,199.874 226.171,201.915 C226.171,203.982 224.923,205.464 222.778,205.464 C220.633,205.464 219.385,203.982 219.385,201.915 Z M224.689,201.915 C224.689,200.758 224.104,199.549 222.778,199.549 C221.452,199.549 220.867,200.758 220.867,201.915 C220.867,203.085 221.452,204.294 222.778,204.294 C224.104,204.294 224.689,203.085 224.689,201.915 Z M227.406,198.561 L228.797,198.561 L228.797,199.861 L228.823,199.861 C228.992,199.146 229.889,198.379 230.786,198.379 C231.137,198.379 231.202,198.405 231.345,198.418 L231.345,198.561 L232.424,198.561 L232.424,196.546 L233.906,196.546 L233.906,198.561 L235.245,198.561 L235.245,199.666 L233.906,199.666 L233.906,203.254 C233.906,203.865 233.958,204.177 234.621,204.177 C234.829,204.177 235.037,204.177 235.245,204.125 L235.245,205.269 C234.92,205.308 234.608,205.347 234.283,205.347 C232.723,205.347 232.463,204.749 232.424,203.631 L232.424,199.666 L231.345,199.666 L231.345,199.848 C231.137,199.809 230.916,199.783 230.708,199.783 C229.707,199.783 228.888,200.589 228.888,202.084 L228.888,205.282 L227.406,205.282 L227.406,198.561 Z M227.406,198.561" id="Kort" fill="#BCBCBC"></path>
        <path d="M125,196 L126.625,196 L126.625,201.408 C126.625,202.656 126.703,204.099 128.809,204.099 C130.915,204.099 130.993,202.656 130.993,201.408 L130.993,196 L132.618,196 L132.618,201.941 C132.618,204.32 131.097,205.503 128.809,205.503 C126.521,205.503 125,204.32 125,201.941 L125,196 Z M134.282,198.561 L135.673,198.561 L135.673,199.861 L135.699,199.861 C135.868,199.146 136.765,198.379 137.662,198.379 C138.013,198.379 138.078,198.405 138.221,198.418 L138.221,199.848 C138.013,199.809 137.792,199.783 137.584,199.783 C136.583,199.783 135.764,200.589 135.764,202.084 L135.764,205.282 L134.282,205.282 L134.282,198.561 Z M134.282,198.561" id="Ur" fill="#BCBCBC"></path>
        <path d="M31.017,203.345 L31.043,203.345 L33.422,196 L35.073,196 L31.901,205.282 L30.094,205.282 L27,196 L28.69,196 L31.017,203.345 Z M37.998,199.549 C36.971,199.549 36.269,200.329 36.23,201.33 L39.688,201.33 C39.623,200.394 39.012,199.549 37.998,199.549 Z M39.675,203.176 L41.079,203.176 C40.767,204.645 39.493,205.464 38.037,205.464 C35.918,205.464 34.748,204.008 34.748,201.928 C34.748,200.017 35.996,198.379 37.998,198.379 C40.117,198.379 41.417,200.29 41.17,202.305 L36.23,202.305 C36.23,203.358 36.802,204.294 38.037,204.294 C38.908,204.294 39.415,203.917 39.675,203.176 Z M43.822,196 L43.822,197.404 L42.34,197.404 L42.34,196 L43.822,196 Z M43.822,198.561 L43.822,205.854 C43.822,207.193 43.289,207.947 41.898,207.947 C41.599,207.947 41.43,207.934 41.235,207.895 L41.235,206.725 C41.43,206.764 41.599,206.777 41.742,206.777 C42.275,206.777 42.34,206.452 42.34,205.789 L42.34,198.561 L43.822,198.561 Z M46.825,198.561 L46.825,199.861 L46.851,199.861 C47.02,199.146 47.917,198.379 48.814,198.379 C49.165,198.379 49.23,198.405 49.373,198.418 L49.373,199.848 C49.165,199.809 48.944,199.783 48.736,199.783 C47.735,199.783 46.916,200.589 46.916,202.084 L46.916,205.282 L45.434,205.282 L45.434,198.561 L46.825,198.561 Z M46.825,198.561" id="Vejr" fill="#BCBCBC"></path>
    </g>
</svg>