<?xml version="1.0" encoding="UTF-8" standalone="no"?>
<svg width="264px" height="556px" viewBox="0 0 264 556" version="1.1" xmlns="http://www.w3.org/2000/svg" xmlns:xlink="http://www.w3.org/1999/xlink" xmlns:sketch="http://www.bohemiancoding.com/sketch/ns">
    <title>Slice 1</title>
    <description>Created with Sketch (http://www.bohemiancoding.com/sketch)</description>
    <defs x2="100%" x1="0%" y2="0%">
        <linearGradient y1="0%" id="linearGradient-1">
            <stop stop-color="#39413D" offset="0%"></stop>
            <stop stop-color="#000000" offset="100%"></stop>
        </linearGradient>
        <linearGradient y1="0%" id="linearGradient-2">
            <stop stop-color="#1B2220" offset="0%"></stop>
            <stop stop-color="#141615" offset="100%"></stop>
        </linearGradient>
        <linearGradient y1="14.4228182%" id="linearGradient-3">
            <stop stop-color="#101111" offset="0%"></stop>
            <stop stop-color="#191A19" offset="53.4568939%"></stop>
            <stop stop-color="#1B1F1C" offset="100%"></stop>
        </linearGradient>
        <linearGradient y1="0%" id="linearGradient-4">
            <stop stop-color="#29305F" offset="0%"></stop>
            <stop stop-color="#20274C" offset="100%"></stop>
        </linearGradient>
    </defs>
    <g id="Page 1" stroke="none" stroke-width="1" fill="none" fill-rule="evenodd">
        <g id="Slice 5">
            <g id="Page 1">
                <g id="Group copy">
                    <g id="iPhone copy">
                        <g id="base" transform="translate(2.015267, 3.027223)">
                            <path d="M33.3800489,0 C14.9447573,0 0,14.9158419 0,33.3198977 L0,519.652879 C0,538.054951 14.9430051,552.972777 33.3800489,552.972777 L228.604684,552.972777 C247.039976,552.972777 261.984733,538.056934 261.984733,519.652879 L261.984733,33.3198977 C261.984733,14.9178262 247.041727,0 228.604684,0 L33.3800489,0 L33.3800489,0 Z M33.3800489,0" id="antenna edging" fill="url(#linearGradient-1)"></path>
                            <path d="M3.02290076,36.3777444 L3.02290076,516.595033 C3.02290076,535.014017 18.0069066,549.945554 36.4824463,549.945554 L225.502287,549.945554 C243.981483,549.945554 258.961832,535.015352 258.961832,516.595033 L258.961832,35.36867 C258.961832,16.9496853 244.993457,3.02722323 226.517917,3.02722323 L35.4668156,3.02722323 C16.9876191,3.02722323 3.02290076,17.9574241 3.02290076,36.3777444 L3.02290076,36.3777444 Z M3.02290076,36.3777444" id="glass" fill="url(#linearGradient-2)"></path>
                            <path d="M18.1374046,76.6987296 L18.1374046,476.69873 L244.137405,476.69873 L244.137405,76.6987296 L18.1374046,76.6987296 L18.1374046,76.6987296 Z M18.1374046,76.6987296" id="view port" stroke="#000000" stroke-width="2" fill="#171A19"></path>
                        </g>
                        <g id="edge buttons" fill="#000000">
                            <path d="M0,133.197822 L0,152.370236 L3.02290076,152.370236 L3.02290076,133.197822 L0,133.197822 L0,133.197822 Z M0,133.197822" id="Rectangle 4 copy"></path>
                            <path d="M0,180.624319 L0,199.796733 L3.02290076,199.796733 L3.02290076,180.624319 L0,180.624319 L0,180.624319 Z M0,180.624319" id="Rectangle 4 copy 2"></path>
                            <path d="M0,80.7259528 L0,105.952813 L3.02290076,105.952813 L3.02290076,80.7259528 L0,80.7259528 L0,80.7259528 Z M0,80.7259528" id="Rectangle 4"></path>
                            <path d="M177.343511,0 L177.343511,3.02722323 L218.656489,3.02722323 L218.656489,0 L177.343511,0 L177.343511,0 Z M177.343511,0" id="Rectangle 8"></path>
                        </g>
                        <path d="M133.007634,544.900181 C146.363651,544.900181 157.19084,534.05751 157.19084,520.682396 C157.19084,507.307281 146.363651,496.46461 133.007634,496.46461 C119.651617,496.46461 108.824427,507.307281 108.824427,520.682396 C108.824427,534.05751 119.651617,544.900181 133.007634,544.900181 L133.007634,544.900181 L133.007634,544.900181 Z M133.007634,544.900181" id="home" fill="url(#linearGradient-3)"></path>
                        <g id="top elements" transform="translate(110.839695, 26.235935)">
                            <path d="M2.91016735,24.2177858 C1.30292613,24.2177858 0,25.5765221 0,27.2450091 L0,27.2450091 C0,28.9168987 1.30853298,30.2722323 2.91016735,30.2722323 L40.418077,30.2722323 C42.0253181,30.2722323 43.3282443,28.9134961 43.3282443,27.2450091 L43.3282443,27.2450091 C43.3282443,25.5731195 42.0197113,24.2177858 40.418077,24.2177858 L2.91016735,24.2177858 L2.91016735,24.2177858 Z M2.91016735,24.2177858" id="ear piece" opacity="0.443963068" fill="#060707"></path>
                            <g id="Camera" transform="translate(17.129771, 0.000000)">
                                <path d="M5.03816794,10.0907441 C7.82067168,10.0907441 10.0763359,7.83185452 10.0763359,5.04537205 C10.0763359,2.25888959 7.82067168,0 5.03816794,0 C2.2556642,0 0,2.25888959 0,5.04537205 C0,7.83185452 2.2556642,10.0907441 5.03816794,10.0907441 L5.03816794,10.0907441 L5.03816794,10.0907441 Z M5.03816794,10.0907441" id="Oval 2" fill="#1A1E1D"></path>
                                <path d="M6.04580153,6.05444646 C7.15880296,6.05444646 8.0610687,5.15089056 8.0610687,4.03629764 C8.0610687,2.92170472 7.15880296,2.01814882 6.04580153,2.01814882 C4.9328001,2.01814882 4.03053435,2.92170472 4.03053435,4.03629764 C4.03053435,5.15089056 4.9328001,6.05444646 6.04580153,6.05444646 L6.04580153,6.05444646 L6.04580153,6.05444646 Z M6.04580153,6.05444646" id="Oval 3" opacity="0.545170455" fill="url(#linearGradient-4)"></path>
                            </g>
                        </g>
                    </g>
                </g>
            </g>
        </g>
    </g>
</svg>