<?xml version="1.0" encoding="UTF-8" standalone="no"?>
<svg width="262px" height="551px" viewBox="0 0 262 551" version="1.1" xmlns="http://www.w3.org/2000/svg" xmlns:xlink="http://www.w3.org/1999/xlink" xmlns:sketch="http://www.bohemiancoding.com/sketch/ns">
    <title>Slice 5</title>
    <description>Created with Sketch (http://www.bohemiancoding.com/sketch)</description>
    <defs x2="50%" x1="50%" y2="100%">
        <linearGradient y1="0%" id="linearGradient-1">
            <stop stop-color="#39413D" offset="0%"></stop>
            <stop stop-color="#000000" offset="100%"></stop>
        </linearGradient>
        <linearGradient y1="0%" id="linearGradient-2">
            <stop stop-color="#1B2220" offset="0%"></stop>
            <stop stop-color="#141615" offset="100%"></stop>
        </linearGradient>
        <linearGradient y1="14.4228182%" id="linearGradient-3">
            <stop stop-color="#101111" offset="0%"></stop>
            <stop stop-color="#191A19" offset="53.4568939%"></stop>
            <stop stop-color="#1B1F1C" offset="100%"></stop>
        </linearGradient>
        <linearGradient y1="0%" id="linearGradient-4">
            <stop stop-color="#29305F" offset="0%"></stop>
            <stop stop-color="#20274C" offset="100%"></stop>
        </linearGradient>
    </defs>
    <g id="Page 1" stroke="none" stroke-width="1" fill="none" fill-rule="evenodd">
        <g id="Group copy 2">
            <g id="iPhone copy">
                <g id="base" transform="translate(2.000000, 3.000000)">
                    <path d="M33.1271697,0 C14.8315394,0 0,14.7817066 0,33.0202583 L0,514.979742 C0,533.216327 14.8298005,548 33.1271697,548 L226.87283,548 C245.168461,548 260,533.218293 260,514.979742 L260,33.0202583 C260,14.7836731 245.170199,0 226.87283,0 L33.1271697,0 L33.1271697,0 Z M33.1271697,0" id="antenna edging" fill="url(#linearGradient-1)"></path>
                    <path d="M3,36.0506064 L3,511.949394 C3,530.20274 17.8704906,545 36.2060641,545 L223.793936,545 C242.133138,545 257,530.204063 257,511.949394 L257,35.0506064 C257,16.7972601 243.137446,3 224.801872,3 L35.1981276,3 C16.858925,3 3,17.7959365 3,36.0506064 Z M3,36.0506064" id="glass" fill="url(#linearGradient-2)"></path>
                    <path d="M18,77 L18,472 L242,472 L242,77 L18,77 L18,77 Z M18,77" id="view port" stroke="#000000" stroke-width="2" fill="#FFFFFF"></path>
                </g>
                <g id="edge buttons" fill="#000000">
                    <path d="M0,132 L0,151 L3,151 L3,132 L0,132 L0,132 Z M0,132" id="Rectangle 4 copy"></path>
                    <path d="M0,179 L0,198 L3,198 L3,179 L0,179 L0,179 Z M0,179" id="Rectangle 4 copy 2"></path>
                    <path d="M0,80 L0,105 L3,105 L3,80 L0,80 L0,80 Z M0,80" id="Rectangle 4"></path>
                    <path d="M176,0 L176,3 L217,3 L217,0 L176,0 L176,0 Z M176,0" id="Rectangle 8"></path>
                </g>
                <path d="M132,540 C145.254835,540 156,529.254835 156,516 C156,502.745165 145.254835,492 132,492 C118.745165,492 108,502.745165 108,516 C108,529.254835 118.745165,540 132,540 L132,540 Z M132,540" id="home" fill="url(#linearGradient-3)"></path>
                <g id="top elements" transform="translate(109.000000, 25.000000)">
                    <path d="M3.88812063,25 C2.29305548,25 1,26.3465174 1,28 L1,28 C1,29.6568546 2.29861985,31 3.88812063,31 L41.1118794,31 C42.7069445,31 44,29.6534826 44,28 L44,28 C44,26.3431454 42.7013802,25 41.1118794,25 L3.88812063,25 L3.88812063,25 Z M3.88812063,25" id="ear piece" opacity="0.443963068" fill="#060707"></path>
                    <g id="Camera" transform="translate(16.000000, 0.000000)">
                        <path d="M7,11 C9.76142417,11 12,8.76142417 12,6 C12,3.23857583 9.76142417,1 7,1 C4.23857583,1 2,3.23857583 2,6 C2,8.76142417 4.23857583,11 7,11 L7,11 Z M7,11" id="Oval 2" fill="#1A1E1D"></path>
                        <path d="M8,7 C9.1045696,7 10,6.1045696 10,5 C10,3.8954304 9.1045696,3 8,3 C6.8954304,3 6,3.8954304 6,5 C6,6.1045696 6.8954304,7 8,7 L8,7 Z M8,7" id="Oval 3" opacity="0.545170455" fill="url(#linearGradient-4)"></path>
                    </g>
                </g>
            </g>
        </g>
        <g id="Group" transform="translate(45.845058, 181.255274)">
            <path d="M88,176.047178 C136.60106,176.047178 176,136.637677 176,88.023589 C176,39.4095008 136.60106,0 88,0 C39.3989396,0 0,39.4095008 0,88.023589 C0,136.637677 39.3989396,176.047178 88,176.047178 Z M88,176.047178" id="Oval 1 copy" fill="#F9F9F9"></path>
            <path d="M88,170.521033 C133.563494,170.521033 170.5,133.585672 170.5,88.023589 C170.5,42.4615063 133.563494,5.5261446 88,5.5261446 C42.4365059,5.5261446 5.5,42.4615063 5.5,88.023589 C5.5,133.585672 42.4365059,170.521033 88,170.521033 Z M88,170.521033" id="Oval 1" fill="#127EFB"></path>
        </g>
        <path d="M47.7868179,455.502948 L48.4408727,455.502948 L48.4408727,445.940244 L50.6574646,448.110617 L51.1198814,447.657842 L48.1138453,444.714487 L45.1078093,447.657842 L45.5702261,448.110617 L47.7868179,445.940244 L47.7868179,455.502948 Z M49.4211796,449.618333 L49.4211796,450.254972 L53.3182014,450.254972 L53.3182014,461.077847 L42.2766396,461.077847 L42.2766396,450.254972 L46.1736614,450.254972 L46.1736614,449.618333 L41.627136,449.618333 L41.627136,461.714487 L53.967705,461.714487 L53.967705,449.618333 L49.4211796,449.618333 L49.4211796,449.618333 Z M49.4211796,449.618333" id="back" fill="#157EFB" transform="translate(47.797420, 453.214487) rotate(-90.000000) translate(-47.797420, -453.214487) "></path>
        <path d="M131,110.125176 C121.3351,110.125176 113.5,117.960276 113.5,127.625176 C113.5,137.290076 121.3351,145.125176 131,145.125176 C140.6649,145.125176 148.5,137.290076 148.5,127.625176 C148.5,117.960276 140.6642,110.125176 131,110.125176 L131,110.125176 Z M139.902173,138.559226 C137.973188,138.066266 136.355072,136.962123 136.355072,136.962123 C136.115942,136.827419 136.321014,135.603618 136.321014,135.603618 L134.956521,135.400129 C134.956521,135.298385 134.854347,133.803743 134.854347,133.803743 C136.286956,133.327263 136.137681,130.519257 136.137681,130.519257 C137.047826,131.017232 137.637681,128.798198 137.637681,128.798198 C138.714492,125.712902 137.104347,125.899195 137.104347,125.899195 C137.615217,123.589163 137.104347,120.214397 137.104347,120.214397 C136.388405,113.963556 125.356521,115.933961 127.010145,117.904366 C123.08913,116.816702 124.452898,124.222559 124.452898,124.222559 L125.134782,126.056827 C123.792753,126.917356 124.726087,127.959163 124.771014,129.159319 C124.837681,130.930534 125.930435,130.56368 125.930435,130.56368 C125.999275,133.485612 127.454348,133.869662 127.454348,133.869662 C127.726811,135.704646 127.454348,135.546297 127.454348,135.546297 L126.260869,135.546297 C126.318116,136.010596 126.158695,136.790877 126.158695,136.790877 C124.632608,137.462964 124.306522,137.857045 122.793478,138.512652 C121.857246,138.918914 120.842753,139.332341 119.88913,139.708509 C116.481884,136.689132 114.333333,132.307668 114.333333,127.43826 C114.333333,118.351469 121.810145,110.958509 131,110.958509 C140.191304,110.958509 147.666666,118.351469 147.666666,127.43826 C147.668115,132.107045 145.690579,136.325145 142.524637,139.327325 C141.654347,139.044304 140.763767,138.779195 139.902173,138.559226 Z M139.902173,138.559226" id="user" fill="#147EFB"></path>
        <path d="M89.4,158.562644 L92.772,158.562644 L91.116,154.170644 Z M90.696,153.354644 L91.608,153.354644 L94.968,161.922644 L94.092,161.922644 L93.048,159.258644 L89.148,159.258644 L88.116,161.922644 L87.252,161.922644 Z M95.592,155.730644 L96.348,155.730644 L96.348,156.798644 L96.372,156.798644 C96.5160007,156.422642 96.7719982,156.120645 97.14,155.892644 C97.5080018,155.664643 97.9119978,155.550644 98.352,155.550644 C98.7840022,155.550644 99.1459985,155.606644 99.438,155.718644 C99.7300015,155.830645 99.9639991,155.988643 100.14,156.192644 C100.316001,156.396645 100.44,156.646643 100.512,156.942644 C100.584,157.238646 100.62,157.570642 100.62,157.938644 L100.62,161.922644 L99.864,161.922644 L99.864,158.058644 C99.864,157.794643 99.8400002,157.548645 99.792,157.320644 C99.7439998,157.092643 99.6600006,156.894645 99.54,156.726644 C99.4199994,156.558643 99.258001,156.426645 99.054,156.330644 C98.849999,156.234644 98.5960015,156.186644 98.292,156.186644 C97.9879985,156.186644 97.7180012,156.240644 97.482,156.348644 C97.2459988,156.456645 97.0460008,156.604643 96.882,156.792644 C96.7179992,156.980645 96.5900005,157.204643 96.498,157.464644 C96.4059995,157.724645 96.356,158.006643 96.348,158.310644 L96.348,161.922644 L95.592,161.922644 Z M106.8,161.922644 L106.8,160.746644 L106.776,160.746644 C106.696,160.946645 106.578001,161.130643 106.422,161.298644 C106.265999,161.466645 106.088001,161.608644 105.888,161.724644 C105.687999,161.840645 105.474001,161.930644 105.246,161.994644 C105.017999,162.058644 104.792001,162.090644 104.568,162.090644 C104.095998,162.090644 103.686002,162.004645 103.338,161.832644 C102.989998,161.660643 102.700001,161.424646 102.468,161.124644 C102.235999,160.824643 102.064001,160.476646 101.952,160.080644 C101.839999,159.684642 101.784,159.266646 101.784,158.826644 C101.784,158.386642 101.839999,157.968646 101.952,157.572644 C102.064001,157.176642 102.235999,156.828646 102.468,156.528644 C102.700001,156.228643 102.989998,155.990645 103.338,155.814644 C103.686002,155.638643 104.095998,155.550644 104.568,155.550644 C104.800001,155.550644 105.025999,155.578644 105.246,155.634644 C105.466001,155.690644 105.671999,155.776644 105.864,155.892644 C106.056001,156.008645 106.225999,156.150643 106.374,156.318644 C106.522001,156.486645 106.636,156.682643 106.716,156.906644 L106.74,156.906644 L106.74,153.354644 L107.496,153.354644 L107.496,161.922644 Z M102.54,158.826644 C102.54,159.146646 102.578,159.464643 102.654,159.780644 C102.73,160.096646 102.849999,160.378643 103.014,160.626644 C103.178001,160.874645 103.387999,161.076643 103.644,161.232644 C103.900001,161.388645 104.207998,161.466644 104.568,161.466644 C104.968002,161.466644 105.305999,161.388645 105.582,161.232644 C105.858001,161.076643 106.081999,160.874645 106.254,160.626644 C106.426001,160.378643 106.55,160.096646 106.626,159.780644 C106.702,159.464643 106.74,159.146646 106.74,158.826644 C106.74,158.506643 106.702,158.188646 106.626,157.872644 C106.55,157.556643 106.426001,157.274645 106.254,157.026644 C106.081999,156.778643 105.858001,156.576645 105.582,156.420644 C105.305999,156.264643 104.968002,156.186644 104.568,156.186644 C104.207998,156.186644 103.900001,156.264643 103.644,156.420644 C103.387999,156.576645 103.178001,156.778643 103.014,157.026644 C102.849999,157.274645 102.73,157.556643 102.654,157.872644 C102.578,158.188646 102.54,158.506643 102.54,158.826644 Z M113.388,158.394644 C113.38,158.106643 113.33,157.830645 113.238,157.566644 C113.146,157.302643 113.016001,157.068645 112.848,156.864644 C112.679999,156.660643 112.476001,156.496645 112.236,156.372644 C111.995999,156.248644 111.724002,156.186644 111.42,156.186644 C111.107998,156.186644 110.832001,156.248644 110.592,156.372644 C110.351999,156.496645 110.148001,156.660643 109.98,156.864644 C109.811999,157.068645 109.678001,157.304643 109.578,157.572644 C109.477999,157.840646 109.412,158.114643 109.38,158.394644 Z M109.38,159.030644 C109.38,159.302646 109.418,159.584643 109.494,159.876644 C109.57,160.168646 109.691999,160.430643 109.86,160.662644 C110.028001,160.894645 110.239999,161.086643 110.496,161.238644 C110.752001,161.390645 111.059998,161.466644 111.42,161.466644 C111.972003,161.466644 112.403998,161.322646 112.716,161.034644 C113.028002,160.746643 113.243999,160.362647 113.364,159.882644 L114.12,159.882644 C113.959999,160.586648 113.666002,161.130642 113.238,161.514644 C112.809998,161.898646 112.204004,162.090644 111.42,162.090644 C110.931998,162.090644 110.510002,162.004645 110.154,161.832644 C109.797998,161.660643 109.508001,161.424646 109.284,161.124644 C109.059999,160.824643 108.894001,160.476646 108.786,160.080644 C108.677999,159.684642 108.624,159.266646 108.624,158.826644 C108.624,158.418642 108.677999,158.018646 108.786,157.626644 C108.894001,157.234642 109.059999,156.884646 109.284,156.576644 C109.508001,156.268643 109.797998,156.020645 110.154,155.832644 C110.510002,155.644643 110.931998,155.550644 111.42,155.550644 C111.916002,155.550644 112.339998,155.650643 112.692,155.850644 C113.044002,156.050645 113.329999,156.312643 113.55,156.636644 C113.770001,156.960646 113.928,157.332642 114.024,157.752644 C114.12,158.172646 114.16,158.598642 114.144,159.030644 Z M115.164,155.730644 L115.86,155.730644 L115.86,157.182644 L115.884,157.182644 C116.076001,156.678642 116.373998,156.290646 116.778,156.018644 C117.182002,155.746643 117.663997,155.622644 118.224,155.646644 L118.224,156.402644 C117.879998,156.386644 117.568001,156.432644 117.288,156.540644 C117.007999,156.648645 116.766001,156.802643 116.562,157.002644 C116.357999,157.202645 116.200001,157.440643 116.088,157.716644 C115.975999,157.992646 115.92,158.294643 115.92,158.622644 L115.92,161.922644 L115.164,161.922644 Z M122.652,157.542644 C122.644,157.310643 122.596,157.108645 122.508,156.936644 C122.42,156.764643 122.302001,156.622645 122.154,156.510644 C122.005999,156.398644 121.836001,156.316644 121.644,156.264644 C121.451999,156.212644 121.248001,156.186644 121.032,156.186644 C120.863999,156.186644 120.694001,156.204644 120.522,156.240644 C120.349999,156.276644 120.192001,156.336644 120.048,156.420644 C119.903999,156.504645 119.788,156.614643 119.7,156.750644 C119.612,156.886645 119.568,157.054643 119.568,157.254644 C119.568,157.422645 119.61,157.564644 119.694,157.680644 C119.778,157.796645 119.883999,157.894644 120.012,157.974644 C120.140001,158.054645 120.279999,158.120644 120.432,158.172644 C120.584001,158.224644 120.723999,158.266644 120.852,158.298644 L121.86,158.526644 C122.076001,158.558644 122.289999,158.616644 122.502,158.700644 C122.714001,158.784645 122.901999,158.894643 123.066,159.030644 C123.230001,159.166645 123.363999,159.334643 123.468,159.534644 C123.572001,159.734645 123.624,159.970643 123.624,160.242644 C123.624,160.578646 123.548001,160.864643 123.396,161.100644 C123.243999,161.336645 123.050001,161.528643 122.814,161.676644 C122.577999,161.824645 122.312001,161.930644 122.016,161.994644 C121.719999,162.058644 121.428001,162.090644 121.14,162.090644 C120.411996,162.090644 119.822002,161.918646 119.37,161.574644 C118.917998,161.230642 118.66,160.678648 118.596,159.918644 L119.352,159.918644 C119.384,160.430647 119.569998,160.816643 119.91,161.076644 C120.250002,161.336645 120.671997,161.466644 121.176,161.466644 C121.360001,161.466644 121.549999,161.446644 121.746,161.406644 C121.942001,161.366644 122.123999,161.298645 122.292,161.202644 C122.460001,161.106644 122.597999,160.984645 122.706,160.836644 C122.814001,160.688643 122.868,160.506645 122.868,160.290644 C122.868,160.106643 122.83,159.952645 122.754,159.828644 C122.678,159.704644 122.576001,159.600645 122.448,159.516644 C122.319999,159.432644 122.174001,159.362644 122.01,159.306644 C121.845999,159.250644 121.680001,159.202644 121.512,159.162644 L120.54,158.946644 C120.291999,158.882644 120.064001,158.808645 119.856,158.724644 C119.647999,158.640644 119.466001,158.536645 119.31,158.412644 C119.153999,158.288644 119.032,158.136645 118.944,157.956644 C118.856,157.776643 118.812,157.554645 118.812,157.290644 C118.812,156.978643 118.881999,156.710645 119.022,156.486644 C119.162001,156.262643 119.343999,156.082645 119.568,155.946644 C119.792001,155.810643 120.041999,155.710644 120.318,155.646644 C120.594001,155.582644 120.867999,155.550644 121.14,155.550644 C121.452002,155.550644 121.741999,155.590644 122.01,155.670644 C122.278001,155.750645 122.513999,155.874643 122.718,156.042644 C122.922001,156.210645 123.083999,156.418643 123.204,156.666644 C123.324001,156.914645 123.392,157.206642 123.408,157.542644 Z M129.408,158.562644 L132.78,158.562644 L131.124,154.170644 Z M130.704,153.354644 L131.616,153.354644 L134.976,161.922644 L134.1,161.922644 L133.056,159.258644 L129.156,159.258644 L128.124,161.922644 L127.26,161.922644 Z M135.6,155.730644 L136.356,155.730644 L136.356,156.798644 L136.38,156.798644 C136.524001,156.422642 136.779998,156.120645 137.148,155.892644 C137.516002,155.664643 137.919998,155.550644 138.36,155.550644 C138.792002,155.550644 139.153999,155.606644 139.446,155.718644 C139.738001,155.830645 139.971999,155.988643 140.148,156.192644 C140.324001,156.396645 140.448,156.646643 140.52,156.942644 C140.592,157.238646 140.628,157.570642 140.628,157.938644 L140.628,161.922644 L139.872,161.922644 L139.872,158.058644 C139.872,157.794643 139.848,157.548645 139.8,157.320644 C139.752,157.092643 139.668001,156.894645 139.548,156.726644 C139.427999,156.558643 139.266001,156.426645 139.062,156.330644 C138.857999,156.234644 138.604002,156.186644 138.3,156.186644 C137.995998,156.186644 137.726001,156.240644 137.49,156.348644 C137.253999,156.456645 137.054001,156.604643 136.89,156.792644 C136.725999,156.980645 136.598,157.204643 136.506,157.464644 C136.414,157.724645 136.364,158.006643 136.356,158.310644 L136.356,161.922644 L135.6,161.922644 Z M146.808,161.922644 L146.808,160.746644 L146.784,160.746644 C146.704,160.946645 146.586001,161.130643 146.43,161.298644 C146.273999,161.466645 146.096001,161.608644 145.896,161.724644 C145.695999,161.840645 145.482001,161.930644 145.254,161.994644 C145.025999,162.058644 144.800001,162.090644 144.576,162.090644 C144.103998,162.090644 143.694002,162.004645 143.346,161.832644 C142.997998,161.660643 142.708001,161.424646 142.476,161.124644 C142.243999,160.824643 142.072001,160.476646 141.96,160.080644 C141.847999,159.684642 141.792,159.266646 141.792,158.826644 C141.792,158.386642 141.847999,157.968646 141.96,157.572644 C142.072001,157.176642 142.243999,156.828646 142.476,156.528644 C142.708001,156.228643 142.997998,155.990645 143.346,155.814644 C143.694002,155.638643 144.103998,155.550644 144.576,155.550644 C144.808001,155.550644 145.033999,155.578644 145.254,155.634644 C145.474001,155.690644 145.679999,155.776644 145.872,155.892644 C146.064001,156.008645 146.233999,156.150643 146.382,156.318644 C146.530001,156.486645 146.644,156.682643 146.724,156.906644 L146.748,156.906644 L146.748,153.354644 L147.504,153.354644 L147.504,161.922644 Z M142.548,158.826644 C142.548,159.146646 142.586,159.464643 142.662,159.780644 C142.738,160.096646 142.857999,160.378643 143.022,160.626644 C143.186001,160.874645 143.395999,161.076643 143.652,161.232644 C143.908001,161.388645 144.215998,161.466644 144.576,161.466644 C144.976002,161.466644 145.313999,161.388645 145.59,161.232644 C145.866001,161.076643 146.089999,160.874645 146.262,160.626644 C146.434001,160.378643 146.558,160.096646 146.634,159.780644 C146.71,159.464643 146.748,159.146646 146.748,158.826644 C146.748,158.506643 146.71,158.188646 146.634,157.872644 C146.558,157.556643 146.434001,157.274645 146.262,157.026644 C146.089999,156.778643 145.866001,156.576645 145.59,156.420644 C145.313999,156.264643 144.976002,156.186644 144.576,156.186644 C144.215998,156.186644 143.908001,156.264643 143.652,156.420644 C143.395999,156.576645 143.186001,156.778643 143.022,157.026644 C142.857999,157.274645 142.738,157.556643 142.662,157.872644 C142.586,158.188646 142.548,158.506643 142.548,158.826644 Z M153.396,158.394644 C153.388,158.106643 153.338,157.830645 153.246,157.566644 C153.154,157.302643 153.024001,157.068645 152.856,156.864644 C152.687999,156.660643 152.484001,156.496645 152.244,156.372644 C152.003999,156.248644 151.732002,156.186644 151.428,156.186644 C151.115998,156.186644 150.840001,156.248644 150.6,156.372644 C150.359999,156.496645 150.156001,156.660643 149.988,156.864644 C149.819999,157.068645 149.686001,157.304643 149.586,157.572644 C149.485999,157.840646 149.42,158.114643 149.388,158.394644 Z M149.388,159.030644 C149.388,159.302646 149.426,159.584643 149.502,159.876644 C149.578,160.168646 149.699999,160.430643 149.868,160.662644 C150.036001,160.894645 150.247999,161.086643 150.504,161.238644 C150.760001,161.390645 151.067998,161.466644 151.428,161.466644 C151.980003,161.466644 152.411998,161.322646 152.724,161.034644 C153.036002,160.746643 153.251999,160.362647 153.372,159.882644 L154.128,159.882644 C153.967999,160.586648 153.674002,161.130642 153.246,161.514644 C152.817998,161.898646 152.212004,162.090644 151.428,162.090644 C150.939998,162.090644 150.518002,162.004645 150.162,161.832644 C149.805998,161.660643 149.516001,161.424646 149.292,161.124644 C149.067999,160.824643 148.902001,160.476646 148.794,160.080644 C148.685999,159.684642 148.632,159.266646 148.632,158.826644 C148.632,158.418642 148.685999,158.018646 148.794,157.626644 C148.902001,157.234642 149.067999,156.884646 149.292,156.576644 C149.516001,156.268643 149.805998,156.020645 150.162,155.832644 C150.518002,155.644643 150.939998,155.550644 151.428,155.550644 C151.924002,155.550644 152.347998,155.650643 152.7,155.850644 C153.052002,156.050645 153.337999,156.312643 153.558,156.636644 C153.778001,156.960646 153.936,157.332642 154.032,157.752644 C154.128,158.172646 154.168,158.598642 154.152,159.030644 Z M155.172,155.730644 L155.868,155.730644 L155.868,157.182644 L155.892,157.182644 C156.084001,156.678642 156.381998,156.290646 156.786,156.018644 C157.190002,155.746643 157.671997,155.622644 158.232,155.646644 L158.232,156.402644 C157.887998,156.386644 157.576001,156.432644 157.296,156.540644 C157.015999,156.648645 156.774001,156.802643 156.57,157.002644 C156.365999,157.202645 156.208001,157.440643 156.096,157.716644 C155.983999,157.992646 155.928,158.294643 155.928,158.622644 L155.928,161.922644 L155.172,161.922644 Z M161.868,158.526644 C162.084015,158.558648 162.298006,158.616647 162.51,158.700644 C162.722001,158.784645 162.909999,158.894643 163.074,159.030644 C163.238001,159.166645 163.371999,159.334643 163.476,159.534644 C163.580001,159.734645 163.632,159.970643 163.632,160.242644 C163.632,160.578646 163.556001,160.864643 163.404,161.100644 C163.251999,161.336645 163.058001,161.528643 162.822,161.676644 C162.585999,161.824645 162.320001,161.930644 162.024,161.994644 C161.727999,162.058644 161.436001,162.090644 161.148,162.090644 C160.419996,162.090644 159.830002,161.918646 159.378,161.574644 C158.925998,161.230642 158.668,160.678648 158.604,159.918644 L159.36,159.918644 C159.392,160.430647 159.577998,160.816643 159.918,161.076644 C160.258002,161.336645 160.679997,161.466644 161.184,161.466644 C161.368001,161.466644 161.557999,161.446644 161.754,161.406644 C161.950001,161.366644 162.131999,161.298645 162.3,161.202644 C162.468001,161.106644 162.605999,160.984645 162.714,160.836644 C162.822001,160.688643 162.876,160.506645 162.876,160.290644 C162.876,160.106643 162.838,159.952645 162.762,159.828644 C162.686,159.704644 162.584001,159.600645 162.456,159.516644 C162.327999,159.432644 162.182001,159.362644 162.018,159.306644 C161.853999,159.250644 161.688001,159.202644 161.52,159.162644 L160.548,158.946644 C160.299999,158.882644 160.072001,158.808645 159.864,158.724644 C159.655999,158.640644 159.474001,158.536645 159.318,158.412644 C159.161999,158.288644 159.04,158.136645 158.952,157.956644 C158.864,157.776643 158.82,157.554645 158.82,157.290644 C158.82,156.978643 158.889999,156.710645 159.03,156.486644 C159.170001,156.262643 159.351999,156.082645 159.576,155.946644 C159.800001,155.810643 160.049999,155.710644 160.326,155.646644 C160.602001,155.582644 160.875999,155.550644 161.148,155.550644 C161.460002,155.550644 161.749999,155.590644 162.018,155.670644 C162.286001,155.750645 162.521999,155.874643 162.726,156.042644 C162.930001,156.210645 163.091999,156.418643 163.212,156.666644 C163.332001,156.914645 163.4,157.206642 163.416,157.542644 L162.66,157.542644 C162.652,157.310643 162.604,157.108645 162.516,156.936644 C162.428,156.764643 162.310001,156.622645 162.162,156.510644 C162.013999,156.398644 161.844001,156.316644 161.652,156.264644 C161.459999,156.212644 161.256001,156.186644 161.04,156.186644 C160.871999,156.186644 160.702001,156.204644 160.53,156.240644 C160.357999,156.276644 160.200001,156.336644 160.056,156.420644 C159.911999,156.504645 159.796,156.614643 159.708,156.750644 C159.62,156.886645 159.576,157.054643 159.576,157.254644 C159.576,157.422645 159.618,157.564644 159.702,157.680644 C159.786,157.796645 159.891999,157.894644 160.02,157.974644 C160.148001,158.054645 160.287999,158.120644 160.44,158.172644 C160.592001,158.224644 160.731999,158.266644 160.86,158.298644 Z M169.176,158.394644 C169.168,158.106643 169.118,157.830645 169.026,157.566644 C168.934,157.302643 168.804001,157.068645 168.636,156.864644 C168.467999,156.660643 168.264001,156.496645 168.024,156.372644 C167.783999,156.248644 167.512002,156.186644 167.208,156.186644 C166.895998,156.186644 166.620001,156.248644 166.38,156.372644 C166.139999,156.496645 165.936001,156.660643 165.768,156.864644 C165.599999,157.068645 165.466001,157.304643 165.366,157.572644 C165.265999,157.840646 165.2,158.114643 165.168,158.394644 Z M165.168,159.030644 C165.168,159.302646 165.206,159.584643 165.282,159.876644 C165.358,160.168646 165.479999,160.430643 165.648,160.662644 C165.816001,160.894645 166.027999,161.086643 166.284,161.238644 C166.540001,161.390645 166.847998,161.466644 167.208,161.466644 C167.760003,161.466644 168.191998,161.322646 168.504,161.034644 C168.816002,160.746643 169.031999,160.362647 169.152,159.882644 L169.908,159.882644 C169.747999,160.586648 169.454002,161.130642 169.026,161.514644 C168.597998,161.898646 167.992004,162.090644 167.208,162.090644 C166.719998,162.090644 166.298002,162.004645 165.942,161.832644 C165.585998,161.660643 165.296001,161.424646 165.072,161.124644 C164.847999,160.824643 164.682001,160.476646 164.574,160.080644 C164.465999,159.684642 164.412,159.266646 164.412,158.826644 C164.412,158.418642 164.465999,158.018646 164.574,157.626644 C164.682001,157.234642 164.847999,156.884646 165.072,156.576644 C165.296001,156.268643 165.585998,156.020645 165.942,155.832644 C166.298002,155.644643 166.719998,155.550644 167.208,155.550644 C167.704002,155.550644 168.127998,155.650643 168.48,155.850644 C168.832002,156.050645 169.117999,156.312643 169.338,156.636644 C169.558001,156.960646 169.716,157.332642 169.812,157.752644 C169.908,158.172646 169.948,158.598642 169.932,159.030644 Z M170.94,155.730644 L171.696,155.730644 L171.696,156.798644 L171.72,156.798644 C171.864001,156.422642 172.119998,156.120645 172.488,155.892644 C172.856002,155.664643 173.259998,155.550644 173.7,155.550644 C174.132002,155.550644 174.493999,155.606644 174.786,155.718644 C175.078001,155.830645 175.311999,155.988643 175.488,156.192644 C175.664001,156.396645 175.788,156.646643 175.86,156.942644 C175.932,157.238646 175.968,157.570642 175.968,157.938644 L175.968,161.922644 L175.212,161.922644 L175.212,158.058644 C175.212,157.794643 175.188,157.548645 175.14,157.320644 C175.092,157.092643 175.008001,156.894645 174.888,156.726644 C174.767999,156.558643 174.606001,156.426645 174.402,156.330644 C174.197999,156.234644 173.944002,156.186644 173.64,156.186644 C173.335998,156.186644 173.066001,156.240644 172.83,156.348644 C172.593999,156.456645 172.394001,156.604643 172.23,156.792644 C172.065999,156.980645 171.938,157.204643 171.846,157.464644 C171.754,157.724645 171.704,158.006643 171.696,158.310644 L171.696,161.922644 L170.94,161.922644 Z M170.94,155.730644" id="Anders Andersen" fill="#147EFB"></path>
        <path d="M95.8500584,249.635 L98.2200584,249.635 C98.3800592,249.635 98.5800572,249.6225 98.8200584,249.5975 C99.0600596,249.5725 99.315057,249.5125 99.5850584,249.4175 C99.8550597,249.3225 100.122557,249.185001 100.387558,249.005 C100.65256,248.824999 100.890057,248.580002 101.100058,248.27 C101.310059,247.959998 101.482558,247.572502 101.617558,247.1075 C101.752559,246.642498 101.820058,246.080003 101.820058,245.42 C101.820058,244.779997 101.757559,244.207503 101.632558,243.7025 C101.507558,243.197497 101.30256,242.767502 101.017558,242.4125 C100.732557,242.057498 100.365061,241.787501 99.9150584,241.6025 C99.4650561,241.417499 98.9100617,241.325 98.2500584,241.325 L95.8500584,241.325 Z M94.4250584,240.125 L98.1000584,240.125 C99.7500666,240.125 101.020054,240.544996 101.910058,241.385 C102.800063,242.225004 103.245058,243.504991 103.245058,245.225 C103.245058,246.125005 103.145059,246.922497 102.945058,247.6175 C102.745057,248.312503 102.43506,248.897498 102.015058,249.3725 C101.595056,249.847502 101.060062,250.209999 100.410058,250.46 C99.7600551,250.710001 98.9900628,250.835 98.1000584,250.835 L94.4250584,250.835 Z M104.850058,241.685 L104.850058,240.125 L106.125058,240.125 L106.125058,241.685 Z M104.850058,243.08 L106.125058,243.08 L106.125058,250.835 L104.850058,250.835 Z M108.105058,243.08 L109.305058,243.08 L109.305058,244.31 L109.335058,244.31 C109.865061,243.369995 110.705053,242.9 111.855058,242.9 C112.365061,242.9 112.790057,242.969999 113.130058,243.11 C113.47006,243.250001 113.745057,243.444999 113.955058,243.695 C114.165059,243.945001 114.312558,244.242498 114.397558,244.5875 C114.482559,244.932502 114.525058,245.314998 114.525058,245.735 L114.525058,250.835 L113.250058,250.835 L113.250058,245.585 C113.250058,245.104998 113.11006,244.725001 112.830058,244.445 C112.550057,244.164999 112.165061,244.025 111.675058,244.025 C111.285056,244.025 110.94756,244.084999 110.662558,244.205 C110.377557,244.325001 110.140059,244.494999 109.950058,244.715 C109.760057,244.935001 109.617559,245.192499 109.522558,245.4875 C109.427558,245.782501 109.380058,246.104998 109.380058,246.455 L109.380058,250.835 L108.105058,250.835 Z M121.395058,248.39 C121.405058,248.670001 121.470058,248.907499 121.590058,249.1025 C121.710059,249.297501 121.867557,249.452499 122.062558,249.5675 C122.257559,249.682501 122.477557,249.765 122.722558,249.815 C122.96756,249.865 123.220057,249.89 123.480058,249.89 C123.680059,249.89 123.890057,249.875 124.110058,249.845 C124.330059,249.815 124.532557,249.76 124.717558,249.68 C124.902559,249.6 125.055058,249.482501 125.175058,249.3275 C125.295059,249.172499 125.355058,248.975001 125.355058,248.735 C125.355058,248.404998 125.23006,248.155001 124.980058,247.985 C124.730057,247.814999 124.41756,247.677501 124.042558,247.5725 C123.667556,247.467499 123.260061,247.3725 122.820058,247.2875 C122.380056,247.2025 121.97256,247.082501 121.597558,246.9275 C121.222556,246.772499 120.91006,246.555001 120.660058,246.275 C120.410057,245.994999 120.285058,245.605002 120.285058,245.105 C120.285058,244.714998 120.372557,244.380001 120.547558,244.1 C120.722559,243.819999 120.947557,243.592501 121.222558,243.4175 C121.49756,243.242499 121.807557,243.1125 122.152558,243.0275 C122.49756,242.9425 122.840057,242.9 123.180058,242.9 C123.620061,242.9 124.025057,242.9375 124.395058,243.0125 C124.76506,243.0875 125.092557,243.217499 125.377558,243.4025 C125.66256,243.587501 125.890058,243.837498 126.060058,244.1525 C126.230059,244.467502 126.330058,244.859998 126.360058,245.33 L125.085058,245.33 C125.065058,245.079999 125.000059,244.872501 124.890058,244.7075 C124.780058,244.542499 124.640059,244.410001 124.470058,244.31 C124.300058,244.209999 124.112559,244.1375 123.907558,244.0925 C123.702557,244.0475 123.495059,244.025 123.285058,244.025 C123.095057,244.025 122.902559,244.04 122.707558,244.07 C122.512557,244.1 122.335059,244.1525 122.175058,244.2275 C122.015058,244.3025 121.885059,244.402499 121.785058,244.5275 C121.685058,244.652501 121.635058,244.814999 121.635058,245.015 C121.635058,245.235001 121.712558,245.417499 121.867558,245.5625 C122.022559,245.707501 122.220057,245.8275 122.460058,245.9225 C122.70006,246.0175 122.970057,246.0975 123.270058,246.1625 C123.57006,246.2275 123.870057,246.295 124.170058,246.365 C124.49006,246.435 124.802557,246.519999 125.107558,246.62 C125.41256,246.72 125.682557,246.852499 125.917558,247.0175 C126.15256,247.182501 126.342558,247.389999 126.487558,247.64 C126.632559,247.890001 126.705058,248.199998 126.705058,248.57 C126.705058,249.040002 126.607559,249.429998 126.412558,249.74 C126.217557,250.050002 125.96256,250.299999 125.647558,250.49 C125.332557,250.680001 124.97756,250.8125 124.582558,250.8875 C124.187556,250.9625 123.79506,251 123.405058,251 C122.975056,251 122.56506,250.955 122.175058,250.865 C121.785056,250.775 121.44006,250.627501 121.140058,250.4225 C120.840057,250.217499 120.600059,249.947502 120.420058,249.6125 C120.240057,249.277498 120.140058,248.870002 120.120058,248.39 Z M134.985058,250.805 C134.765057,250.935001 134.46006,251 134.070058,251 C133.740057,251 133.477559,250.907501 133.282558,250.7225 C133.087557,250.537499 132.990058,250.235002 132.990058,249.815 C132.640057,250.235002 132.232561,250.537499 131.767558,250.7225 C131.302556,250.907501 130.800061,251 130.260058,251 C129.910057,251 129.58006,250.9625 129.270058,250.8875 C128.960057,250.8125 128.68756,250.687501 128.452558,250.5125 C128.217557,250.337499 128.032559,250.112501 127.897558,249.8375 C127.762558,249.562499 127.695058,249.230002 127.695058,248.84 C127.695058,248.399998 127.770058,248.040001 127.920058,247.76 C128.070059,247.479999 128.267557,247.252501 128.512558,247.0775 C128.75756,246.902499 129.037557,246.77 129.352558,246.68 C129.66756,246.59 129.990057,246.515 130.320058,246.455 C130.67006,246.385 131.002557,246.3325 131.317558,246.2975 C131.63256,246.2625 131.910057,246.2125 132.150058,246.1475 C132.39006,246.0825 132.580058,245.987501 132.720058,245.8625 C132.860059,245.737499 132.930058,245.555001 132.930058,245.315 C132.930058,245.034999 132.877559,244.810001 132.772558,244.64 C132.667558,244.469999 132.532559,244.34 132.367558,244.25 C132.202558,244.16 132.017559,244.1 131.812558,244.07 C131.607557,244.04 131.405059,244.025 131.205058,244.025 C130.665056,244.025 130.21506,244.127499 129.855058,244.3325 C129.495057,244.537501 129.300059,244.924997 129.270058,245.495 L127.995058,245.495 C128.015058,245.014998 128.115057,244.610002 128.295058,244.28 C128.475059,243.949998 128.715057,243.682501 129.015058,243.4775 C129.31506,243.272499 129.660056,243.125 130.050058,243.035 C130.44006,242.945 130.850056,242.9 131.280058,242.9 C131.63006,242.9 131.977557,242.925 132.322558,242.975 C132.66756,243.025 132.980057,243.127499 133.260058,243.2825 C133.54006,243.437501 133.765058,243.654999 133.935058,243.935 C134.105059,244.215001 134.190058,244.579998 134.190058,245.03 L134.190058,249.02 C134.190058,249.320002 134.207558,249.539999 134.242558,249.68 C134.277559,249.820001 134.395057,249.89 134.595058,249.89 C134.705059,249.89 134.835058,249.865 134.985058,249.815 Z M132.915058,246.83 C132.755058,246.950001 132.54506,247.0375 132.285058,247.0925 C132.025057,247.1475 131.75256,247.1925 131.467558,247.2275 C131.182557,247.2625 130.89506,247.3025 130.605058,247.3475 C130.315057,247.3925 130.05506,247.464999 129.825058,247.565 C129.595057,247.665001 129.407559,247.807499 129.262558,247.9925 C129.117558,248.177501 129.045058,248.429998 129.045058,248.75 C129.045058,248.960001 129.087558,249.137499 129.172558,249.2825 C129.257559,249.427501 129.367558,249.545 129.502558,249.635 C129.637559,249.725 129.797557,249.79 129.982558,249.83 C130.167559,249.87 130.355057,249.89 130.545058,249.89 C130.96506,249.89 131.325057,249.832501 131.625058,249.7175 C131.92506,249.602499 132.170057,249.457501 132.360058,249.2825 C132.550059,249.107499 132.690058,248.917501 132.780058,248.7125 C132.870059,248.507499 132.915058,248.315001 132.915058,248.135 Z M136.245058,240.125 L137.520058,240.125 L137.520058,250.835 L136.245058,250.835 Z M140.430058,247.025 C140.430058,247.385002 140.477558,247.737498 140.572558,248.0825 C140.667559,248.427502 140.812557,248.734999 141.007558,249.005 C141.202559,249.275001 141.452557,249.489999 141.757558,249.65 C142.06256,249.810001 142.420056,249.89 142.830058,249.89 C143.260061,249.89 143.625057,249.805001 143.925058,249.635 C144.22506,249.464999 144.470057,249.242501 144.660058,248.9675 C144.850059,248.692499 144.987558,248.380002 145.072558,248.03 C145.157559,247.679998 145.200058,247.325002 145.200058,246.965 C145.200058,246.584998 145.155059,246.217502 145.065058,245.8625 C144.975058,245.507498 144.832559,245.195001 144.637558,244.925 C144.442557,244.654999 144.19006,244.437501 143.880058,244.2725 C143.570057,244.107499 143.195061,244.025 142.755058,244.025 C142.325056,244.025 141.96006,244.109999 141.660058,244.28 C141.360057,244.450001 141.120059,244.674999 140.940058,244.955 C140.760057,245.235001 140.630059,245.554998 140.550058,245.915 C140.470058,246.275002 140.430058,246.644998 140.430058,247.025 Z M145.155058,250.835 L145.155058,249.785 L145.125058,249.785 C144.915057,250.215002 144.585061,250.524999 144.135058,250.715 C143.685056,250.905001 143.190061,251 142.650058,251 C142.050055,251 141.527561,250.890001 141.082558,250.67 C140.637556,250.449999 140.26756,250.155002 139.972558,249.785 C139.677557,249.414998 139.455059,248.985002 139.305058,248.495 C139.155058,248.004998 139.080058,247.485003 139.080058,246.935 C139.080058,246.384997 139.152558,245.865002 139.297558,245.375 C139.442559,244.884998 139.662557,244.457502 139.957558,244.0925 C140.25256,243.727498 140.622556,243.437501 141.067558,243.2225 C141.512561,243.007499 142.030055,242.9 142.620058,242.9 C142.820059,242.9 143.035057,242.92 143.265058,242.96 C143.49506,243 143.725057,243.0675 143.955058,243.1625 C144.18506,243.2575 144.402557,243.382499 144.607558,243.5375 C144.812559,243.692501 144.985058,243.884999 145.125058,244.115 L145.155058,244.115 L145.155058,240.125 L146.430058,240.125 L146.430058,250.835 Z M149.325058,246.965 C149.325058,247.435002 149.387558,247.852498 149.512558,248.2175 C149.637559,248.582502 149.810057,248.887499 150.030058,249.1325 C150.250059,249.377501 150.507557,249.564999 150.802558,249.695 C151.09756,249.825001 151.410057,249.89 151.740058,249.89 C152.07006,249.89 152.382557,249.825001 152.677558,249.695 C152.97256,249.564999 153.230057,249.377501 153.450058,249.1325 C153.670059,248.887499 153.842558,248.582502 153.967558,248.2175 C154.092559,247.852498 154.155058,247.435002 154.155058,246.965 C154.155058,246.494998 154.092559,246.077502 153.967558,245.7125 C153.842558,245.347498 153.670059,245.040001 153.450058,244.79 C153.230057,244.539999 152.97256,244.350001 152.677558,244.22 C152.382557,244.089999 152.07006,244.025 151.740058,244.025 C151.410057,244.025 151.09756,244.089999 150.802558,244.22 C150.507557,244.350001 150.250059,244.539999 150.030058,244.79 C149.810057,245.040001 149.637559,245.347498 149.512558,245.7125 C149.387558,246.077502 149.325058,246.494998 149.325058,246.965 Z M147.975058,246.965 C147.975058,246.394997 148.055058,245.862502 148.215058,245.3675 C148.375059,244.872498 148.615057,244.442502 148.935058,244.0775 C149.25506,243.712498 149.650056,243.425001 150.120058,243.215 C150.590061,243.004999 151.130055,242.9 151.740058,242.9 C152.360061,242.9 152.902556,243.004999 153.367558,243.215 C153.832561,243.425001 154.225057,243.712498 154.545058,244.0775 C154.86506,244.442502 155.105058,244.872498 155.265058,245.3675 C155.425059,245.862502 155.505058,246.394997 155.505058,246.965 C155.505058,247.535003 155.425059,248.064998 155.265058,248.555 C155.105058,249.045002 154.86506,249.472498 154.545058,249.8375 C154.225057,250.202502 153.832561,250.487499 153.367558,250.6925 C152.902556,250.897501 152.360061,251 151.740058,251 C151.130055,251 150.590061,250.897501 150.120058,250.6925 C149.650056,250.487499 149.25506,250.202502 148.935058,249.8375 C148.615057,249.472498 148.375059,249.045002 148.215058,248.555 C148.055058,248.064998 147.975058,247.535003 147.975058,246.965 Z M166.560058,246.215 C166.540058,245.914998 166.472559,245.630001 166.357558,245.36 C166.242558,245.089999 166.087559,244.857501 165.892558,244.6625 C165.697557,244.467499 165.46756,244.312501 165.202558,244.1975 C164.937557,244.082499 164.64506,244.025 164.325058,244.025 C163.995057,244.025 163.69756,244.082499 163.432558,244.1975 C163.167557,244.312501 162.940059,244.469999 162.750058,244.67 C162.560057,244.870001 162.410059,245.102499 162.300058,245.3675 C162.190058,245.632501 162.125058,245.914998 162.105058,246.215 Z M167.790058,248.375 C167.620058,249.245004 167.245061,249.899998 166.665058,250.34 C166.085055,250.780002 165.355063,251 164.475058,251 C163.855055,251 163.317561,250.900001 162.862558,250.7 C162.407556,250.499999 162.02506,250.220002 161.715058,249.86 C161.405057,249.499998 161.172559,249.070003 161.017558,248.57 C160.862558,248.069998 160.775058,247.525003 160.755058,246.935 C160.755058,246.344997 160.845057,245.805002 161.025058,245.315 C161.205059,244.824998 161.457557,244.400002 161.782558,244.04 C162.10756,243.679998 162.492556,243.400001 162.937558,243.2 C163.382561,242.999999 163.870056,242.9 164.400058,242.9 C165.090062,242.9 165.662556,243.042499 166.117558,243.3275 C166.572561,243.612501 166.937557,243.974998 167.212558,244.415 C167.48756,244.855002 167.677558,245.334997 167.782558,245.855 C167.887559,246.375003 167.930058,246.869998 167.910058,247.34 L162.105058,247.34 C162.095058,247.680002 162.135058,248.002498 162.225058,248.3075 C162.315059,248.612502 162.460057,248.882499 162.660058,249.1175 C162.860059,249.352501 163.115057,249.539999 163.425058,249.68 C163.73506,249.820001 164.100056,249.89 164.520058,249.89 C165.060061,249.89 165.502557,249.765001 165.847558,249.515 C166.19256,249.264999 166.420058,248.885003 166.530058,248.375 Z M169.185058,243.08 L170.385058,243.08 L170.385058,244.715 L170.415058,244.715 C170.72506,244.084997 171.105056,243.620001 171.555058,243.32 C172.005061,243.019998 172.575055,242.88 173.265058,242.9 L173.265058,244.25 C172.755056,244.25 172.32006,244.319999 171.960058,244.46 C171.600057,244.600001 171.310059,244.804999 171.090058,245.075 C170.870057,245.345001 170.710059,245.672498 170.610058,246.0575 C170.510058,246.442502 170.460058,246.884997 170.460058,247.385 L170.460058,250.835 L169.185058,250.835 Z M169.185058,243.08" id="Din saldo er" fill="#FFFFFF"></path>
        <path d="M95.2320584,265.86 L93.4340584,274.299 L93.4920584,274.299 C94.6230584,272.472 96.5660584,271.631 98.8860584,271.631 C102.946058,271.631 105.701058,274.473 105.701058,278.446 C105.701058,282.622 102.946058,285.348 98.8860584,285.348 C94.8260584,285.348 91.8970584,282.883 92.0420584,278.678 L92.6220584,278.678 C92.4770584,282.535 95.0580584,284.768 98.8860584,284.768 C102.714058,284.768 105.121058,282.274 105.121058,278.446 C105.121058,274.821 102.627058,272.211 98.8860584,272.211 C96.5660584,272.211 94.4490584,273.255 93.3760584,275.227 L92.6510584,275.227 L94.7680584,265.28 L104.889058,265.28 L104.889058,265.86 Z M77.0200584,284.42 L89.7220584,284.42 L89.7220584,285 L76.4400584,285 C76.3530584,281.694 79.7170584,279.664 82.6460584,277.576 C85.6620584,275.488 88.6200584,273.342 88.6200584,270.239 C88.6200584,267.136 86.2710584,265.512 83.1390584,265.512 C79.0210584,265.512 77.3680584,268.122 77.3680584,271.747 L76.7880584,271.747 C76.8170584,267.426 78.9340584,264.932 83.1390584,264.932 C86.5030584,264.932 89.2000584,266.701 89.2000584,270.239 C89.1710584,276.793 77.5130584,279.316 77.0200584,284.42 Z M108.804058,271.399 C108.717058,267.107 111.414058,264.932 115.532058,264.932 C118.664058,264.932 121.709058,266.266 121.709058,269.775 C121.709058,272.559 119.911058,274.125 117.475058,274.357 L117.475058,274.415 C119.795058,274.647 122.086058,276.155 122.086058,279.548 C122.086058,283.202 119.012058,285.348 115.416058,285.348 C110.950058,285.348 107.934058,282.825 108.253058,278.33 L108.833058,278.33 C108.514058,282.506 111.298058,284.768 115.416058,284.768 C118.577058,284.768 121.506058,282.941 121.506058,279.548 C121.506058,276.155 119.099058,274.821 115.851058,274.676 L114.430058,274.676 L114.430058,274.096 L115.851058,274.096 C118.403058,274.096 121.129058,273.023 121.129058,269.775 C121.042058,266.614 118.287058,265.512 115.532058,265.512 C111.762058,265.512 109.297058,267.455 109.384058,271.399 Z M146.794058,275.14 C146.794058,280.099 145.025058,285.348 139.341058,285.348 C133.657058,285.348 131.888058,280.099 131.888058,275.14 C131.888058,270.181 133.657058,264.932 139.341058,264.932 C145.025058,264.932 146.794058,270.181 146.794058,275.14 Z M146.214058,275.14 C146.214058,270.732 144.735058,265.512 139.341058,265.512 C133.947058,265.512 132.468058,270.732 132.468058,275.14 C132.468058,279.548 133.947058,284.768 139.341058,284.768 C144.735058,284.768 146.214058,279.548 146.214058,275.14 Z M162.918058,275.14 C162.918058,280.099 161.149058,285.348 155.465058,285.348 C149.781058,285.348 148.012058,280.099 148.012058,275.14 C148.012058,270.181 149.781058,264.932 155.465058,264.932 C161.149058,264.932 162.918058,270.181 162.918058,275.14 Z M162.338058,275.14 C162.338058,270.732 160.859058,265.512 155.465058,265.512 C150.071058,265.512 148.592058,270.732 148.592058,275.14 C148.592058,279.548 150.071058,284.768 155.465058,284.768 C160.859058,284.768 162.338058,279.548 162.338058,275.14 Z M173.764058,279.374 L173.764058,285 L173.184058,285 L173.184058,264.294 L173.764058,264.294 L173.764058,278.649 L184.059058,270.094 L184.900058,270.094 L178.056058,275.778 L185.393058,285 L184.610058,285 L177.621058,276.184 Z M186.640058,276.561 L186.640058,285 L186.060058,285 L186.060058,270.094 L186.640058,270.094 L186.640058,273.777 L186.698058,273.777 C187.249058,271.573 188.989058,269.659 192.556058,269.746 L192.556058,270.326 C188.467058,270.094 186.640058,273.313 186.640058,276.561 Z M186.640058,276.561" id="253.00 kr" fill="#FFFFFF"></path>
        <path d="M127.71,282.452 L127.19,282.452 L127.19,285 L127.71,285 L127.71,285 L127.71,282.452 L127.71,282.452 Z M127.71,282.452" id="." fill="#FFFFFF"></path>
        <path d="M65.2537986,449.887211 L65.9942973,449.887211 L65.9942973,457.030845 L70.3501721,457.030845 L70.3501721,457.662447 L65.2537986,457.662447 Z M73.344836,452.457177 C73.0181438,452.457177 72.7313849,452.526144 72.4845508,452.664081 C72.2377166,452.802018 72.0326296,452.983511 71.8692835,453.208565 C71.7059373,453.43362 71.5825221,453.689525 71.4990341,453.976288 C71.4155461,454.263051 71.3738027,454.555255 71.3738027,454.852908 C71.3738027,455.150561 71.4155461,455.442765 71.4990341,455.729528 C71.5825221,456.016291 71.7059373,456.272196 71.8692835,456.497251 C72.0326296,456.722305 72.2377166,456.903798 72.4845508,457.041735 C72.7313849,457.179672 73.0181438,457.248639 73.344836,457.248639 C73.6715283,457.248639 73.9582872,457.179672 74.2051213,457.041735 C74.4519555,456.903798 74.6570425,456.722305 74.8203886,456.497251 C74.9837348,456.272196 75.10715,456.016291 75.190638,455.729528 C75.274126,455.442765 75.3158694,455.150561 75.3158694,454.852908 C75.3158694,454.555255 75.274126,454.263051 75.190638,453.976288 C75.10715,453.689525 74.9837348,453.43362 74.8203886,453.208565 C74.6570425,452.983511 74.4519555,452.802018 74.2051213,452.664081 C73.9582872,452.526144 73.6715283,452.457177 73.344836,452.457177 Z M73.344836,451.880023 C73.7731659,451.880023 74.1524862,451.95988 74.4828083,452.119597 C74.8131305,452.279313 75.0908147,452.493474 75.3158694,452.762088 C75.540924,453.030702 75.7115274,453.344685 75.8276847,453.704046 C75.9438419,454.063408 76.0019197,454.446358 76.0019197,454.852908 C76.0019197,455.259458 75.9438419,455.642409 75.8276847,456.00177 C75.7115274,456.361131 75.540924,456.675114 75.3158694,456.943728 C75.0908147,457.212342 74.8131305,457.424688 74.4828083,457.580775 C74.1524862,457.736861 73.7731659,457.814903 73.344836,457.814903 C72.9165062,457.814903 72.5371859,457.736861 72.2068638,457.580775 C71.8765416,457.424688 71.5988574,457.212342 71.3738027,456.943728 C71.148748,456.675114 70.9781446,456.361131 70.8619874,456.00177 C70.7458302,455.642409 70.6877524,455.259458 70.6877524,454.852908 C70.6877524,454.446358 70.7458302,454.063408 70.8619874,453.704046 C70.9781446,453.344685 71.148748,453.030702 71.3738027,452.762088 C71.5988574,452.493474 71.8765416,452.279313 72.2068638,452.119597 C72.5371859,451.95988 72.9165062,451.880023 73.344836,451.880023 Z M81.7734538,457.20508 C81.7734538,457.618891 81.7280805,457.992766 81.6373327,458.326718 C81.5465848,458.66067 81.4032054,458.943799 81.2071901,459.176114 C81.0111747,459.408428 80.7552696,459.586291 80.4394671,459.709708 C80.1236646,459.833125 79.7370846,459.894833 79.2797155,459.894833 C78.9965822,459.894833 78.7207129,459.862164 78.4520992,459.796826 C78.1834856,459.731487 77.9421,459.629851 77.7279351,459.491915 C77.5137701,459.353978 77.335907,459.17793 77.1943404,458.963765 C77.0527738,458.7496 76.9711019,458.493695 76.9493224,458.196042 L77.6353727,458.196042 C77.6716719,458.406577 77.7424541,458.582625 77.8477216,458.724192 C77.9529891,458.865758 78.0800342,458.980099 78.2288607,459.067217 C78.3776871,459.154335 78.5428457,459.217857 78.7243414,459.257786 C78.9058371,459.297715 79.0909599,459.31768 79.2797155,459.31768 C79.9185803,459.31768 80.3795724,459.136187 80.6627057,458.773195 C80.945839,458.410204 81.0874035,457.887504 81.0874035,457.20508 L81.0874035,456.442802 L81.0656241,456.442802 C80.9059079,456.791274 80.671782,457.070773 80.3632393,457.281308 C80.0546966,457.491843 79.6935256,457.597109 79.2797155,457.597109 C78.8296061,457.597109 78.4448411,457.522697 78.1254086,457.373871 C77.8059762,457.225044 77.5428114,457.019957 77.3359063,456.758603 C77.1290012,456.497249 76.9783621,456.190526 76.8839843,455.838425 C76.7896066,455.486323 76.7424184,455.110633 76.7424184,454.711342 C76.7424184,454.326571 76.7986812,453.96177 76.9112085,453.616929 C77.0237359,453.272087 77.1870795,452.970808 77.4012445,452.713085 C77.6154094,452.455361 77.8803891,452.252089 78.1961916,452.103262 C78.5119941,451.954436 78.8731651,451.880023 79.2797155,451.880023 C79.4902505,451.880023 79.6880778,451.909062 79.8732034,451.967141 C80.058329,452.02522 80.2271175,452.106891 80.3795738,452.212159 C80.5320302,452.317426 80.66815,452.439027 80.7879371,452.576963 C80.9077243,452.7149 81.0002857,452.860095 81.0656241,453.012551 L81.0874035,453.012551 L81.0874035,452.043369 L81.7734538,452.043369 Z M79.2797155,457.019956 C79.5773684,457.019956 79.8387183,456.956433 80.0637729,456.829386 C80.2888276,456.702339 80.4775803,456.535366 80.6300366,456.328461 C80.782493,456.121556 80.8968336,455.8838 80.9730618,455.615186 C81.04929,455.346572 81.0874035,455.070703 81.0874035,454.78757 C81.0874035,454.511696 81.0547348,454.235827 80.9893963,453.959954 C80.9240579,453.68408 80.8187919,453.43362 80.6735954,453.208565 C80.5283988,452.983511 80.3414611,452.802018 80.1127765,452.664081 C79.8840919,452.526144 79.6064077,452.457177 79.2797155,452.457177 C78.9530232,452.457177 78.673524,452.524329 78.4412096,452.658636 C78.2088951,452.792943 78.0165125,452.968991 77.8640561,453.186786 C77.7115998,453.404581 77.6008891,453.653226 77.5319207,453.932729 C77.4629523,454.212233 77.4284687,454.497177 77.4284687,454.78757 C77.4284687,455.070703 77.4647673,455.346572 77.5373655,455.615186 C77.6099638,455.8838 77.7224895,456.121556 77.8749458,456.328461 C78.0274022,456.535366 78.2197848,456.702339 78.4520992,456.829386 C78.6844137,456.956433 78.960283,457.019956 79.2797155,457.019956 Z M90.0278365,457.662447 L90.0278365,456.649706 L90.0060572,456.649706 C89.8245615,457.027217 89.5613967,457.315791 89.2165548,457.515436 C88.871713,457.715082 88.4887629,457.814903 88.0676929,457.814903 C87.7119613,457.814903 87.4088681,457.7659 87.158404,457.667892 C86.9079399,457.569884 86.7046678,457.430135 86.5485815,457.248639 C86.3924952,457.067143 86.2781547,456.845722 86.2055564,456.584368 C86.1329581,456.323014 86.0966595,456.025366 86.0966595,455.691414 L86.0966595,452.043369 L86.7827098,452.043369 L86.7827098,455.702304 C86.7972295,456.210492 86.9151999,456.595257 87.1366246,456.85661 C87.3580494,457.117964 87.7409995,457.248639 88.2854866,457.248639 C88.5831395,457.248639 88.8372297,457.185117 89.0477647,457.05807 C89.2582997,456.931023 89.4325329,456.762234 89.5704697,456.551699 C89.7084064,456.341164 89.8100425,456.099779 89.8753809,455.827535 C89.9407194,455.555291 89.9733881,455.277607 89.9733881,454.994474 L89.9733881,452.043369 L90.6594384,452.043369 L90.6594384,457.662447 Z M96.2676272,457.662447 L96.2676272,456.595258 L96.2458478,456.595258 C96.1732495,456.776754 96.0661687,456.943727 95.924602,457.096184 C95.7830354,457.24864 95.6215067,457.3775 95.440011,457.482767 C95.2585153,457.588035 95.0643178,457.669707 94.8574127,457.727785 C94.6505076,457.785864 94.4454206,457.814903 94.2421454,457.814903 C93.8138156,457.814903 93.441755,457.736861 93.1259525,457.580775 C92.81015,457.424688 92.5469852,457.210527 92.3364502,456.938283 C92.1259152,456.66604 91.9698312,456.350242 91.8681936,455.99088 C91.766556,455.631519 91.715738,455.252199 91.715738,454.852908 C91.715738,454.453617 91.766556,454.074297 91.8681936,453.714936 C91.9698312,453.355574 92.1259152,453.039776 92.3364502,452.767533 C92.5469852,452.495289 92.81015,452.279313 93.1259525,452.119597 C93.441755,451.95988 93.8138156,451.880023 94.2421454,451.880023 C94.4526804,451.880023 94.6577675,451.905432 94.8574127,451.956251 C95.057058,452.00707 95.2439957,452.085112 95.4182316,452.19038 C95.5924675,452.295647 95.7467365,452.424507 95.8810433,452.576963 C96.0153501,452.72942 96.1188011,452.907283 96.1913994,453.110558 L96.2131787,453.110558 L96.2131787,449.887211 L96.899229,449.887211 L96.899229,457.662447 Z M92.4017883,454.852908 C92.4017883,455.143301 92.436272,455.431875 92.5052403,455.718638 C92.5742087,456.005401 92.6831045,456.261306 92.8319309,456.486361 C92.9807574,456.711416 93.171325,456.894724 93.4036395,457.03629 C93.635954,457.177857 93.9154532,457.248639 94.2421454,457.248639 C94.6051368,457.248639 94.9118599,457.177857 95.1623239,457.03629 C95.412788,456.894724 95.6160601,456.711416 95.7721464,456.486361 C95.9282327,456.261306 96.0407584,456.005401 96.1097267,455.718638 C96.1786951,455.431875 96.2131787,455.143301 96.2131787,454.852908 C96.2131787,454.562515 96.1786951,454.273941 96.1097267,453.987178 C96.0407584,453.700415 95.9282327,453.44451 95.7721464,453.219455 C95.6160601,452.9944 95.412788,452.811092 95.1623239,452.669526 C94.9118599,452.527959 94.6051368,452.457177 94.2421454,452.457177 C93.9154532,452.457177 93.635954,452.527959 93.4036395,452.669526 C93.171325,452.811092 92.9807574,452.9944 92.8319309,453.219455 C92.6831045,453.44451 92.5742087,453.700415 92.5052403,453.987178 C92.436272,454.273941 92.4017883,454.562515 92.4017883,454.852908 Z M92.4017883,454.852908" id="Log ud" fill="#147EFB"></path>
    </g>
</svg>