<?xml version="1.0" encoding="UTF-8" standalone="no"?>
<svg width="227px" height="126px" viewBox="0 0 227 126" version="1.1" xmlns="http://www.w3.org/2000/svg" xmlns:xlink="http://www.w3.org/1999/xlink" xmlns:sketch="http://www.bohemiancoding.com/sketch/ns">
    <title>Slice 1</title>
    <description>Created with Sketch (http://www.bohemiancoding.com/sketch)</description>
    <defs></defs>
    <g id="Page 1" stroke="none" stroke-width="1" fill="none" fill-rule="evenodd">
        <g id="rejsekort">
            <path d="M0.0199435032,0.620617338 L0.0199435032,125.11065 L227,125.11065 L227,0.620617338 L0.0199435032,0.620617338 Z M0.0199435032,0.620617338" id="Rectangle 9" stroke="#147EFB" stroke-width="2"></path>
            <path d="M0.765641262,119.616991 C32.1564011,119.616991 57.603637,94.2085445 57.603637,62.8656337 C57.603637,31.5227229 32.1564011,6.11427623 0.765641262,6.11427623 C0.765641254,6.11427623 0.76564047,119.616991 0.765641262,119.616991 Z M0.765641262,119.616991" id="Oval 5" fill="#147EFB"></path>
            <path d="M158.044101,97.8027099 C158.11627,89.0702509 148.084768,85.8948113 140.507014,83.1523861 C135.31084,81.1316518 130.980695,78.0283813 130.980695,73.6982363 L131.918893,72.6878692 C133.073598,71.2444875 135.022164,68.141217 136.826391,64.3162556 C138.630618,60.4912942 140.00183,54.2847532 140.00183,48.1503811 C140.00183,43.1707145 138.197603,38.9849077 134.661318,35.4486226 C131.125033,31.9123376 126.939226,30.1081105 121.95956,30.1081105 C116.979893,30.1081105 112.721917,31.9123376 109.185632,35.4486226 C105.649347,38.9849077 103.917289,43.1707145 103.917289,48.1503811 C103.917289,54.2847532 105.505009,60.5634633 107.02056,64.3162556 C107.81442,66.1204827 108.752618,67.8525407 109.762985,69.5124296 C111.855888,72.7600383 112.433241,73.3373909 112.938424,73.6982363 C113.010593,80.5542992 102.979091,83.0802171 95.4013373,86.2556567 C90.2051634,88.3485601 85.8750185,92.2456905 85.8750185,97.8027099 L85.8750185,100.761642 C85.8750185,101.627671 86.5245402,102.277193 87.3905692,102.277193 L156.52855,102.277193 C157.394579,102.277193 158.044101,101.627671 158.044101,100.761642 C158.044101,100.761642 158.044101,101.627671 158.044101,100.761642 L158.044101,97.8027099 L158.044101,97.8027099 Z M158.044101,97.8027099" id="user" fill="#147EFB"></path>
            <path d="M174.991381,40.1152541 C178.883084,40.1152541 182.235062,41.5071771 185.018909,44.2910233 C187.802755,47.0748694 189.194678,50.4268475 189.194678,54.3185508 C189.194678,58.2386607 187.802755,61.5906387 185.018909,64.3744848 C182.263469,67.1299244 178.911491,68.5218475 174.991381,68.5218475 C171.071271,68.5218475 167.719293,67.1299244 164.935447,64.3744848 C162.180008,61.5906387 160.788084,58.2386607 160.788084,54.3185508 C160.788084,50.3984409 162.180008,47.0464628 164.935447,44.2910233 C167.719293,41.5071771 171.071271,40.1152541 174.991381,40.1152541 Z M173.315392,64.289265 C174.224403,65.198276 175.758359,65.198276 176.66737,64.289265 C177.576381,63.3518475 177.576381,61.846298 176.66737,60.937287 C175.758359,59.9998694 174.224403,59.9998694 173.315392,60.937287 C172.406381,61.846298 172.406381,63.3518475 173.315392,64.289265 Z M176.75259,57.2728365 L176.75259,56.676298 C176.75259,56.0797596 177.519568,55.5116277 178.428579,54.9719024 C179.763689,54.1765178 181.496491,52.9550343 181.496491,50.1711881 C181.496491,48.4383859 180.871546,47.0464628 179.621656,45.9386057 C178.371766,44.8307486 176.83781,44.2626167 174.991381,44.2626167 C173.940337,44.2626167 172.9177,44.518276 171.923469,45.0011881 C170.929238,45.4841002 170.219073,45.9954189 169.764568,46.5067376 L169.08281,47.2169024 L171.440557,49.5746497 L171.980282,49.0917376 C172.207535,48.8928914 172.633634,48.6372321 173.258579,48.3247596 C173.883524,47.9838804 174.451656,47.8134409 174.991381,47.8134409 C176.695777,47.8134409 177.945667,48.9497046 177.945667,50.1711881 C177.945667,51.2222321 176.75259,52.1028365 175.58792,52.6993749 C174.423249,53.2675068 173.201766,54.5173969 173.201766,56.1081661 L173.201766,57.2728365 Z M176.75259,57.2728365" id="question" fill="#147EFB"></path>
            <path d="M197.979818,40.589044 C198.575018,41.184244 199.579418,41.184244 200.174618,40.589044 C200.769818,39.975244 200.769818,38.989444 200.174618,38.394244 C199.579418,37.780444 198.575018,37.780444 197.979818,38.394244 C197.384618,38.989444 197.384618,39.975244 197.979818,40.589044 Z M199.077218,24.760444 C201.625418,24.760444 203.820218,25.671844 205.643018,27.494644 C207.465818,29.317444 208.377218,31.512244 208.377218,34.060444 C208.377218,36.627244 207.465818,38.822044 205.643018,40.644844 C203.838818,42.449044 201.644018,43.360444 199.077218,43.360444 C196.510418,43.360444 194.315618,42.449044 192.492818,40.644844 C190.688618,38.822044 189.777218,36.627244 189.777218,34.060444 C189.777218,31.493644 190.688618,29.298844 192.492818,27.494644 C194.315618,25.671844 196.510418,24.760444 199.077218,24.760444 Z M200.230418,35.994844 L200.230418,35.604244 C200.230418,35.213644 200.732618,34.841644 201.327818,34.488244 C202.202018,33.967444 203.336618,33.167644 203.336618,31.344844 C203.336618,30.210244 202.927418,29.298844 202.109018,28.573444 C201.290618,27.848044 200.286218,27.476044 199.077218,27.476044 C198.389018,27.476044 197.719418,27.643444 197.068418,27.959644 C196.417418,28.275844 195.952418,28.610644 195.654818,28.945444 L195.208418,29.410444 L196.752218,30.954244 L197.105618,30.638044 C197.254418,30.507844 197.533418,30.340444 197.942618,30.135844 C198.351818,29.912644 198.723818,29.801044 199.077218,29.801044 C200.193218,29.801044 201.011618,30.545044 201.011618,31.344844 C201.011618,32.033044 200.230418,32.609644 199.467818,33.000244 C198.705218,33.372244 197.905418,34.190644 197.905418,35.232244 L197.905418,35.994844 Z M200.230418,35.994844" id="question copy" fill="#147EFB" transform="translate(199.077218, 34.060444) rotate(-339.000000) translate(-199.077218, -34.060444) "></path>
            <path d="M172.965717,29.2520068 C173.327231,29.6135203 173.937285,29.6135203 174.298798,29.2520068 C174.660312,28.879196 174.660312,28.2804392 174.298798,27.9189257 C173.937285,27.5461149 173.327231,27.5461149 172.965717,27.9189257 C172.604204,28.2804392 172.604204,28.879196 172.965717,29.2520068 Z M173.632258,19.6380068 C175.179987,19.6380068 176.513068,20.1915744 177.620204,21.2987095 C178.727339,22.4058447 179.280906,23.7389257 179.280906,25.2866555 C179.280906,26.8456825 178.727339,28.1787636 177.620204,29.2858987 C176.524366,30.3817365 175.191285,30.9353041 173.632258,30.9353041 C172.073231,30.9353041 170.74015,30.3817365 169.633014,29.2858987 C168.537177,28.1787636 167.983609,26.8456825 167.983609,25.2866555 C167.983609,23.7276284 168.537177,22.3945474 169.633014,21.2987095 C170.74015,20.1915744 172.073231,19.6380068 173.632258,19.6380068 Z M174.33269,26.4615744 L174.33269,26.2243311 C174.33269,25.9870879 174.637717,25.7611419 174.999231,25.5464933 C175.530204,25.230169 176.219339,24.7443852 176.219339,23.6372501 C176.219339,22.9481149 175.970798,22.3945474 175.473717,21.9539528 C174.976636,21.5133582 174.366582,21.2874122 173.632258,21.2874122 C173.214258,21.2874122 172.807555,21.3890879 172.41215,21.5811419 C172.016744,21.773196 171.734312,21.9765474 171.553555,22.1798987 L171.28242,22.4623311 L172.220095,23.4000068 L172.434744,23.2079528 C172.525122,23.1288717 172.694582,23.027196 172.943122,22.9029257 C173.191663,22.7673582 173.417609,22.6995744 173.632258,22.6995744 C174.310095,22.6995744 174.807177,23.1514663 174.807177,23.6372501 C174.807177,24.0552501 174.33269,24.4054663 173.869501,24.6427095 C173.406312,24.8686555 172.920528,25.3657365 172.920528,25.9983852 L172.920528,26.4615744 Z M174.33269,26.4615744" id="question" fill="#147EFB" transform="translate(173.632258, 25.286655) rotate(-23.000000) translate(-173.632258, -25.286655) "></path>
        </g>
    </g>
</svg>