<?xml version="1.0" encoding="UTF-8" standalone="no"?>
<svg width="260px" height="196px" viewBox="0 0 260 196" version="1.1" xmlns="http://www.w3.org/2000/svg" xmlns:xlink="http://www.w3.org/1999/xlink" xmlns:sketch="http://www.bohemiancoding.com/sketch/ns">
    <title>Slice 7</title>
    <description>Created with Sketch (http://www.bohemiancoding.com/sketch)</description>
    <defs></defs>
    <g id="Page 1" stroke="none" stroke-width="1" fill="none" fill-rule="evenodd">
        <path d="M35.5,196 C55.10594,196 71,180.10594 71,160.5 C71,140.89406 55.10452,125 35.5,125 C15.89406,125 0,140.89406 0,160.5 C0,180.10594 15.89406,196 35.5,196 Z M45.9497437,177.533556 C45.4624545,177.266601 45.8803419,174.841292 45.8803419,174.841292 L43.0998402,174.438021 C43.0998402,174.236385 42.8916348,171.274327 42.8916348,171.274327 C45.8109401,170.330047 45.5067536,164.765184 45.5067536,164.765184 C47.3614058,165.752064 48.5633859,161.354416 48.5633859,161.354416 C50.7576639,155.240025 47.4765833,155.609217 47.4765833,155.609217 C48.5176102,151.031233 47.4765833,144.343174 47.4765833,144.343174 C46.0176689,131.955355 23.5373934,135.860273 26.9070721,139.76519 C18.9170057,137.609676 21.6960308,152.286487 21.6960308,152.286487 L23.0855434,155.92161 C20.3508173,157.626994 22.2527218,159.691631 22.3442731,162.070081 C22.4801234,165.580247 24.7068875,164.853222 24.7068875,164.853222 C24.8471677,170.643861 27.8122487,171.404965 27.8122487,171.404965 C28.3674631,175.041508 27.8122487,174.727695 27.8122487,174.727695 L25.3802326,174.727695 C25.4968866,175.647835 25.1720272,177.194183 25.1720272,177.194183 C22.062236,178.526115 21.3977507,179.307098 18.314539,180.606371 C16.4067279,181.411494 12.4315316,183.214477 10.4882812,183.959961 C3.54514833,177.976207 0.976242483,168.930176 1,158.659313 C1.0390717,141.767374 16.3107467,126 35.0374187,126 C53.767044,126 70.0000889,141.855855 70,158.659313 C69.9999554,167.174528 67.7585427,176.990755 61.3071289,182.94043 C59.5336915,182.379541 54.9335848,181.1346 53.177867,180.698669 C49.2470674,179.72173 45.9497437,177.533556 45.9497437,177.533556 Z M45.9497437,177.533556" id="user" fill="#717171"></path>
        <path d="M224.5,196 C244.10594,196 260,180.10594 260,160.5 C260,140.89406 244.10452,125 224.5,125 C204.89406,125 189,140.89406 189,160.5 C189,180.10594 204.89406,196 224.5,196 Z M199.488281,174.896484 L199.488281,183.959961 C192.545148,177.976207 189.976242,168.930176 190,158.659313 C190.039072,141.767374 205.310747,126 224.037419,126 C242.767044,126 259.000089,141.855855 259,158.659313 C258.999955,167.174528 256.758543,176.990755 250.307129,182.94043 C250.30713,182.94043 250.30713,174.896484 250.30713,174.896484 L199.488281,174.896484 Z M199.488281,174.896484" id="user copy" fill="#717171"></path>
        <path d="M98,161.5 C99.6568543,161.5 101,160.156854 101,158.5 C101,156.843146 99.6568543,155.5 98,155.5 C96.3431457,155.5 95,156.843146 95,158.5 C95,160.156854 96.3431457,161.5 98,161.5 Z M98,161.5" id="Oval 13" fill="#D6D6D6"></path>
        <path d="M130,161.5 C131.656854,161.5 133,160.156854 133,158.5 C133,156.843146 131.656854,155.5 130,155.5 C128.343146,155.5 127,156.843146 127,158.5 C127,160.156854 128.343146,161.5 130,161.5 Z M130,161.5" id="Oval 13 copy" fill="#D6D6D6"></path>
        <path d="M162.012,161.5 C163.668854,161.5 165.012,160.156854 165.012,158.5 C165.012,156.843146 163.668854,155.5 162.012,155.5 C160.355146,155.5 159.012,156.843146 159.012,158.5 C159.012,160.156854 160.355146,161.5 162.012,161.5 Z M162.012,161.5" id="Oval 13 copy 2" fill="#D6D6D6"></path>
        <path d="M130.5,135.5 C132.156854,135.5 133.5,134.156854 133.5,132.5 C133.5,130.843146 132.156854,129.5 130.5,129.5 C128.843146,129.5 127.5,130.843146 127.5,132.5 C127.5,134.156854 128.843146,135.5 130.5,135.5 Z M130.5,135.5" id="Oval 13 copy 3" fill="#D6D6D6"></path>
        <path d="M130.5,109.5 C132.156854,109.5 133.5,108.156854 133.5,106.5 C133.5,104.843146 132.156854,103.5 130.5,103.5 C128.843146,103.5 127.5,104.843146 127.5,106.5 C127.5,108.156854 128.843146,109.5 130.5,109.5 Z M130.5,109.5" id="Oval 13 copy 4" fill="#D6D6D6"></path>
        <g id="Group" transform="translate(70.000000, 0.500000)" stroke="#147EFB" stroke-linecap="round" stroke-linejoin="round">
            <path d="M16.9622576,30.0471554 C19.6390687,21.3258442 27.5979739,15 37,15 C39.5416403,15 41.9778205,15.4622786 44.2327016,16.309191 C49.8917775,6.57414245 60.6541599,0 73,0 C90.9400091,0 105.536448,13.8817152 105.989175,31.1722824 C114.253045,34.9624931 120,43.3107115 120,53 C120,66.2577484 109.256903,77 96.0046202,77 L23.9953798,77 C10.7548059,77 0,66.254834 0,53 C0,42.190484 7.14171427,33.0532007 16.9622576,30.0471554 Z M16.9622576,30.0471554" id="Cloud"></path>
        </g>
        <g id="Group" transform="translate(116.000000, 25.605159)">
            <path d="M3.69495354,1 L25.3050465,1 C27.3459069,1 29,2.64562785 29,4.67561269 L29,58.3243873 C29,60.3545911 27.3457129,62 25.3050465,62 L3.69495354,62 C1.65409313,62 0,60.3543721 0,58.3243873 L0,4.67561269 C0,2.64540895 1.65428708,1 3.69495354,1 Z M14.5,4 C14.7761424,4 15,3.77614242 15,3.5 C15,3.22385758 14.7761424,3 14.5,3 C14.2238576,3 14,3.22385758 14,3.5 C14,3.77614242 14.2238576,4 14.5,4 Z M14.5,60 C15.880712,60 17,58.880712 17,57.5 C17,56.119288 15.880712,55 14.5,55 C13.119288,55 12,56.119288 12,57.5 C12,58.880712 13.119288,60 14.5,60 Z M14.5,60" id="antenna edging" fill="#147EFB"></path>
            <path d="M2,9 L2,53 L27,53 L27,9 L2,9 L2,9 Z M2,9" id="view port" fill="#FFFFFF"></path>
            <path d="M12.335828,6 C12.1503553,6 12,6.22441957 12,6.5 L12,6.5 C12,6.77614243 12.1510023,7 12.335828,7 L16.664172,7 C16.8496447,7 17,6.77558043 17,6.5 L17,6.5 C17,6.22385757 16.8489977,6 16.664172,6 L12.335828,6 L12.335828,6 Z M12.335828,6" id="ear piece" fill="#FFFFFF"></path>
        </g>
        <path d="M200,162 L200,173 L250.3,173 L250.3,162 L200,162 Z M200,162" id="Rectangle 22" fill="#717171"></path>
        <path d="M200,149 L200,160 L250.3,160 L250.3,149 L200,149 Z M200,149" id="Rectangle 22 copy" fill="#717171"></path>
        <path d="M242.5,156 C243.328427,156 244,155.328427 244,154.5 C244,153.671573 243.328427,153 242.5,153 C241.671573,153 241,153.671573 241,154.5 C241,155.328427 241.671573,156 242.5,156 Z M242.5,156" id="Oval 19" fill="#FFFFFF"></path>
        <path d="M242.5,169 C243.328427,169 244,168.328427 244,167.5 C244,166.671573 243.328427,166 242.5,166 C241.671573,166 241,166.671573 241,167.5 C241,168.328427 241.671573,169 242.5,169 Z M242.5,169" id="Oval 19 copy" fill="#FFFFFF"></path>
        <path d="M242.5,182 C243.328427,182 244,181.328427 244,180.5 C244,179.671573 243.328427,179 242.5,179 C241.671573,179 241,179.671573 241,180.5 C241,181.328427 241.671573,182 242.5,182 Z M242.5,182" id="Oval 19 copy 2" fill="#FFFFFF"></path>
    </g>
</svg>