<?xml version="1.0" encoding="UTF-8" standalone="no"?>
<svg width="84px" height="84px" viewBox="0 0 84 84" version="1.1" xmlns="http://www.w3.org/2000/svg" xmlns:xlink="http://www.w3.org/1999/xlink" xmlns:sketch="http://www.bohemiancoding.com/sketch/ns">
    <title>Slice 1</title>
    <description>Created with Sketch (http://www.bohemiancoding.com/sketch)</description>
    <defs></defs>
    <g id="Page 1" stroke="none" stroke-width="1" fill="none" fill-rule="evenodd">
        <path d="M42,0 C18.80424,0 0,18.80424 0,42 C0,65.19576 18.80424,84 42,84 C65.19576,84 84,65.19576 84,42 C84,18.80424 65.19408,0 42,0 L42,0 Z M63.3652159,68.2417196 C58.7356508,67.0586168 54.8521727,64.4086729 54.8521727,64.4086729 C54.2782596,64.0853832 54.7704335,61.1482617 54.7704335,61.1482617 L51.495651,60.6598879 C51.495651,60.4157009 51.2504336,56.8285607 51.2504336,56.8285607 C54.6886944,55.6850093 54.3304335,48.9457944 54.3304335,48.9457944 C56.5147813,50.1409346 57.9304334,44.8152523 57.9304334,44.8152523 C60.5147812,37.4105421 56.6504335,37.8576449 56.6504335,37.8576449 C57.8765204,32.3135701 56.6504335,24.2141308 56.6504335,24.2141308 C54.9321726,9.21211215 28.4556515,13.9410841 32.4243471,18.6700561 C23.0139125,16.0596636 26.2869559,33.8337196 26.2869559,33.8337196 L27.9234776,38.2359626 C24.7026082,40.3012336 26.9426081,42.8015701 27.0504342,45.6819439 C27.2104342,49.9328598 29.8330428,49.0524112 29.8330428,49.0524112 C29.9982602,56.0650467 33.490434,56.9867664 33.490434,56.9867664 C34.1443471,61.390729 33.490434,61.0106916 33.490434,61.0106916 L30.6260863,61.0106916 C30.7634776,62.1250093 30.3808689,63.9976822 30.3808689,63.9976822 C26.7182603,65.6106916 25.9356516,66.556486 22.3043473,68.1299439 C20.0573909,69.104972 17.6226083,70.0971963 15.3339127,71 C7.15652162,63.7534953 2,53.2379813 2,41.5514019 C2,19.7431028 19.9443474,2 41.999999,2 C64.059129,2 81.9999981,19.7431028 81.9999981,41.5514019 C82.0034764,52.756486 77.2573895,62.8799252 69.6591288,70.0851589 C67.5704332,69.4059065 65.433042,68.7696449 63.3652159,68.2417196 Z M63.3652159,68.2417196" id="user" fill="#147EFB"></path>
    </g>
</svg>