<?xml version="1.0" standalone="no"?>
<!DOCTYPE svg PUBLIC "-//W3C//DTD SVG 1.1//EN" "http://www.w3.org/Graphics/SVG/1.1/DTD/svg11.dtd" >
<svg>
<metadata>
Created by FontForge 20110222 at Fri Jul 19 00:01:39 2013
 By Orthosie Webhosting
Copyright (c) 1988, 1990, 1993, 2003 Linotype Library GmbH, www.linotype.com. All rights reserved. Copyright (c) 1988, 1990, 1993 Adobe Systems Incorporated. All Rights Reserved.
</metadata>
<defs>
<font id="HelveticaNeueLTPro25UltraLight" horiz-adv-x="500" >
  <font-face 
    font-family="HelveticaNeueLTPro25UltraLight"
    font-weight="275"
    font-stretch="normal"
    units-per-em="1000"
    panose-1="2 11 3 3 2 2 2 2 2 4"
    ascent="714"
    descent="-286"
    x-height="514"
    cap-height="714"
    bbox="-166 -219 1016 938"
    underline-thickness="50"
    underline-position="-50"
    unicode-range="U+000D-FB02"
  />
<missing-glyph horiz-adv-x="512" 
d="M222 117h56v67h-56v-67zM225 234h46q0 52 6 72q6 19 43 52q37 34 50 60t13 60q0 59 -35 95t-89 36q-56 0 -92 -34t-43 -103l50 -8q11 95 82 95q31 0 53.5 -24.5t22.5 -60.5q0 -20 -9.5 -37t-40.5 -46q-31 -31 -46 -59q-13 -25 -13 -81zM462 50h-412v617h412v-617z
M512 718h-512v-718h512v718z" />
    <glyph glyph-name="IJ" unicode="IJ" horiz-adv-x="617" 
d="M54 0v714h20v-714h-20zM538 201v513h20v-528q0 -203 -196 -203q-97 0 -143.5 53t-46.5 142v43h20v-43q0 -175 170 -175q89 0 132.5 45t43.5 153z" />
    <glyph glyph-name="ij" unicode="ij" horiz-adv-x="304" 
d="M75 714v-101h-20v101h20zM75 514v-514h-20v514h20zM249 714v-101h-20v101h20zM249 514v-589q0 -65 -28.5 -83.5t-95.5 -18.5v20q63 0 83.5 14.5t20.5 74.5v582h20z" />
    <glyph glyph-name="napostrophe" unicode="&#x22;n" horiz-adv-x="530" 
d="M85 0v514h20v-127h2q14 62 63 100.5t122 38.5q82 0 132.5 -48.5t50.5 -136.5v-341h-20v338q0 84 -46 126t-117 42q-88 0 -137.5 -62t-49.5 -153v-291h-20zM74 790h20v-78q0 -55 -58 -61v16q38 8 38 51v72z" />
    <glyph glyph-name="fi" unicode="fi" horiz-adv-x="333" 
d="M87 494h-88v20h88v114q0 29 9 47.5t26 26.5t31 10t35 2q8 0 16 -0.5t16 -2t11 -1.5v-20q-25 4 -47 4q-46 0 -61.5 -16.5t-15.5 -56.5v-107h111v-20h-111v-494h-20v494zM278 714v-101h-20v101h20zM278 514v-514h-20v514h20z" />
    <glyph glyph-name="fl" unicode="fl" horiz-adv-x="333" 
d="M278 714v-714h-20v714h20zM87 494h-88v20h88v114q0 29 9 47.5t26 26.5t31 10t35 2q8 0 16 -0.5t16 -2t11 -1.5v-20q-25 4 -47 4q-46 0 -61.5 -16.5t-15.5 -56.5v-107h111v-20h-111v-494h-20v494z" />
    <glyph glyph-name=".notdef" horiz-adv-x="512" 
d="M222 117h56v67h-56v-67zM225 234h46q0 52 6 72q6 19 43 52q37 34 50 60t13 60q0 59 -35 95t-89 36q-56 0 -92 -34t-43 -103l50 -8q11 95 82 95q31 0 53.5 -24.5t22.5 -60.5q0 -20 -9.5 -37t-40.5 -46q-31 -31 -46 -59q-13 -25 -13 -81zM462 50h-412v617h412v-617z
M512 718h-512v-718h512v718z" />
    <glyph glyph-name=".null" 
 />
    <glyph glyph-name=".null" 
 />
    <glyph glyph-name="nonmarkingreturn" horiz-adv-x="333" 
 />
    <glyph glyph-name="CR" unicode="&#xd;" horiz-adv-x="0" 
 />
    <glyph glyph-name="space" unicode=" " horiz-adv-x="278" 
 />
    <glyph glyph-name="exclam" unicode="!" horiz-adv-x="185" 
d="M103 182h-20v532h20v-532zM103 0h-20v98h20v-98z" />
    <glyph glyph-name="quotedbl" unicode="&#x22;" horiz-adv-x="278" 
d="M205 714v-225h-20v225h20zM93 714v-225h-20v225h20z" />
    <glyph glyph-name="numbersign" unicode="#" horiz-adv-x="556" 
d="M209 426l-24 -177h171l24 177h-171zM225 680h20l-31 -234h171l31 234h20l-31 -234h116v-20h-121l-24 -177h117v-20h-121l-31 -229h-20l31 229h-172l-31 -229h-20l31 229h-125v20h130l24 177h-126v20h131z" />
    <glyph glyph-name="dollar" unicode="$" horiz-adv-x="556" 
d="M285 355v-352q95 0 163.5 43.5t68.5 129.5q0 37 -12.5 65t-33 45.5t-48.5 30t-57 20t-61 14.5q-14 3 -20 4zM6 237h20q0 -225 239 -233v356q-111 26 -148 44q-90 44 -90 143q0 50 21 87t56.5 57.5t75.5 30t85 9.5v43h20v-44q227 -5 238 -216h-20q-7 191 -218 196v-334
l8 -2q9 -2 38.5 -9.5t38.5 -10.5t33.5 -10.5t33.5 -12t27.5 -14t25.5 -18t19 -22t16 -28t8 -33.5t4 -41q0 -94 -74.5 -143t-177.5 -49v-88h-20v89q-120 4 -190.5 66.5t-68.5 186.5zM265 381v330q-55 0 -101.5 -14t-81.5 -52.5t-35 -97.5q0 -34 13 -60.5t30 -42t51 -29
t57 -19.5t67 -15z" />
    <glyph glyph-name="percent" unicode="%" horiz-adv-x="685" 
d="M88 -34l476 748h23l-476 -748h-23zM357 157q0 77 40.5 125t111.5 48q74 0 114.5 -47.5t40.5 -124.5q0 -72 -41.5 -121t-113.5 -49q-74 0 -113 49t-39 120zM41 519q0 -64 34 -106.5t98 -42.5t99.5 43t35.5 106q0 71 -34 112t-101 41q-66 0 -99 -41.5t-33 -111.5zM21 519
q0 77 40.5 125t111.5 48q74 0 114.5 -47.5t40.5 -124.5q0 -72 -41.5 -121t-113.5 -49q-74 0 -113 49t-39 120zM377 157q0 -64 34 -106.5t98 -42.5t99.5 43t35.5 106q0 71 -34 112t-101 41q-66 0 -99 -41.5t-33 -111.5z" />
    <glyph glyph-name="ampersand" unicode="&#x26;" horiz-adv-x="574" 
d="M467 133l105 -133h-26l-89 113q-71 -130 -209 -130q-80 0 -142 49t-62 128q0 34 13 65t28.5 51.5t47.5 46.5t49 37t54 34q-8 12 -32 42t-37 48.5t-25 46t-12 50.5q0 64 43.5 98.5t102.5 34.5q62 0 104 -36t42 -97q0 -27 -8.5 -50.5t-29.5 -45.5t-34 -33.5t-45.5 -34.5
t-39.5 -28l188 -238q28 62 24 126h20q1 -74 -30 -144zM444 132l-196 246q-2 -1 -26.5 -16.5t-29.5 -19t-26.5 -18.5t-28 -22t-22.5 -22t-22 -26t-14.5 -27t-11.5 -32.5t-3 -34.5q0 -73 55 -115t129 -42q133 0 196 129zM150 583q0 -31 21 -65.5t82 -113.5q5 3 25.5 17.5
t29.5 21t27 21t27 26t20 26.5t15.5 31.5t4.5 33.5q0 50 -37 81.5t-88 31.5q-54 0 -90.5 -30.5t-36.5 -80.5z" />
    <glyph glyph-name="quotesingle" unicode="'" horiz-adv-x="167" 
d="M74 489v225h20v-225h-20z" />
    <glyph glyph-name="parenleft" unicode="(" horiz-adv-x="222" 
d="M184 731h20q-116 -212 -116 -449q0 -245 117 -459h-20q-60 119 -88.5 226.5t-28.5 232.5q0 237 116 449z" />
    <glyph glyph-name="parenright" unicode=")" horiz-adv-x="222" 
d="M38 -177h-20q116 212 116 449q0 245 -117 459h20q60 -119 88.5 -226.5t28.5 -232.5q0 -237 -116 -449z" />
    <glyph glyph-name="asterisk" unicode="*" horiz-adv-x="352" 
d="M164 714h20v-140l132 43l4 -19l-130 -43l83 -109l-16 -12l-83 108l-84 -104l-16 13l88 104l-130 43l6 19l126 -43v140z" />
    <glyph glyph-name="plus" unicode="+" horiz-adv-x="600" 
d="M290 263v243h20v-243h242v-20h-242v-243h-20v243h-242v20h242z" />
    <glyph glyph-name="comma" unicode="," horiz-adv-x="278" 
d="M129 98h20v-98q0 -88 -44 -119v20q24 24 24 99v98z" />
    <glyph glyph-name="hyphen" unicode="-" horiz-adv-x="333" 
d="M79 258v20h175v-20h-175z" />
    <glyph glyph-name="period" unicode="." horiz-adv-x="278" 
d="M149 98v-98h-20v98h20z" />
    <glyph glyph-name="slash" unicode="/" horiz-adv-x="333" 
d="M13 -17h-20l327 748h20z" />
    <glyph glyph-name="zero" unicode="0" horiz-adv-x="556" 
d="M535 340q0 -68 -13 -127.5t-41.5 -111.5t-80.5 -82.5t-122 -30.5t-122 30.5t-80.5 82.5t-41.5 111.5t-13 127.5t13 127.5t41.5 111.5t80.5 82.5t122 30.5t122 -30.5t80.5 -82.5t41.5 -111.5t13 -127.5zM515 340q0 62 -11.5 117t-37 105.5t-74 80t-114.5 29.5
t-114.5 -29.5t-74 -80t-37 -105.5t-11.5 -117t11.5 -117t37 -105.5t74 -80t114.5 -29.5t114.5 29.5t74 80t37 105.5t11.5 117z" />
    <glyph glyph-name="one" unicode="1" horiz-adv-x="556" 
d="M298 0v654h-2q-30 -41 -79 -73t-102 -47v20q58 19 97 47t84 79h22v-680h-20z" />
    <glyph glyph-name="two" unicode="2" horiz-adv-x="556" 
d="M75 20h438v-20h-458q0 19 3 36t12 34t16.5 30.5t24 30l26 26t32 26.5t32 24t35 25.5t33.5 23.5q49 34 77.5 56.5t62.5 55.5t50 68t16 73q0 78 -52.5 120.5t-136.5 42.5q-102 0 -150.5 -58t-48.5 -157h-20q1 113 56.5 174t162.5 61q91 0 150 -47.5t59 -135.5
q0 -46 -22.5 -88.5t-58.5 -76.5t-79.5 -66.5t-87.5 -63t-81.5 -60t-62.5 -64.5t-28 -70z" />
    <glyph glyph-name="three" unicode="3" horiz-adv-x="556" 
d="M79 469h-20q-2 108 60.5 165.5t171.5 57.5q90 0 151.5 -41t61.5 -126q0 -70 -40.5 -111t-105.5 -47v-2q67 -7 113 -51t46 -126q0 -91 -66.5 -145.5t-163.5 -54.5q-118 0 -186.5 64t-60.5 178h20q-8 -105 54.5 -163.5t172.5 -58.5q87 0 148.5 48t61.5 132q0 159 -195 168
h-49v20h49q76 0 129 36t53 113q-2 76 -57.5 111.5t-135.5 35.5q-100 0 -157 -52t-55 -151z" />
    <glyph glyph-name="four" unicode="4" horiz-adv-x="556" 
d="M379 177h-345v24l340 479h25v-483h123v-20h-123v-177h-20v177zM379 197v455h-2l-323 -455h325z" />
    <glyph glyph-name="five" unicode="5" horiz-adv-x="556" 
d="M480 660h-333l-62 -291h2q57 92 186 92q104 0 169.5 -66t65.5 -169q0 -108 -65 -173t-170 -65q-108 0 -174 62t-62 168h20q-4 -98 55.5 -154t160.5 -56q99 0 157 59.5t58 158.5q0 94 -59.5 154.5t-155.5 60.5q-61 0 -112 -27t-78 -77h-25l73 343h349v-20z" />
    <glyph glyph-name="six" unicode="6" horiz-adv-x="556" 
d="M505 520h-20q-10 44 -31.5 75.5t-49.5 47t-55 22.5t-55 7q-58 0 -102.5 -25.5t-69.5 -64.5t-40.5 -92.5t-20 -102t-3.5 -100.5h2q14 72 77.5 121.5t144.5 49.5q92 0 163.5 -67t71.5 -168q0 -100 -69.5 -167.5t-165.5 -67.5q-65 0 -117.5 31.5t-80.5 75.5q-45 69 -45 226
q0 54 7.5 104t26 99.5t46.5 86t73.5 59t102.5 22.5q86 0 143 -49t67 -123zM497 223q0 89 -63 152t-152 63t-152 -63t-63 -152t63 -152t152 -63t152 63t63 152z" />
    <glyph glyph-name="seven" unicode="7" horiz-adv-x="556" 
d="M473 660h-412v20h434v-27q-150 -150 -228.5 -305.5t-78.5 -347.5h-20q-2 190 77.5 351t227.5 309z" />
    <glyph glyph-name="eight" unicode="8" horiz-adv-x="556" 
d="M471 520q0 80 -55 116t-138 36t-138 -36t-55 -116q0 -46 30 -78.5t72.5 -46t90.5 -13.5q76 0 134.5 35.5t58.5 102.5zM351 375v-2q81 -8 127.5 -56.5t46.5 -126.5q0 -100 -70 -151t-177 -51t-177 51t-70 151q0 78 46.5 126.5t127.5 56.5v2q-60 9 -100 48.5t-40 96.5
q0 87 59 129.5t154 42.5t154 -42.5t59 -129.5q0 -57 -40 -96.5t-100 -48.5zM505 190q0 91 -64 131.5t-163 40.5t-163 -40.5t-64 -131.5q0 -92 64.5 -137t162.5 -45t162.5 45t64.5 137z" />
    <glyph glyph-name="nine" unicode="9" horiz-adv-x="556" 
d="M489 457q0 89 -63 152t-152 63t-152 -63t-63 -152t63 -152t152 -63t152 63t63 152zM51 160h20q10 -44 31.5 -75.5t49.5 -47t55 -22.5t55 -7q59 0 103 25.5t69 64.5t40.5 92.5t20 102t3.5 100.5h-2q-16 -73 -78.5 -122t-143.5 -49q-92 0 -163.5 67t-71.5 168
q0 100 69.5 167.5t165.5 67.5q65 0 117.5 -31.5t80.5 -75.5q46 -69 46 -226q0 -69 -12.5 -130.5t-40.5 -117.5t-80.5 -89.5t-123.5 -33.5q-86 0 -143 49t-67 123z" />
    <glyph glyph-name="colon" unicode=":" horiz-adv-x="278" 
d="M149 416h-20v98h20v-98zM149 0h-20v98h20v-98z" />
    <glyph glyph-name="semicolon" unicode=";" horiz-adv-x="278" 
d="M149 416h-20v98h20v-98zM149 98v-98q0 -88 -44 -119v20q24 24 24 99v98h20z" />
    <glyph glyph-name="less" unicode="&#x3c;" horiz-adv-x="600" 
d="M554 13v-21l-508 249v24l508 249v-21l-490 -240z" />
    <glyph glyph-name="equal" unicode="=" horiz-adv-x="600" 
d="M552 146h-504v20h504v-20zM552 340h-504v20h504v-20z" />
    <glyph glyph-name="greater" unicode="&#x3e;" horiz-adv-x="600" 
d="M46 13l490 240l-490 240v21l508 -249v-24l-508 -249v21z" />
    <glyph glyph-name="question" unicode="?" 
d="M252 0h-20v98h20v-98zM55 493h-20q-4 106 54.5 172t162.5 66q85 0 141 -44t56 -122q0 -19 -3 -36t-7 -30.5t-12.5 -27.5t-14 -22t-16.5 -20t-15.5 -16.5t-16 -14.5t-13.5 -12q-58 -55 -78.5 -95t-20.5 -109h-20q0 68 21 113t77 99q1 1 16 13.5t26.5 25t26 32t22.5 45.5
t8 55q0 69 -49.5 107.5t-127.5 38.5q-97 0 -149 -59.5t-48 -158.5z" />
    <glyph glyph-name="at" unicode="@" horiz-adv-x="800" 
d="M570 481l24 66h21l-111 -288q-44 -107 25 -107q66 0 130 77.5t64 181.5q0 124 -86.5 202.5t-217.5 78.5q-145 0 -243.5 -98.5t-98.5 -240.5q0 -163 98 -254t244 -91q88 0 164.5 44t125.5 114h23q-48 -80 -134.5 -129t-178.5 -49q-69 0 -132.5 22t-115.5 65t-83 115
t-31 163q0 153 106 256t256 103q138 0 231 -82.5t93 -218.5q0 -111 -69.5 -195t-146.5 -84q-30 0 -47 18t-12 45h-2q-46 -63 -136 -63q-57 0 -96.5 42.5t-39.5 102.5q0 64 28.5 129.5t85 112.5t123.5 47q48 0 86 -23t51 -62h2zM488 272l71 184q-12 47 -50 68.5t-82 21.5
q-88 0 -150.5 -88.5t-62.5 -180.5q0 -53 34 -89t86 -36q107 0 154 120z" />
    <glyph glyph-name="A" unicode="A" horiz-adv-x="575" 
d="M470 235h-364l-95 -235h-23l290 714h26l282 -714h-22zM114 255h348l-170 439h-2z" />
    <glyph glyph-name="B" unicode="B" horiz-adv-x="611" 
d="M67 694v-312h287q76 0 128.5 40.5t52.5 113.5q0 78 -50.5 118t-130.5 40h-287zM47 0v714h307q88 0 144.5 -46t56.5 -132q0 -65 -43 -112t-108 -51v-2q73 -2 123 -50t50 -127q0 -93 -64.5 -143.5t-170.5 -50.5h-295zM67 362v-342h284q91 0 148.5 44.5t57.5 128.5
q0 86 -59 127.5t-144 41.5h-287z" />
    <glyph glyph-name="C" unicode="C" horiz-adv-x="685" 
d="M642 280h20q-19 -134 -101 -215.5t-213 -81.5q-142 0 -232.5 104t-90.5 264q0 54 11.5 106t37.5 102t63.5 88t95.5 61t128 23q67 0 123 -23.5t89.5 -59.5t52.5 -74.5t20 -73.5h-20q-6 82 -80 146.5t-185 64.5q-68 0 -123 -23.5t-90 -60.5t-59 -85.5t-34 -96t-10 -94.5
q0 -143 82 -245.5t221 -102.5q124 0 201 77t93 200z" />
    <glyph glyph-name="D" unicode="D" horiz-adv-x="648" 
d="M74 694v-674h204q135 0 222.5 86.5t87.5 250.5q0 77 -16.5 137t-43.5 97t-65.5 61t-78 33t-85.5 9h-225zM54 0v714h250q58 0 108.5 -17t96 -55.5t72.5 -111.5t27 -173q0 -93 -27.5 -163.5t-75.5 -111.5t-106.5 -61.5t-125.5 -20.5h-219z" />
    <glyph glyph-name="E" unicode="E" horiz-adv-x="537" 
d="M74 362v-342h458v-20h-478v714h474v-20h-454v-312h427v-20h-427z" />
    <glyph glyph-name="F" unicode="F" horiz-adv-x="481" 
d="M74 694v-312h380v-20h-380v-362h-20v714h440v-20h-420z" />
    <glyph glyph-name="G" unicode="G" horiz-adv-x="722" 
d="M654 314h-277v20h297v-335h-20v178h-2q-28 -90 -104 -142t-181 -52q-159 0 -247 106.5t-88 267.5t90.5 267.5t244.5 106.5q120 0 199 -65t97 -175h-20q-18 101 -92 160.5t-184 59.5q-145 0 -230 -101t-85 -253q0 -154 83 -254t235 -100q120 0 202 78t82 196v37z" />
    <glyph glyph-name="H" unicode="H" horiz-adv-x="648" 
d="M574 362h-500v-362h-20v714h20v-332h500v332h20v-714h-20v362z" />
    <glyph glyph-name="I" unicode="I" horiz-adv-x="128" 
d="M54 0v714h20v-714h-20z" />
    <glyph glyph-name="J" unicode="J" horiz-adv-x="463" 
d="M384 201v513h20v-528q0 -203 -196 -203q-97 0 -143.5 53t-46.5 142v43h20v-43q0 -175 170 -175q89 0 132.5 45t43.5 153z" />
    <glyph glyph-name="K" unicode="K" horiz-adv-x="593" 
d="M238 398l-164 -145v-253h-20v714h20v-434l495 434h30l-345 -304l365 -410h-27z" />
    <glyph glyph-name="L" unicode="L" horiz-adv-x="481" 
d="M74 20h417v-20h-437v714h20v-694z" />
    <glyph glyph-name="M" unicode="M" horiz-adv-x="780" 
d="M391 26l302 688h33v-714h-20v689h-2l-303 -689h-22l-303 689h-2v-689h-20v714h33l302 -688h2z" />
    <glyph glyph-name="N" unicode="N" horiz-adv-x="648" 
d="M54 0v714h30l488 -689h2v689h20v-714h-30l-488 689h-2v-689h-20z" />
    <glyph glyph-name="O" unicode="O" horiz-adv-x="721" 
d="M32 357q0 159 87.5 266.5t241.5 107.5t241.5 -107.5t87.5 -266.5t-87.5 -266.5t-241.5 -107.5t-241.5 107.5t-87.5 266.5zM52 357q2 -157 84.5 -255.5t224.5 -98.5q141 0 224 98.5t85 255.5q-2 157 -85 255.5t-224 98.5q-142 0 -224.5 -98.5t-84.5 -255.5z" />
    <glyph glyph-name="P" unicode="P" horiz-adv-x="574" 
d="M74 325v-325h-20v714h289q104 0 160.5 -49.5t56.5 -145.5q0 -92 -62.5 -143t-164.5 -51h-259zM74 694v-349h269q87 0 142 46.5t55 127.5q0 175 -197 175h-269z" />
    <glyph glyph-name="Q" unicode="Q" horiz-adv-x="721" 
d="M689 -22l-118 80q-85 -75 -210 -75q-154 0 -241.5 107.5t-87.5 266.5t87.5 266.5t241.5 107.5t241.5 -107.5t87.5 -266.5q0 -183 -106 -286l115 -79zM553 70l-126 86l11 16l129 -89q101 98 103 274q-2 157 -85 255.5t-224 98.5q-142 0 -224.5 -98.5t-84.5 -255.5
q2 -157 84.5 -255.5t224.5 -98.5q113 0 192 67z" />
    <glyph glyph-name="R" unicode="R" horiz-adv-x="611" 
d="M74 335v-335h-20v714h292q110 0 163 -44.5t55 -138.5q2 -71 -38 -119t-115 -65v-2q85 -11 113 -57t28 -141q0 -123 17 -147h-22q-15 33 -15 150q0 48 -6.5 79t-26 57t-58 37.5t-98.5 11.5h-269zM74 694v-339h267q87 0 145 45t58 133q-2 161 -193 161h-277z" />
    <glyph glyph-name="S" unicode="S" horiz-adv-x="611" 
d="M551 514h-20q-7 197 -232 197q-41 0 -78 -8t-71 -25.5t-54.5 -51t-20.5 -79.5q0 -19 4 -35.5t9.5 -29t17 -24t20.5 -19.5t26.5 -16t28.5 -12.5t33.5 -10.5t34 -9t36.5 -8.5t36 -8.5q9 -2 38.5 -9.5t38.5 -10.5t33.5 -10.5t33.5 -12t27.5 -14t25.5 -18t19 -22t16 -28
t8 -33.5t4 -41q0 -94 -74.5 -143t-177.5 -49q-130 0 -205.5 62.5t-73.5 191.5h20q0 -234 259 -234q95 0 163.5 43.5t68.5 129.5q0 26 -7 48t-16 37.5t-27.5 28.5t-33 21t-40 16t-40.5 12t-44 10.5t-42 9.5q-114 26 -154 46q-86 44 -86 142q0 51 21.5 88t58 57t77.5 29.5
t87 9.5q241 0 252 -217z" />
    <glyph glyph-name="T" unicode="T" 
d="M240 694h-257v20h534v-20h-257v-694h-20v694z" />
    <glyph glyph-name="U" unicode="U" horiz-adv-x="632" 
d="M558 266v448h20v-448q0 -142 -67 -212.5t-195 -70.5t-195 70.5t-67 212.5v448h20v-448q0 -263 242 -263t242 263z" />
    <glyph glyph-name="V" unicode="V" horiz-adv-x="538" 
d="M274 26l262 688h20l-272 -714h-22l-280 714h20l270 -688h2z" />
    <glyph glyph-name="W" unicode="W" horiz-adv-x="870" 
d="M661 25l199 689h20l-207 -714h-27l-210 689h-2l-206 -689h-27l-211 714h21l202 -689h2l206 689h29l209 -689h2z" />
    <glyph glyph-name="X" unicode="X" horiz-adv-x="520" 
d="M261 383l249 331h25l-260 -347l272 -367h-25l-261 351l-263 -351h-25l275 367l-260 347h26z" />
    <glyph glyph-name="Y" unicode="Y" horiz-adv-x="538" 
d="M269 322l275 392h24l-289 -413v-301h-20v301l-289 413h25z" />
    <glyph glyph-name="Z" unicode="Z" 
d="M1 20h507v-20h-527v27l499 667h-471v20h491v-27z" />
    <glyph glyph-name="bracketleft" unicode="[" horiz-adv-x="222" 
d="M96 731h113v-20h-93v-868h93v-20h-113v908z" />
    <glyph glyph-name="backslash" unicode="\" horiz-adv-x="333" 
d="M340 -17h-20l-327 748h20z" />
    <glyph glyph-name="bracketright" unicode="]" horiz-adv-x="222" 
d="M126 -177h-113v20h93v868h-93v20h113v-908z" />
    <glyph glyph-name="asciicircum" unicode="^" horiz-adv-x="600" 
d="M310 680l231 -453h-20l-221 433l-221 -433h-20l231 453h20z" />
    <glyph glyph-name="underscore" unicode="_" 
d="M500 -125h-500v50h500v-50z" />
    <glyph glyph-name="grave" unicode="`" horiz-adv-x="130" 
d="M101 588l-139 144h29l125 -144h-15z" />
    <glyph glyph-name="a" unicode="a" horiz-adv-x="481" 
d="M74 355h-20q4 76 54 123.5t142 47.5q166 0 170 -147v-327q0 -18 10.5 -26.5t25 -7.5t29.5 2v-20q-10 -1 -30 -1q-55 0 -55 51v67h-2q-17 -53 -72.5 -91t-131.5 -38q-79 0 -125.5 36t-46.5 103q0 37 10.5 64.5t26.5 43.5t41 26t47.5 14t51.5 6q125 7 152 15q46 24 49 68
q0 28 -4.5 49t-18.5 44t-46 36t-81 13q-80 0 -125.5 -39t-50.5 -112zM400 207v95h-2q-5 -8 -14.5 -14t-23 -10t-26 -6.5t-32 -4t-33 -2.5t-36 -2t-34.5 -2q-35 -2 -59.5 -8t-48.5 -19.5t-36.5 -40t-12.5 -66.5q0 -50 36 -84.5t114 -34.5q96 0 152 59t56 140z" />
    <glyph glyph-name="b" unicode="b" horiz-adv-x="537" 
d="M75 714v-344h2q18 72 72 114t134 42q102 0 160.5 -78t58.5 -192q0 -118 -59.5 -193t-159.5 -75q-76 0 -130.5 43t-75.5 113h-2v-144h-20v714h20zM75 256q0 -104 56 -176t152 -72q95 0 147 71.5t52 176.5q0 63 -19.5 118t-66.5 93.5t-113 38.5q-95 0 -151.5 -66
t-56.5 -184z" />
    <glyph glyph-name="c" unicode="c" 
d="M449 175h20q-8 -86 -65.5 -136.5t-144.5 -50.5q-106 0 -167 74t-61 184q0 119 61.5 199.5t178.5 80.5q75 0 130 -44.5t64 -123.5h-20q-12 72 -59.5 110t-114.5 38q-59 0 -103 -23t-68.5 -62t-36.5 -83t-12 -92q0 -99 55.5 -168.5t152.5 -69.5q77 0 130.5 45.5t59.5 121.5
z" />
    <glyph glyph-name="d" unicode="d" horiz-adv-x="537" 
d="M455 370v344h20v-714h-20v144h-2q-21 -70 -75.5 -113t-130.5 -43q-100 0 -159.5 75t-59.5 193q0 114 58.5 192t160.5 78q80 0 134 -42t72 -114h2zM455 256q0 118 -56.5 184t-151.5 66q-66 0 -113 -38.5t-66.5 -93.5t-19.5 -118q0 -105 52 -176.5t147 -71.5q96 0 152 72
t56 176z" />
    <glyph glyph-name="e" unicode="e" 
d="M475 253h-430q2 -112 51 -178.5t152 -66.5q82 0 135 43.5t66 126.5h20q-10 -87 -70.5 -138.5t-148.5 -51.5q-113 -2 -169 72.5t-56 196.5q0 123 66.5 196t158.5 73q113 0 171 -79.5t54 -193.5zM45 273h410q0 99 -53.5 166t-149.5 67q-85 0 -143 -63.5t-64 -169.5z" />
    <glyph glyph-name="f" unicode="f" horiz-adv-x="204" 
d="M87 494h-88v20h88v114q0 29 9 47.5t26 26.5t31 10t35 2q8 0 16 -0.5t16 -2t11 -1.5v-20q-25 4 -47 4q-46 0 -61.5 -16.5t-15.5 -56.5v-107h111v-20h-111v-494h-20v494z" />
    <glyph glyph-name="g" unicode="g" horiz-adv-x="519" 
d="M446 17v155h-2q-16 -66 -74 -105t-128 -39q-102 0 -158 70.5t-56 175.5q0 109 58 180.5t163 71.5q72 0 125 -42t70 -107h2v137h20v-497q0 -104 -55.5 -155t-158.5 -51q-84 0 -139 40t-57 122h20q2 -72 51 -107t124 -35q195 0 195 186zM445 274q0 95 -52 163.5t-144 68.5
q-96 0 -148.5 -66.5t-52.5 -165.5t51 -162.5t142 -63.5q96 0 150 64.5t54 161.5z" />
    <glyph glyph-name="h" unicode="h" 
d="M55 0v714h20v-327h2q14 62 63 100.5t122 38.5q82 0 132.5 -48.5t50.5 -136.5v-341h-20v338q0 84 -46 126t-117 42q-88 0 -137.5 -62t-49.5 -153v-291h-20z" />
    <glyph glyph-name="i" unicode="i" horiz-adv-x="130" 
d="M75 714v-101h-20v101h20zM75 514v-514h-20v514h20z" />
    <glyph glyph-name="j" unicode="j" horiz-adv-x="130" 
d="M75 714v-101h-20v101h20zM75 514v-589q0 -65 -28.5 -83.5t-95.5 -18.5v20q63 0 83.5 14.5t20.5 74.5v582h20z" />
    <glyph glyph-name="k" unicode="k" horiz-adv-x="444" 
d="M208 304l-133 -110v-194h-20v714h20v-495l355 295h29l-236 -196l253 -318h-27z" />
    <glyph glyph-name="l" unicode="l" horiz-adv-x="130" 
d="M55 0v714h20v-714h-20z" />
    <glyph glyph-name="m" unicode="m" horiz-adv-x="778" 
d="M55 0v514h20v-127h2q14 60 59.5 99.5t104.5 39.5q59 2 100 -30t54 -90h2q15 54 59.5 87t103.5 33q88 0 125.5 -49t37.5 -139v-338h-20v338q0 82 -32 125t-111 43q-73 0 -117 -52.5t-44 -127.5v-326h-20v330q0 83 -29.5 129.5t-108.5 46.5q-74 0 -120 -63t-46 -152v-291
h-20z" />
    <glyph glyph-name="n" unicode="n" 
d="M55 0v514h20v-127h2q14 62 63 100.5t122 38.5q82 0 132.5 -48.5t50.5 -136.5v-341h-20v338q0 84 -46 126t-117 42q-88 0 -137.5 -62t-49.5 -153v-291h-20z" />
    <glyph glyph-name="o" unicode="o" horiz-adv-x="519" 
d="M48 257q0 -104 56 -176.5t156 -72.5q98 0 154.5 72.5t56.5 176.5q0 102 -56.5 175.5t-154.5 73.5q-99 0 -155.5 -73t-56.5 -176zM28 257q0 112 62 190.5t170 78.5q107 0 169 -79t62 -190q0 -112 -62 -190.5t-170 -78.5t-169.5 78.5t-61.5 190.5z" />
    <glyph glyph-name="p" unicode="p" horiz-adv-x="537" 
d="M75 144v-321h-20v691h20v-144h2q21 70 75.5 113t130.5 43q100 0 159.5 -75t59.5 -193q0 -114 -58.5 -192t-160.5 -78q-80 0 -134 42t-72 114h-2zM283 8q66 0 113 38.5t66.5 93.5t19.5 118q0 105 -52 176.5t-147 71.5q-96 0 -152 -72t-56 -176q0 -118 56.5 -184t151.5 -66
z" />
    <glyph glyph-name="q" unicode="q" horiz-adv-x="537" 
d="M455 258q0 104 -56 176t-152 72q-95 0 -147 -71.5t-52 -176.5q0 -63 19.5 -118t66.5 -93.5t113 -38.5q95 0 151.5 66t56.5 184zM455 370v144h20v-691h-20v321h-2q-18 -72 -72 -114t-134 -42q-102 0 -160.5 78t-58.5 192q0 118 59.5 193t159.5 75q76 0 130.5 -43
t75.5 -113h2z" />
    <glyph glyph-name="r" unicode="r" horiz-adv-x="259" 
d="M75 291v-291h-20v514h20v-127h2q16 63 66 102t136 37v-20q-67 4 -114.5 -27.5t-68.5 -80t-21 -107.5z" />
    <glyph glyph-name="s" unicode="s" horiz-adv-x="463" 
d="M410 362h-20q0 144 -166 144q-50 0 -84 -13.5t-47.5 -35t-18 -35.5t-4.5 -25q0 -66 57 -90q18 -7 132 -38q27 -7 35 -9t32 -10t32.5 -13.5t25 -16.5t22.5 -22.5t12 -29t6 -37.5q0 -49 -28.5 -82.5t-69 -47t-88.5 -13.5q-208 0 -208 188h20q0 -168 188 -168q65 0 115.5 30
t50.5 91q0 31 -11.5 52t-40.5 35t-47 20t-62 16q-11 3 -16 4q-81 20 -115 35q-62 27 -62 106q0 50 43 89.5t131 39.5q186 0 186 -164z" />
    <glyph glyph-name="t" unicode="t" horiz-adv-x="241" 
d="M226 494h-116v-394q0 -27 6 -44.5t17.5 -24.5t21 -9t24.5 -2q37 0 44 3v-20q-36 -3 -49 -3q-84 0 -84 96v398h-95v20h95v162h20v-162h116v-20z" />
    <glyph glyph-name="u" unicode="u" 
d="M445 514v-514h-20v127h-2q-14 -62 -63 -100.5t-122 -38.5q-82 0 -132.5 48.5t-50.5 136.5v341h20v-338q0 -84 46 -126t117 -42q88 0 137.5 62t49.5 153v291h20z" />
    <glyph glyph-name="v" unicode="v" horiz-adv-x="407" 
d="M213 20l184 494h22l-194 -514h-25l-212 514h24l199 -494h2z" />
    <glyph glyph-name="w" unicode="w" horiz-adv-x="685" 
d="M517 20l156 494h20l-164 -514h-26l-160 494h-2l-161 -494h-28l-160 514h20l153 -494h2l159 494h31l158 -494h2z" />
    <glyph glyph-name="x" unicode="x" horiz-adv-x="407" 
d="M203 281l177 233h24l-188 -248l206 -266h-25l-194 251l-193 -251h-25l206 266l-187 248h26z" />
    <glyph glyph-name="y" unicode="y" horiz-adv-x="407" 
d="M214 27l184 487h21l-237 -619q-10 -25 -23.5 -40t-33 -22t-35.5 -8.5t-44 -1.5v20q56 0 79.5 11t40.5 55l37 96l-215 509h22z" />
    <glyph glyph-name="z" unicode="z" horiz-adv-x="407" 
d="M26 20h376v-20h-397v25l360 469h-333v20h354v-25z" />
    <glyph glyph-name="braceleft" unicode="{" horiz-adv-x="333" 
d="M280 -177h-50q-41 0 -57 26t-16 85v163q0 65 -15 105t-57 68v20q32 6 52 55t20 112v165q0 59 16 84t57 25h50v-20h-48q-31 0 -43 -23t-12 -84v-164q0 -51 -18.5 -99.5t-53.5 -62.5q33 -16 52.5 -61t19.5 -103v-162q0 -64 12.5 -86.5t42.5 -22.5h48v-20z" />
    <glyph glyph-name="bar" unicode="|" horiz-adv-x="222" 
d="M121 -214h-20v1000h20v-1000z" />
    <glyph glyph-name="braceright" unicode="}" horiz-adv-x="333" 
d="M53 731h50q41 0 57 -26t16 -85v-163q0 -66 15 -106.5t57 -66.5v-20q-32 -6 -52 -55t-20 -112v-165q0 -59 -16 -84t-57 -25h-50v20h48q31 0 43 23t12 84v164q0 51 18.5 99.5t53.5 62.5q-33 16 -52.5 61t-19.5 103v162q0 64 -13 86.5t-42 22.5h-48v20z" />
    <glyph glyph-name="asciitilde" unicode="~" horiz-adv-x="600" 
d="M503 301l20 -6q-17 -27 -29.5 -42.5t-34 -29.5t-45.5 -14q-12 0 -25.5 3.5t-21.5 6.5t-26 11t-24 11q-3 1 -20 9.5t-24 11t-21.5 7.5t-28 7t-28.5 2q-57 0 -98 -73l-20 6q46 87 118 87q40 3 117 -34q82 -35 103 -35q19 0 37 13t25.5 23t25.5 36z" />
    <glyph glyph-name="uni00A0" unicode="&#xa0;" horiz-adv-x="278" 
 />
    <glyph glyph-name="exclamdown" unicode="&#xa1;" horiz-adv-x="185" 
d="M83 360h20v-537h-20v537zM83 542h20v-98h-20v98z" />
    <glyph glyph-name="cent" unicode="&#xa2;" horiz-adv-x="556" 
d="M292 505v-497h5q73 0 122.5 47t57.5 120h20q-11 -87 -66 -136.5t-139 -50.5v-109h-20v109q-102 4 -157.5 82t-55.5 188q0 106 56.5 184.5t156.5 82.5v88h20v-88q81 -2 136 -45.5t64 -121.5h-20q-11 70 -59 107.5t-121 39.5zM272 8v497q-93 -4 -143 -76.5t-50 -170.5
q0 -100 50 -173t143 -77z" />
    <glyph glyph-name="sterling" unicode="&#xa3;" horiz-adv-x="556" 
d="M138 365h158v-20h-149q30 -53 30 -136q0 -107 -99 -191l2 -2q49 37 102 37q29 0 99 -24q66 -26 96 -26q31 0 59 12.5t44.5 26t49.5 44.5l13 -14q-43 -49 -81 -69t-85 -20q-37 0 -100 25q-6 2 -23.5 8t-26 9t-21.5 5.5t-24 2.5q-62 0 -125 -50l-18 20q118 102 118 206
q0 80 -32 136h-76v20h66q-4 7 -17 31t-19.5 37.5t-16 35t-13.5 40.5t-4 36q0 91 65.5 138.5t160.5 47.5q116 0 179 -68t51 -183h-20q10 109 -48.5 170t-161.5 61q-86 0 -146 -42t-60 -124q0 -21 8.5 -47.5t17 -44t25.5 -47.5t22 -41z" />
    <glyph glyph-name="currency" unicode="&#xa4;" horiz-adv-x="556" 
d="M506 340q0 94 -67 161t-161 67t-161 -67t-67 -161t67 -161t161 -67t161 67t67 161zM446 522l57 57l14 -14l-57 -57q66 -70 66 -168q0 -96 -66 -168l57 -57l-14 -14l-57 57q-70 -64 -168 -66q-96 0 -168 66l-57 -57l-14 14l57 57q-66 72 -66 168q2 98 66 168l-57 57l14 14
l57 -57q72 66 168 66q98 0 168 -66z" />
    <glyph glyph-name="yen" unicode="&#xa5;" horiz-adv-x="556" 
d="M287 305v-102h147v-20h-147v-183h-20v183h-147v20h147v102h-147v20h138l-237 389h22l234 -383h2l234 383h22l-237 -389h136v-20h-147z" />
    <glyph glyph-name="brokenbar" unicode="&#xa6;" horiz-adv-x="222" 
d="M101 661h20v-250h-20v250zM121 161v-250h-20v250h20z" />
    <glyph glyph-name="section" unicode="&#xa7;" horiz-adv-x="556" 
d="M479 205q0 51 -32.5 90t-132.5 104q-15 10 -40.5 25t-53 30.5t-36.5 20.5q-34 -9 -70.5 -43.5t-36.5 -89.5q0 -76 100 -139q122 -77 186 -121q38 8 77 42t39 81zM442 546h-20q-2 79 -40.5 122t-112.5 43q-51 0 -95 -27.5t-41 -87.5q3 -59 57 -99q28 -20 72.5 -45
t62.5 -36q106 -68 140 -110t34 -102q0 -48 -39.5 -87t-77.5 -49q64 -53 59 -123q-6 -66 -51.5 -100t-111.5 -34q-85 0 -131 50.5t-44 143.5h20q-1 -81 36.5 -127t118.5 -47q70 0 106.5 36t36.5 78t-14.5 67.5t-65.5 61.5q-23 17 -85.5 55.5t-90.5 57.5q-66 44 -87 80t-21 83
q0 46 32.5 84t76.5 55q-53 45 -53 109q0 39 16.5 67.5t43 41.5t50.5 18.5t48 5.5q78 0 124.5 -50.5t46.5 -134.5z" />
    <glyph glyph-name="dieresis" unicode="&#xa8;" horiz-adv-x="130" 
d="M153 614h-20v81h20v-81zM-3 614h-20v81h20v-81z" />
    <glyph glyph-name="copyright" unicode="&#xa9;" horiz-adv-x="800" 
d="M46 357q0 -148 103 -251t251 -103q147 0 250.5 103.5t103.5 250.5q0 146 -104 250t-250 104q-147 0 -250.5 -103.5t-103.5 -250.5zM26 357q0 155 109.5 264.5t264.5 109.5t264.5 -109.5t109.5 -264.5t-109.5 -264.5t-264.5 -109.5t-264.5 109.5t-109.5 264.5zM593 428
h-20q-9 63 -55.5 97t-109.5 34q-91 0 -144 -58.5t-53 -148.5q0 -91 54.5 -151.5t145.5 -60.5q57 0 102 36t60 100h20q-16 -70 -65 -113t-117 -43q-99 0 -159.5 66t-60.5 165q0 101 58.5 164.5t158.5 63.5q73 0 124.5 -40t60.5 -111z" />
    <glyph glyph-name="ordfeminine" unicode="&#xaa;" horiz-adv-x="300" 
d="M300 394v-20h-19q-35 0 -35 31v41h-2v-7q-25 -72 -132 -72q-48 0 -80 21t-32 63q0 23 7.5 40.5t18 27t28.5 15.5t32.5 8t36.5 4q8 0 25.5 0.5t26 1t22 2t20.5 4.5t15 7.5t11 12t3 17.5q0 44 -23 62.5t-74 18.5q-97 0 -108 -84h-20q11 104 128 104q113 0 117 -89v-190
q0 -25 34 -19zM246 504v48h-2q-9 -16 -46.5 -21t-75.5 -5t-69.5 -17.5t-32.5 -57.5q0 -33 27 -48.5t65 -15.5q63 0 98.5 33t35.5 84z" />
    <glyph glyph-name="guillemotleft" unicode="&#xab;" horiz-adv-x="352" 
d="M262 156v-35l-103 139v16l103 139v-35l-83 -112zM169 156v-35l-103 139v16l103 139v-35l-83 -112z" />
    <glyph glyph-name="logicalnot" unicode="&#xac;" horiz-adv-x="600" 
d="M532 93v247h-484v20h504v-267h-20z" />
    <glyph glyph-name="uni00AD" unicode="&#xad;" horiz-adv-x="333" 
d="M79 258v20h175v-20h-175z" />
    <glyph glyph-name="registered" unicode="&#xae;" horiz-adv-x="800" 
d="M46 357q0 -148 103 -251t251 -103q147 0 250.5 103.5t103.5 250.5q0 146 -104 250t-250 104q-147 0 -250.5 -103.5t-103.5 -250.5zM26 357q0 155 109.5 264.5t264.5 109.5t264.5 -109.5t109.5 -264.5t-109.5 -264.5t-264.5 -109.5t-264.5 109.5t-109.5 264.5zM294 354
h104q139 0 139 95q0 96 -124 96h-119v-191zM274 135v430h141q142 0 142 -116q0 -52 -31.5 -80t-80.5 -32l132 -202h-25l-129 200q-5 -1 -16 -1h-15h-98v-199h-20z" />
    <glyph glyph-name="macron" unicode="&#xaf;" horiz-adv-x="130" 
d="M181 660v-20h-232v20h232z" />
    <glyph glyph-name="degree" unicode="&#xb0;" horiz-adv-x="400" 
d="M343 549q0 -60 -41.5 -102.5t-101.5 -42.5t-101.5 41.5t-41.5 103.5q0 58 42 100.5t101 42.5t101 -42.5t42 -100.5zM323 549q0 51 -35 87t-88 36q-49 0 -86 -37.5t-37 -85.5q0 -53 36.5 -89t86.5 -36q52 0 87.5 36t35.5 89z" />
    <glyph glyph-name="plusminus" unicode="&#xb1;" horiz-adv-x="600" 
d="M48 0v20h504v-20h-504zM290 308v198h20v-198h242v-20h-242v-198h-20v198h-242v20h242z" />
    <glyph glyph-name="twosuperior" unicode="&#xb2;" horiz-adv-x="333" 
d="M41 297h275v-20h-298q0 19 7 36t13 28t25.5 27.5t26.5 22t34.5 23.5t32.5 21q62 40 94.5 74t32.5 79q0 41 -31.5 62.5t-84.5 21.5q-64 0 -93.5 -31t-28.5 -90h-20q2 71 34.5 106t107.5 35q61 0 98.5 -26t37.5 -78q0 -44 -26.5 -79t-105.5 -87q-61 -39 -95 -68.5
t-36 -56.5z" />
    <glyph glyph-name="threesuperior" unicode="&#xb3;" horiz-adv-x="333" 
d="M44 559h-20q-2 63 40 98t111 35q59 0 99 -23t40 -77q0 -42 -28.5 -68.5t-73.5 -26.5v-2q48 -4 79 -30t31 -75q0 -55 -43 -87.5t-106 -32.5q-78 0 -122 38t-40 107h20q-5 -61 33.5 -93t107.5 -32q54 0 92 26.5t38 73.5q0 96 -129 96h-24v21h26q51 0 85 20.5t34 64.5
q0 80 -120 80q-130 0 -130 -113z" />
    <glyph glyph-name="acute" unicode="&#xb4;" horiz-adv-x="130" 
d="M142 732h29l-146 -144h-15z" />
    <glyph glyph-name="mu" unicode="&#xb5;" horiz-adv-x="556" 
d="M472 514v-514h-20v127h-2q-14 -62 -63 -100.5t-122 -38.5q-118 0 -160 93h-2v-258h-20v691h19v-338q0 -84 46 -126t117 -42q88 0 137.5 62t49.5 153v291h20z" />
    <glyph glyph-name="paragraph" unicode="&#xb6;" horiz-adv-x="600" 
d="M289 714h202v-854h-20v834h-163v-834h-20v468q-97 0 -159.5 55t-62.5 135q0 95 58.5 145.5t164.5 50.5z" />
    <glyph glyph-name="periodcentered" unicode="&#xb7;" horiz-adv-x="278" 
d="M107 340q0 14 9 23t23 9t23 -9t9 -23t-9 -23t-23 -9t-23 9t-9 23z" />
    <glyph glyph-name="cedilla" unicode="&#xb8;" horiz-adv-x="130" 
d="M-17 -170l9 19q36 -17 71 -17q31 0 50.5 15.5t19.5 39.5q0 43 -53 43q-32 0 -54 -13l-15 10l57 73h20l-41 -56q13 6 33 6q34 0 54.5 -15t21.5 -45q0 -34 -26.5 -56t-66.5 -22q-42 0 -80 18z" />
    <glyph glyph-name="onesuperior" unicode="&#xb9;" horiz-adv-x="333" 
d="M181 277v385h-2q-33 -49 -117 -72v19q38 12 63.5 28.5t53.5 47.5h22v-408h-20z" />
    <glyph glyph-name="ordmasculine" unicode="&#xba;" horiz-adv-x="300" 
d="M20 531q0 -58 36 -101t95 -43t94.5 43.5t35.5 100.5q0 56 -35.5 98.5t-94.5 42.5t-95 -42.5t-36 -98.5zM0 531q0 67 40.5 114t110.5 47q71 0 110.5 -47t39.5 -114q0 -68 -40 -116t-111 -48q-69 0 -109.5 48.5t-40.5 115.5z" />
    <glyph glyph-name="guillemotright" unicode="&#xbb;" horiz-adv-x="352" 
d="M90 380v35l103 -139v-16l-103 -139v35l83 112zM183 380v35l103 -139v-16l-103 -139v35l83 112z" />
    <glyph glyph-name="onequarter" unicode="&#xbc;" horiz-adv-x="834" 
d="M221 277v385h-2q-33 -49 -117 -72v19q38 12 63.5 28.5t53.5 47.5h22v-408h-20zM144 -34l476 748h23l-476 -748h-23zM635 122v259l-2 -2l-198 -257h200zM635 102h-221v25l216 281h25v-286h76v-20h-76v-102h-20v102z" />
    <glyph glyph-name="onehalf" unicode="&#xbd;" horiz-adv-x="834" 
d="M495 20h275v-20h-298q0 19 7 36t13 28t25.5 27.5t26.5 22t34.5 23.5t32.5 21q62 40 94.5 74t32.5 79q0 41 -31.5 62.5t-84.5 21.5q-64 0 -93.5 -31t-28.5 -90h-20q2 71 34.5 106t107.5 35q61 0 98.5 -26t37.5 -78q0 -44 -26.5 -79t-105.5 -87q-61 -39 -95 -68.5
t-36 -56.5zM184 277v385h-2q-33 -49 -117 -72v19q38 12 63.5 28.5t53.5 47.5h22v-408h-20zM97 -34l476 748h23l-476 -748h-23z" />
    <glyph glyph-name="threequarters" unicode="&#xbe;" horiz-adv-x="834" 
d="M88 559h-20q-2 63 40 98t111 35q59 0 99 -23t40 -77q0 -42 -28.5 -68.5t-73.5 -26.5v-2q48 -4 79 -30t31 -75q0 -55 -43 -87.5t-106 -32.5q-78 0 -122 38t-40 107h20q-5 -61 33.5 -93t107.5 -32q54 0 92 26.5t38 73.5q0 51 -36.5 74t-92.5 23h-12q-8 0 -12 -1v21h26
q51 0 85 20.5t34 64.5q0 80 -120 80q-130 0 -130 -113zM198 -34l476 748h23l-476 -748h-23zM683 122v259l-2 -2l-198 -257h200zM683 102h-221v25l216 281h25v-286h76v-20h-76v-102h-20v102z" />
    <glyph glyph-name="questiondown" unicode="&#xbf;" 
d="M248 542h20v-98h-20v98zM445 49h20q4 -106 -54.5 -172t-162.5 -66q-85 0 -141 44t-56 122q0 16 2 31.5t6.5 29t9 24t12.5 22t12.5 18.5t15 17t14 13.5t14 13t11.5 10.5q58 55 78.5 95t20.5 109h20q0 -68 -21 -113t-77 -99q-1 -1 -16 -13.5t-26 -25t-25.5 -32t-22.5 -45.5
t-8 -55q0 -69 49.5 -107.5t127.5 -38.5q97 0 149 59.5t48 158.5z" />
    <glyph glyph-name="Agrave" unicode="&#xc0;" horiz-adv-x="575" 
d="M470 235h-364l-95 -235h-23l290 714h26l282 -714h-22zM114 255h348l-170 439h-2zM289 778l-139 144h29l125 -144h-15z" />
    <glyph glyph-name="Aacute" unicode="&#xc1;" horiz-adv-x="575" 
d="M470 235h-364l-95 -235h-23l290 714h26l282 -714h-22zM114 255h348l-170 439h-2zM410 922h29l-146 -144h-15z" />
    <glyph glyph-name="Acircumflex" unicode="&#xc2;" horiz-adv-x="575" 
d="M470 235h-364l-95 -235h-23l290 714h26l282 -714h-22zM114 255h348l-170 439h-2zM412 781h-20l-103 123l-99 -123h-20l113 139h15z" />
    <glyph glyph-name="Atilde" unicode="&#xc3;" horiz-adv-x="575" 
d="M470 235h-364l-95 -235h-23l290 714h26l282 -714h-22zM114 255h348l-170 439h-2zM179 805h-20q2 31 21 55t47 24q24 0 66 -29t61 -29q39 0 49 55h20q-11 -75 -69 -75q-26 0 -66 29t-61 29t-33.5 -18t-14.5 -41z" />
    <glyph glyph-name="Adieresis" unicode="&#xc4;" horiz-adv-x="575" 
d="M470 235h-364l-95 -235h-23l290 714h26l282 -714h-22zM114 255h348l-170 439h-2zM379 804h-20v81h20v-81zM223 804h-20v81h20v-81z" />
    <glyph glyph-name="Aring" unicode="&#xc5;" horiz-adv-x="575" 
d="M359 850q0 28 -20 48t-48 20t-48 -20t-20 -48t20 -48t48 -20t48 20t20 48zM379 850q0 -36 -26 -62t-62 -26t-62 26t-26 62t26 62t62 26t62 -26t26 -62zM470 235h-364l-95 -235h-23l290 714h26l282 -714h-22zM114 255h348l-170 439h-2z" />
    <glyph glyph-name="AE" unicode="&#xc6;" horiz-adv-x="852" 
d="M423 696h-47l-211 -402h258v402zM423 274h-268l-145 -274h-22l378 714h469v-20h-392v-312h360v-20h-360v-342h392v-20h-412v274z" />
    <glyph glyph-name="Ccedilla" unicode="&#xc7;" horiz-adv-x="685" 
d="M255 -170l9 19q36 -17 71 -17q31 0 50.5 15.5t19.5 39.5q0 43 -53 43q-32 0 -54 -13l-15 10l48 56q-60 3 -114 27q-89 43 -140.5 132.5t-51.5 208.5q0 54 11.5 106t37.5 102t63.5 88t95.5 61t128 23q67 0 123 -23.5t89.5 -59.5t52.5 -74.5t20 -73.5h-20q-6 82 -80 146.5
t-185 64.5q-68 0 -123 -23.5t-90 -60.5t-59 -85.5t-34 -96t-10 -94.5q0 -143 82 -245.5t221 -102.5q124 0 201 77t93 200h20q-14 -99 -63 -170.5t-130 -104.5q-55 -21 -118 -22l-32 -39q14 6 33 6q34 0 54.5 -15t21.5 -45q0 -34 -26.5 -56t-66.5 -22q-42 0 -80 18z" />
    <glyph glyph-name="Egrave" unicode="&#xc8;" horiz-adv-x="537" 
d="M74 362v-342h458v-20h-478v714h474v-20h-454v-312h427v-20h-427zM301 778l-139 144h29l125 -144h-15z" />
    <glyph glyph-name="Eacute" unicode="&#xc9;" horiz-adv-x="537" 
d="M74 362v-342h458v-20h-478v714h474v-20h-454v-312h427v-20h-427zM411 922h29l-146 -144h-15z" />
    <glyph glyph-name="Ecircumflex" unicode="&#xca;" horiz-adv-x="537" 
d="M74 362v-342h458v-20h-478v714h474v-20h-454v-312h427v-20h-427zM410 781h-20l-103 123l-99 -123h-20l113 139h15z" />
    <glyph glyph-name="Edieresis" unicode="&#xcb;" horiz-adv-x="537" 
d="M379 804h-20v81h20v-81zM223 804h-20v81h20v-81zM74 362v-342h458v-20h-478v714h474v-20h-454v-312h427v-20h-427z" />
    <glyph glyph-name="Igrave" unicode="&#xcc;" horiz-adv-x="128" 
d="M54 0v714h20v-714h-20zM60 778l-139 144h29l125 -144h-15z" />
    <glyph glyph-name="Iacute" unicode="&#xcd;" horiz-adv-x="128" 
d="M54 0v714h20v-714h-20zM186 922h29l-146 -144h-15z" />
    <glyph glyph-name="Icircumflex" unicode="&#xce;" horiz-adv-x="128" 
d="M54 0v714h20v-714h-20zM185 781h-20l-103 123l-99 -123h-20l113 139h15z" />
    <glyph glyph-name="Idieresis" unicode="&#xcf;" horiz-adv-x="128" 
d="M54 0v714h20v-714h-20zM152 804h-20v81h20v-81zM-4 804h-20v81h20v-81z" />
    <glyph glyph-name="Eth" unicode="&#xd0;" horiz-adv-x="648" 
d="M371 362h-297v-342h204q135 0 222.5 86.5t87.5 250.5q0 77 -16.5 137t-43.5 97t-65.5 61t-78 33t-85.5 9h-225v-312h297v-20zM54 362h-64v20h64v332h250q58 0 108.5 -17t96 -55.5t72.5 -111.5t27 -173q0 -93 -27.5 -163.5t-75.5 -111.5t-106.5 -61.5t-125.5 -20.5h-219
v362z" />
    <glyph glyph-name="Ntilde" unicode="&#xd1;" horiz-adv-x="648" 
d="M54 0v714h30l488 -689h2v689h20v-714h-30l-488 689h-2v-689h-20zM217 805h-20q2 31 21 55t47 24q24 0 66 -29t61 -29q39 0 49 55h20q-11 -75 -69 -75q-26 0 -66 29t-61 29t-33.5 -18t-14.5 -41z" />
    <glyph glyph-name="Ograve" unicode="&#xd2;" horiz-adv-x="721" 
d="M32 357q0 159 87.5 266.5t241.5 107.5t241.5 -107.5t87.5 -266.5t-87.5 -266.5t-241.5 -107.5t-241.5 107.5t-87.5 266.5zM52 357q2 -157 84.5 -255.5t224.5 -98.5q141 0 224 98.5t85 255.5q-2 157 -85 255.5t-224 98.5q-142 0 -224.5 -98.5t-84.5 -255.5zM356 778
l-139 144h29l125 -144h-15z" />
    <glyph glyph-name="Oacute" unicode="&#xd3;" horiz-adv-x="721" 
d="M32 357q0 159 87.5 266.5t241.5 107.5t241.5 -107.5t87.5 -266.5t-87.5 -266.5t-241.5 -107.5t-241.5 107.5t-87.5 266.5zM52 357q2 -157 84.5 -255.5t224.5 -98.5q141 0 224 98.5t85 255.5q-2 157 -85 255.5t-224 98.5q-142 0 -224.5 -98.5t-84.5 -255.5zM485 922h29
l-146 -144h-15z" />
    <glyph glyph-name="Ocircumflex" unicode="&#xd4;" horiz-adv-x="721" 
d="M32 357q0 159 87.5 266.5t241.5 107.5t241.5 -107.5t87.5 -266.5t-87.5 -266.5t-241.5 -107.5t-241.5 107.5t-87.5 266.5zM52 357q2 -157 84.5 -255.5t224.5 -98.5q141 0 224 98.5t85 255.5q-2 157 -85 255.5t-224 98.5q-142 0 -224.5 -98.5t-84.5 -255.5zM486 781h-20
l-103 123l-99 -123h-20l113 139h15z" />
    <glyph glyph-name="Otilde" unicode="&#xd5;" horiz-adv-x="721" 
d="M32 357q0 159 87.5 266.5t241.5 107.5t241.5 -107.5t87.5 -266.5t-87.5 -266.5t-241.5 -107.5t-241.5 107.5t-87.5 266.5zM52 357q2 -157 84.5 -255.5t224.5 -98.5q141 0 224 98.5t85 255.5q-2 157 -85 255.5t-224 98.5q-142 0 -224.5 -98.5t-84.5 -255.5zM253 805h-20
q2 31 21 55t47 24q24 0 66 -29t61 -29q39 0 49 55h20q-11 -75 -69 -75q-26 0 -66 29t-61 29t-33.5 -18t-14.5 -41z" />
    <glyph glyph-name="Odieresis" unicode="&#xd6;" horiz-adv-x="721" 
d="M32 357q0 159 87.5 266.5t241.5 107.5t241.5 -107.5t87.5 -266.5t-87.5 -266.5t-241.5 -107.5t-241.5 107.5t-87.5 266.5zM52 357q2 -157 84.5 -255.5t224.5 -98.5q141 0 224 98.5t85 255.5q-2 157 -85 255.5t-224 98.5q-142 0 -224.5 -98.5t-84.5 -255.5zM451 804h-20
v81h20v-81zM295 804h-20v81h20v-81z" />
    <glyph glyph-name="multiply" unicode="&#xd7;" horiz-adv-x="600" 
d="M286 253l-190 190l14 13l189 -191l191 191l14 -13l-191 -190l191 -190l-14 -14l-191 191l-189 -191l-14 14z" />
    <glyph glyph-name="Oslash" unicode="&#xd8;" horiz-adv-x="721" 
d="M40 17l73 81q-81 104 -81 259q0 159 87.5 266.5t241.5 107.5q143 0 234 -99l59 65l15 -12l-61 -68q82 -101 82 -260t-87.5 -266.5t-241.5 -107.5q-147 0 -235 101l-71 -79zM594 601l-454 -502q82 -96 221 -96q141 0 224 98.5t85 255.5q-2 151 -76 244zM127 114l454 503
q-83 94 -220 94q-142 0 -224.5 -98.5t-84.5 -255.5q2 -150 75 -243z" />
    <glyph glyph-name="Ugrave" unicode="&#xd9;" horiz-adv-x="632" 
d="M558 266v448h20v-448q0 -142 -67 -212.5t-195 -70.5t-195 70.5t-67 212.5v448h20v-448q0 -263 242 -263t242 263zM310 778l-139 144h29l125 -144h-15z" />
    <glyph glyph-name="Uacute" unicode="&#xda;" horiz-adv-x="632" 
d="M558 266v448h20v-448q0 -142 -67 -212.5t-195 -70.5t-195 70.5t-67 212.5v448h20v-448q0 -263 242 -263t242 263zM439 922h29l-146 -144h-15z" />
    <glyph glyph-name="Ucircumflex" unicode="&#xdb;" horiz-adv-x="632" 
d="M558 266v448h20v-448q0 -142 -67 -212.5t-195 -70.5t-195 70.5t-67 212.5v448h20v-448q0 -263 242 -263t242 263zM439 781h-20l-103 123l-99 -123h-20l113 139h15z" />
    <glyph glyph-name="Udieresis" unicode="&#xdc;" horiz-adv-x="632" 
d="M558 266v448h20v-448q0 -142 -67 -212.5t-195 -70.5t-195 70.5t-67 212.5v448h20v-448q0 -263 242 -263t242 263zM403 804h-20v81h20v-81zM247 804h-20v81h20v-81z" />
    <glyph glyph-name="Yacute" unicode="&#xdd;" horiz-adv-x="538" 
d="M269 322l275 392h24l-289 -413v-301h-20v301l-289 413h25zM389 922h29l-146 -144h-15z" />
    <glyph glyph-name="Thorn" unicode="&#xde;" horiz-adv-x="574" 
d="M74 590h269q104 0 160.5 -49.5t56.5 -145.5q0 -92 -62.5 -143t-164.5 -51h-259v-201h-20v714h20v-124zM74 570v-349h269q87 0 142 46.5t55 127.5q0 175 -197 175h-269z" />
    <glyph glyph-name="germandbls" unicode="&#xdf;" horiz-adv-x="481" 
d="M202 387v20q84 -2 138.5 35t54.5 119q0 66 -47 105.5t-117 39.5q-19 0 -36.5 -2.5t-40.5 -12t-39.5 -25t-28 -45t-11.5 -68.5v-553h-20v556q0 88 51.5 129t124.5 41q75 0 129.5 -45t54.5 -120q0 -64 -32.5 -107t-94.5 -54v-2q164 -16 164 -188q0 -221 -250 -210v20
q230 -14 230 190q0 53 -16.5 89t-49 54.5t-71.5 26t-93 7.5z" />
    <glyph glyph-name="agrave" unicode="&#xe0;" horiz-adv-x="481" 
d="M74 355h-20q4 76 54 123.5t142 47.5q166 0 170 -147v-327q0 -18 10.5 -26.5t25 -7.5t29.5 2v-20q-10 -1 -30 -1q-55 0 -55 51v67h-2q-17 -53 -72.5 -91t-131.5 -38q-79 0 -125.5 36t-46.5 103q0 37 10.5 64.5t26.5 43.5t41 26t47.5 14t51.5 6q125 7 152 15q46 24 49 68
q0 28 -4.5 49t-18.5 44t-46 36t-81 13q-80 0 -125.5 -39t-50.5 -112zM400 207v95h-2q-5 -8 -14.5 -14t-23 -10t-26 -6.5t-32 -4t-33 -2.5t-36 -2t-34.5 -2q-35 -2 -59.5 -8t-48.5 -19.5t-36.5 -40t-12.5 -66.5q0 -50 36 -84.5t114 -34.5q96 0 152 59t56 140zM243 588
l-139 144h29l125 -144h-15z" />
    <glyph glyph-name="aacute" unicode="&#xe1;" horiz-adv-x="481" 
d="M74 355h-20q4 76 54 123.5t142 47.5q166 0 170 -147v-327q0 -18 10.5 -26.5t25 -7.5t29.5 2v-20q-10 -1 -30 -1q-55 0 -55 51v67h-2q-17 -53 -72.5 -91t-131.5 -38q-79 0 -125.5 36t-46.5 103q0 37 10.5 64.5t26.5 43.5t41 26t47.5 14t51.5 6q125 7 152 15q46 24 49 68
q0 28 -4.5 49t-18.5 44t-46 36t-81 13q-80 0 -125.5 -39t-50.5 -112zM400 207v95h-2q-5 -8 -14.5 -14t-23 -10t-26 -6.5t-32 -4t-33 -2.5t-36 -2t-34.5 -2q-35 -2 -59.5 -8t-48.5 -19.5t-36.5 -40t-12.5 -66.5q0 -50 36 -84.5t114 -34.5q96 0 152 59t56 140zM352 732h29
l-146 -144h-15z" />
    <glyph glyph-name="acircumflex" unicode="&#xe2;" horiz-adv-x="481" 
d="M74 355h-20q4 76 54 123.5t142 47.5q166 0 170 -147v-327q0 -18 10.5 -26.5t25 -7.5t29.5 2v-20q-10 -1 -30 -1q-55 0 -55 51v67h-2q-17 -53 -72.5 -91t-131.5 -38q-79 0 -125.5 36t-46.5 103q0 37 10.5 64.5t26.5 43.5t41 26t47.5 14t51.5 6q125 7 152 15q46 24 49 68
q0 28 -4.5 49t-18.5 44t-46 36t-81 13q-80 0 -125.5 -39t-50.5 -112zM400 207v95h-2q-5 -8 -14.5 -14t-23 -10t-26 -6.5t-32 -4t-33 -2.5t-36 -2t-34.5 -2q-35 -2 -59.5 -8t-48.5 -19.5t-36.5 -40t-12.5 -66.5q0 -50 36 -84.5t114 -34.5q96 0 152 59t56 140zM366 591h-20
l-103 123l-99 -123h-20l113 139h15z" />
    <glyph glyph-name="atilde" unicode="&#xe3;" horiz-adv-x="481" 
d="M74 355h-20q4 76 54 123.5t142 47.5q166 0 170 -147v-327q0 -18 10.5 -26.5t25 -7.5t29.5 2v-20q-10 -1 -30 -1q-55 0 -55 51v67h-2q-17 -53 -72.5 -91t-131.5 -38q-79 0 -125.5 36t-46.5 103q0 37 10.5 64.5t26.5 43.5t41 26t47.5 14t51.5 6q125 7 152 15q46 24 49 68
q0 28 -4.5 49t-18.5 44t-46 36t-81 13q-80 0 -125.5 -39t-50.5 -112zM400 207v95h-2q-5 -8 -14.5 -14t-23 -10t-26 -6.5t-32 -4t-33 -2.5t-36 -2t-34.5 -2q-35 -2 -59.5 -8t-48.5 -19.5t-36.5 -40t-12.5 -66.5q0 -50 36 -84.5t114 -34.5q96 0 152 59t56 140zM127 615h-20
q2 31 21 55t47 24q24 0 66 -29t61 -29q39 0 49 55h20q-11 -75 -69 -75q-26 0 -66 29t-61 29t-33.5 -18t-14.5 -41z" />
    <glyph glyph-name="adieresis" unicode="&#xe4;" horiz-adv-x="481" 
d="M74 355h-20q4 76 54 123.5t142 47.5q166 0 170 -147v-327q0 -18 10.5 -26.5t25 -7.5t29.5 2v-20q-10 -1 -30 -1q-55 0 -55 51v67h-2q-17 -53 -72.5 -91t-131.5 -38q-79 0 -125.5 36t-46.5 103q0 37 10.5 64.5t26.5 43.5t41 26t47.5 14t51.5 6q125 7 152 15q46 24 49 68
q0 28 -4.5 49t-18.5 44t-46 36t-81 13q-80 0 -125.5 -39t-50.5 -112zM400 207v95h-2q-5 -8 -14.5 -14t-23 -10t-26 -6.5t-32 -4t-33 -2.5t-36 -2t-34.5 -2q-35 -2 -59.5 -8t-48.5 -19.5t-36.5 -40t-12.5 -66.5q0 -50 36 -84.5t114 -34.5q96 0 152 59t56 140zM334 614h-20v81
h20v-81zM178 614h-20v81h20v-81z" />
    <glyph glyph-name="aring" unicode="&#xe5;" horiz-adv-x="481" 
d="M74 355h-20q4 76 54 123.5t142 47.5q166 0 170 -147v-327q0 -18 10.5 -26.5t25 -7.5t29.5 2v-20q-10 -1 -30 -1q-55 0 -55 51v67h-2q-17 -53 -72.5 -91t-131.5 -38q-79 0 -125.5 36t-46.5 103q0 37 10.5 64.5t26.5 43.5t41 26t47.5 14t51.5 6q125 7 152 15q46 24 49 68
q0 28 -4.5 49t-18.5 44t-46 36t-81 13q-80 0 -125.5 -39t-50.5 -112zM400 207v95h-2q-5 -8 -14.5 -14t-23 -10t-26 -6.5t-32 -4t-33 -2.5t-36 -2t-34.5 -2q-35 -2 -59.5 -8t-48.5 -19.5t-36.5 -40t-12.5 -66.5q0 -50 36 -84.5t114 -34.5q96 0 152 59t56 140zM307 670
q0 28 -20 48t-48 20t-48 -20t-20 -48t20 -48t48 -20t48 20t20 48zM327 670q0 -36 -26 -62t-62 -26t-62 26t-26 62t26 62t62 26t62 -26t26 -62z" />
    <glyph glyph-name="ae" unicode="&#xe6;" horiz-adv-x="889" 
d="M84 355h-20q4 76 54 123.5t142 47.5q166 0 170 -150h2q21 67 74 108.5t131 41.5q111 0 167.5 -78.5t52.5 -194.5h-427q4 -112 52.5 -178.5t152.5 -66.5q79 0 134.5 44.5t64.5 125.5h20q-8 -84 -68.5 -137t-150.5 -53q-83 -1 -137.5 42.5t-74.5 124.5h-2
q-16 -77 -75.5 -122t-141.5 -45q-79 0 -125.5 36t-46.5 103q0 37 10.5 64.5t26.5 43.5t41 26t47.5 14t51.5 6q125 7 152 15q46 24 49 68q0 28 -4.5 49t-18.5 44t-46 36t-81 13q-80 0 -125.5 -39t-50.5 -112zM410 207v95h-2q-5 -8 -14.5 -14t-23 -10t-26 -6.5t-32 -4
t-33 -2.5t-36 -2t-34.5 -2q-35 -2 -59.5 -8t-48.5 -19.5t-36.5 -40t-12.5 -66.5q0 -50 36 -84.5t114 -34.5q96 0 152 59t56 140zM430 273h407q0 102 -51.5 167.5t-148.5 65.5q-92 0 -145.5 -62.5t-61.5 -170.5z" />
    <glyph glyph-name="ccedilla" unicode="&#xe7;" 
d="M170 -170l9 19q36 -17 71 -17q31 0 50.5 15.5t19.5 39.5q0 43 -53 43q-32 0 -54 -13l-15 10l51 61q-48 1 -88 20q-62 31 -96 94t-34 144q0 119 61.5 199.5t178.5 80.5q75 0 130 -44.5t64 -123.5h-20q-12 72 -59.5 110t-114.5 38q-59 0 -103 -23t-68.5 -62t-36.5 -83
t-12 -92q0 -99 55.5 -168.5t152.5 -69.5q77 0 130.5 45.5t59.5 121.5h20q-6 -64 -40.5 -109t-89.5 -65q-35 -12 -69 -13l-36 -44q14 6 33 6q34 0 54.5 -15t21.5 -45q0 -34 -26.5 -56t-66.5 -22q-42 0 -80 18z" />
    <glyph glyph-name="egrave" unicode="&#xe8;" 
d="M475 253h-430q2 -112 51 -178.5t152 -66.5q82 0 135 43.5t66 126.5h20q-10 -87 -70.5 -138.5t-148.5 -51.5q-113 -2 -169 72.5t-56 196.5q0 123 66.5 196t158.5 73q113 0 171 -79.5t54 -193.5zM45 273h410q0 99 -53.5 166t-149.5 67q-85 0 -143 -63.5t-64 -169.5z
M248 588l-139 144h29l125 -144h-15z" />
    <glyph glyph-name="eacute" unicode="&#xe9;" 
d="M475 253h-430q2 -112 51 -178.5t152 -66.5q82 0 135 43.5t66 126.5h20q-10 -87 -70.5 -138.5t-148.5 -51.5q-113 -2 -169 72.5t-56 196.5q0 123 66.5 196t158.5 73q113 0 171 -79.5t54 -193.5zM45 273h410q0 99 -53.5 166t-149.5 67q-85 0 -143 -63.5t-64 -169.5z
M372 732h29l-146 -144h-15z" />
    <glyph glyph-name="ecircumflex" unicode="&#xea;" 
d="M475 253h-430q2 -112 51 -178.5t152 -66.5q82 0 135 43.5t66 126.5h20q-10 -87 -70.5 -138.5t-148.5 -51.5q-113 -2 -169 72.5t-56 196.5q0 123 66.5 196t158.5 73q113 0 171 -79.5t54 -193.5zM45 273h410q0 99 -53.5 166t-149.5 67q-85 0 -143 -63.5t-64 -169.5z
M377 591h-20l-103 123l-99 -123h-20l113 139h15z" />
    <glyph glyph-name="edieresis" unicode="&#xeb;" 
d="M475 253h-430q2 -112 51 -178.5t152 -66.5q82 0 135 43.5t66 126.5h20q-10 -87 -70.5 -138.5t-148.5 -51.5q-113 -2 -169 72.5t-56 196.5q0 123 66.5 196t158.5 73q113 0 171 -79.5t54 -193.5zM45 273h410q0 99 -53.5 166t-149.5 67q-85 0 -143 -63.5t-64 -169.5z
M342 614h-20v81h20v-81zM186 614h-20v81h20v-81z" />
    <glyph glyph-name="igrave" unicode="&#xec;" horiz-adv-x="130" 
d="M75 0h-20v514h20v-514zM60 588l-139 144h29l125 -144h-15z" />
    <glyph glyph-name="iacute" unicode="&#xed;" horiz-adv-x="130" 
d="M75 0h-20v514h20v-514zM186 732h29l-146 -144h-15z" />
    <glyph glyph-name="icircumflex" unicode="&#xee;" horiz-adv-x="130" 
d="M75 0h-20v514h20v-514zM186 591h-20l-103 123l-99 -123h-20l113 139h15z" />
    <glyph glyph-name="idieresis" unicode="&#xef;" horiz-adv-x="130" 
d="M75 0h-20v514h20v-514zM153 614h-20v81h20v-81zM-3 614h-20v81h20v-81z" />
    <glyph glyph-name="eth" unicode="&#xf0;" horiz-adv-x="519" 
d="M48 248q0 -99 56.5 -169t155.5 -70q98 0 154.5 70t56.5 169q0 98 -56.5 168.5t-154.5 70.5q-99 0 -155.5 -70t-56.5 -169zM128 581l121 67q-44 35 -93 60l16 14q50 -26 96 -64l123 68l15 -16l-120 -67q107 -99 156 -192.5t49 -202.5q0 -108 -62 -183.5t-170 -75.5
t-169.5 75.5t-61.5 183.5q0 107 62 183t170 76q107 0 162 -72h4q-28 55 -74.5 110.5t-86.5 88.5l-122 -68z" />
    <glyph glyph-name="ntilde" unicode="&#xf1;" 
d="M55 0v514h20v-127h2q14 62 63 100.5t122 38.5q82 0 132.5 -48.5t50.5 -136.5v-341h-20v338q0 84 -46 126t-117 42q-88 0 -137.5 -62t-49.5 -153v-291h-20zM134 615h-20q2 31 21 55t47 24q24 0 66 -29t61 -29q39 0 49 55h20q-11 -75 -69 -75q-26 0 -66 29t-61 29
t-33.5 -18t-14.5 -41z" />
    <glyph glyph-name="ograve" unicode="&#xf2;" horiz-adv-x="519" 
d="M48 257q0 -104 56 -176.5t156 -72.5q98 0 154.5 72.5t56.5 176.5q0 102 -56.5 175.5t-154.5 73.5q-99 0 -155.5 -73t-56.5 -176zM28 257q0 112 62 190.5t170 78.5q107 0 169 -79t62 -190q0 -112 -62 -190.5t-170 -78.5t-169.5 78.5t-61.5 190.5zM254 588l-139 144h29
l125 -144h-15z" />
    <glyph glyph-name="oacute" unicode="&#xf3;" horiz-adv-x="519" 
d="M48 257q0 -104 56 -176.5t156 -72.5q98 0 154.5 72.5t56.5 176.5q0 102 -56.5 175.5t-154.5 73.5q-99 0 -155.5 -73t-56.5 -176zM28 257q0 112 62 190.5t170 78.5q107 0 169 -79t62 -190q0 -112 -62 -190.5t-170 -78.5t-169.5 78.5t-61.5 190.5zM381 732h29l-146 -144
h-15z" />
    <glyph glyph-name="ocircumflex" unicode="&#xf4;" horiz-adv-x="519" 
d="M48 257q0 -104 56 -176.5t156 -72.5q98 0 154.5 72.5t56.5 176.5q0 102 -56.5 175.5t-154.5 73.5q-99 0 -155.5 -73t-56.5 -176zM28 257q0 112 62 190.5t170 78.5q107 0 169 -79t62 -190q0 -112 -62 -190.5t-170 -78.5t-169.5 78.5t-61.5 190.5zM381 591h-20l-103 123
l-99 -123h-20l113 139h15z" />
    <glyph glyph-name="otilde" unicode="&#xf5;" horiz-adv-x="519" 
d="M48 257q0 -104 56 -176.5t156 -72.5q98 0 154.5 72.5t56.5 176.5q0 102 -56.5 175.5t-154.5 73.5q-99 0 -155.5 -73t-56.5 -176zM28 257q0 112 62 190.5t170 78.5q107 0 169 -79t62 -190q0 -112 -62 -190.5t-170 -78.5t-169.5 78.5t-61.5 190.5zM148 615h-20q2 31 21 55
t47 24q24 0 66 -29t61 -29q39 0 49 55h20q-11 -75 -69 -75q-26 0 -66 29t-61 29t-33.5 -18t-14.5 -41z" />
    <glyph glyph-name="odieresis" unicode="&#xf6;" horiz-adv-x="519" 
d="M48 257q0 -104 56 -176.5t156 -72.5q98 0 154.5 72.5t56.5 176.5q0 102 -56.5 175.5t-154.5 73.5q-99 0 -155.5 -73t-56.5 -176zM28 257q0 112 62 190.5t170 78.5q107 0 169 -79t62 -190q0 -112 -62 -190.5t-170 -78.5t-169.5 78.5t-61.5 190.5zM348 614h-20v81h20v-81z
M192 614h-20v81h20v-81z" />
    <glyph glyph-name="divide" unicode="&#xf7;" horiz-adv-x="600" 
d="M300 0q-41 0 -41 41q0 18 12 29.5t29 11.5t29 -12t12 -29q0 -41 -41 -41zM300 424q-41 0 -41 41q0 18 12 29.5t29 11.5t29 -12t12 -29q0 -41 -41 -41zM552 243h-504v20h504v-20z" />
    <glyph glyph-name="oslash" unicode="&#xf8;" horiz-adv-x="519" 
d="M427 449l45 47l14 -14l-47 -49q52 -70 52 -176q0 -112 -62 -190.5t-170 -78.5q-106 0 -170 79l-57 -59l-14 14l60 62q-50 71 -50 173q0 112 62 190.5t170 78.5q104 0 167 -77zM424 418l-320 -335q56 -75 156 -75q98 0 154.5 72.5t56.5 176.5q0 93 -47 161zM92 99l320 335
q-57 72 -152 72q-99 0 -155.5 -73t-56.5 -176q0 -91 44 -158z" />
    <glyph glyph-name="ugrave" unicode="&#xf9;" 
d="M445 514v-514h-20v127h-2q-14 -62 -63 -100.5t-122 -38.5q-82 0 -132.5 48.5t-50.5 136.5v341h20v-338q0 -84 46 -126t117 -42q88 0 137.5 62t49.5 153v291h20zM242 588l-139 144h29l125 -144h-15z" />
    <glyph glyph-name="uacute" unicode="&#xfa;" 
d="M445 514v-514h-20v127h-2q-14 -62 -63 -100.5t-122 -38.5q-82 0 -132.5 48.5t-50.5 136.5v341h20v-338q0 -84 46 -126t117 -42q88 0 137.5 62t49.5 153v291h20zM370 732h29l-146 -144h-15z" />
    <glyph glyph-name="ucircumflex" unicode="&#xfb;" 
d="M445 514v-514h-20v127h-2q-14 -62 -63 -100.5t-122 -38.5q-82 0 -132.5 48.5t-50.5 136.5v341h20v-338q0 -84 46 -126t117 -42q88 0 137.5 62t49.5 153v291h20zM369 591h-20l-103 123l-99 -123h-20l113 139h15z" />
    <glyph glyph-name="udieresis" unicode="&#xfc;" 
d="M445 514v-514h-20v127h-2q-14 -62 -63 -100.5t-122 -38.5q-82 0 -132.5 48.5t-50.5 136.5v341h20v-338q0 -84 46 -126t117 -42q88 0 137.5 62t49.5 153v291h20zM336 614h-20v81h20v-81zM180 614h-20v81h20v-81z" />
    <glyph glyph-name="yacute" unicode="&#xfd;" horiz-adv-x="407" 
d="M214 27l184 487h21l-237 -619q-10 -25 -23.5 -40t-33 -22t-35.5 -8.5t-44 -1.5v20q56 0 79.5 11t40.5 55l37 96l-215 509h22zM337 732h29l-146 -144h-15z" />
    <glyph glyph-name="thorn" unicode="&#xfe;" horiz-adv-x="537" 
d="M75 144v-321h-20v891h20v-344h2q21 72 73 114t133 42q105 0 162 -74t57 -194q0 -75 -22 -134t-73 -97.5t-124 -38.5q-78 0 -133 42.5t-73 113.5h-2zM482 258q0 107 -50 177.5t-149 70.5q-100 0 -154 -71t-54 -177q0 -117 57.5 -183.5t150.5 -66.5q72 0 118.5 39
t63.5 92.5t17 118.5z" />
    <glyph glyph-name="ydieresis" unicode="&#xff;" horiz-adv-x="407" 
d="M214 27l184 487h21l-237 -619q-10 -25 -23.5 -40t-33 -22t-35.5 -8.5t-44 -1.5v20q56 0 79.5 11t40.5 55l37 96l-215 509h22zM302 614h-20v81h20v-81zM146 614h-20v81h20v-81z" />
    <glyph glyph-name="Amacron" unicode="&#x100;" horiz-adv-x="575" 
d="M470 235h-364l-95 -235h-23l290 714h26l282 -714h-22zM114 255h348l-170 439h-2zM407 850v-20h-232v20h232z" />
    <glyph glyph-name="amacron" unicode="&#x101;" horiz-adv-x="481" 
d="M74 355h-20q4 76 54 123.5t142 47.5q166 0 170 -147v-327q0 -18 10.5 -26.5t25 -7.5t29.5 2v-20q-10 -1 -30 -1q-55 0 -55 51v67h-2q-17 -53 -72.5 -91t-131.5 -38q-79 0 -125.5 36t-46.5 103q0 37 10.5 64.5t26.5 43.5t41 26t47.5 14t51.5 6q125 7 152 15q46 24 49 68
q0 28 -4.5 49t-18.5 44t-46 36t-81 13q-80 0 -125.5 -39t-50.5 -112zM400 207v95h-2q-5 -8 -14.5 -14t-23 -10t-26 -6.5t-32 -4t-33 -2.5t-36 -2t-34.5 -2q-35 -2 -59.5 -8t-48.5 -19.5t-36.5 -40t-12.5 -66.5q0 -50 36 -84.5t114 -34.5q96 0 152 59t56 140zM361 660v-20
h-232v20h232z" />
    <glyph glyph-name="Abreve" unicode="&#x102;" horiz-adv-x="575" 
d="M470 235h-364l-95 -235h-23l290 714h26l282 -714h-22zM114 255h348l-170 439h-2zM168 904h20q5 -39 32.5 -63t67.5 -24q44 0 72.5 21.5t33.5 65.5h20q-6 -50 -40 -78.5t-86 -28.5q-49 0 -81.5 29.5t-38.5 77.5z" />
    <glyph glyph-name="abreve" unicode="&#x103;" horiz-adv-x="481" 
d="M74 355h-20q4 76 54 123.5t142 47.5q166 0 170 -147v-327q0 -18 10.5 -26.5t25 -7.5t29.5 2v-20q-10 -1 -30 -1q-55 0 -55 51v67h-2q-17 -53 -72.5 -91t-131.5 -38q-79 0 -125.5 36t-46.5 103q0 37 10.5 64.5t26.5 43.5t41 26t47.5 14t51.5 6q125 7 152 15q46 24 49 68
q0 28 -4.5 49t-18.5 44t-46 36t-81 13q-80 0 -125.5 -39t-50.5 -112zM400 207v95h-2q-5 -8 -14.5 -14t-23 -10t-26 -6.5t-32 -4t-33 -2.5t-36 -2t-34.5 -2q-35 -2 -59.5 -8t-48.5 -19.5t-36.5 -40t-12.5 -66.5q0 -50 36 -84.5t114 -34.5q96 0 152 59t56 140zM119 714h20
q5 -39 32.5 -63t67.5 -24q44 0 72.5 21.5t33.5 65.5h20q-6 -50 -40 -78.5t-86 -28.5q-49 0 -81.5 29.5t-38.5 77.5z" />
    <glyph glyph-name="Aogonek" unicode="&#x104;" horiz-adv-x="575" 
d="M470 235h-364l-95 -235h-23l290 714h26l282 -714q-54 -45 -75.5 -72t-21.5 -51q0 -19 14 -32t37 -13q47 0 75 32l17 -12q-39 -40 -92 -40q-36 0 -55.5 17.5t-19.5 45.5q0 56 99 125zM114 255h348l-170 439h-2z" />
    <glyph glyph-name="aogonek" unicode="&#x105;" horiz-adv-x="481" 
d="M74 355h-20q4 76 54 123.5t142 47.5q166 0 170 -147v-327q0 -18 10.5 -26.5t25 -7.5t29.5 2v-20q-10 -1 -30 -1q-9 0 -13 1q-56 -44 -78 -71t-22 -52q0 -19 14 -32t37 -13q47 0 75 32l17 -12q-39 -40 -92 -40q-36 0 -55.5 17.5t-19.5 45.5q0 45 62 99q22 18 43 32
q-8 4 -15 13q-8 11 -8 31v67h-2q-17 -53 -72.5 -91t-131.5 -38q-79 0 -125.5 36t-46.5 103q0 37 10.5 64.5t26.5 43.5t41 26t47.5 14t51.5 6q125 7 152 15q46 24 49 68q0 28 -4.5 49t-18.5 44t-46 36t-81 13q-80 0 -125.5 -39t-50.5 -112zM400 207v95h-2q-5 -8 -14.5 -14
t-23 -10t-26 -6.5t-32 -4t-33 -2.5t-36 -2t-34.5 -2q-35 -2 -59.5 -8t-48.5 -19.5t-36.5 -40t-12.5 -66.5q0 -50 36 -84.5t114 -34.5q96 0 152 59t56 140z" />
    <glyph glyph-name="Cacute" unicode="&#x106;" horiz-adv-x="685" 
d="M642 280h20q-19 -134 -101 -215.5t-213 -81.5q-142 0 -232.5 104t-90.5 264q0 54 11.5 106t37.5 102t63.5 88t95.5 61t128 23q67 0 123 -23.5t89.5 -59.5t52.5 -74.5t20 -73.5h-20q-6 82 -80 146.5t-185 64.5q-68 0 -123 -23.5t-90 -60.5t-59 -85.5t-34 -96t-10 -94.5
q0 -143 82 -245.5t221 -102.5q124 0 201 77t93 200zM476 922h29l-146 -144h-15z" />
    <glyph glyph-name="cacute" unicode="&#x107;" 
d="M449 175h20q-8 -86 -65.5 -136.5t-144.5 -50.5q-106 0 -167 74t-61 184q0 119 61.5 199.5t178.5 80.5q75 0 130 -44.5t64 -123.5h-20q-12 72 -59.5 110t-114.5 38q-59 0 -103 -23t-68.5 -62t-36.5 -83t-12 -92q0 -99 55.5 -168.5t152.5 -69.5q77 0 130.5 45.5t59.5 121.5
zM380 732h29l-146 -144h-15z" />
    <glyph glyph-name="Ccircumflex" unicode="&#x108;" horiz-adv-x="685" 
d="M642 280h20q-19 -134 -101 -215.5t-213 -81.5q-142 0 -232.5 104t-90.5 264q0 54 11.5 106t37.5 102t63.5 88t95.5 61t128 23q67 0 123 -23.5t89.5 -59.5t52.5 -74.5t20 -73.5h-20q-6 82 -80 146.5t-185 64.5q-68 0 -123 -23.5t-90 -60.5t-59 -85.5t-34 -96t-10 -94.5
q0 -143 82 -245.5t221 -102.5q124 0 201 77t93 200zM476 781h-20l-103 123l-99 -123h-20l113 139h15z" />
    <glyph glyph-name="ccircumflex" unicode="&#x109;" 
d="M449 175h20q-8 -86 -65.5 -136.5t-144.5 -50.5q-106 0 -167 74t-61 184q0 119 61.5 199.5t178.5 80.5q75 0 130 -44.5t64 -123.5h-20q-12 72 -59.5 110t-114.5 38q-59 0 -103 -23t-68.5 -62t-36.5 -83t-12 -92q0 -99 55.5 -168.5t152.5 -69.5q77 0 130.5 45.5t59.5 121.5
zM386 591h-20l-103 123l-99 -123h-20l113 139h15z" />
    <glyph glyph-name="Cdotaccent" unicode="&#x10a;" horiz-adv-x="685" 
d="M642 280h20q-19 -134 -101 -215.5t-213 -81.5q-142 0 -232.5 104t-90.5 264q0 54 11.5 106t37.5 102t63.5 88t95.5 61t128 23q67 0 123 -23.5t89.5 -59.5t52.5 -74.5t20 -73.5h-20q-6 82 -80 146.5t-185 64.5q-68 0 -123 -23.5t-90 -60.5t-59 -85.5t-34 -96t-10 -94.5
q0 -143 82 -245.5t221 -102.5q124 0 201 77t93 200zM344 885h20v-81h-20v81z" />
    <glyph glyph-name="cdotaccent" unicode="&#x10b;" 
d="M449 175h20q-8 -86 -65.5 -136.5t-144.5 -50.5q-106 0 -167 74t-61 184q0 119 61.5 199.5t178.5 80.5q75 0 130 -44.5t64 -123.5h-20q-12 72 -59.5 110t-114.5 38q-59 0 -103 -23t-68.5 -62t-36.5 -83t-12 -92q0 -99 55.5 -168.5t152.5 -69.5q77 0 130.5 45.5t59.5 121.5
zM257 695h20v-81h-20v81z" />
    <glyph glyph-name="Ccaron" unicode="&#x10c;" horiz-adv-x="685" 
d="M642 280h20q-19 -134 -101 -215.5t-213 -81.5q-142 0 -232.5 104t-90.5 264q0 54 11.5 106t37.5 102t63.5 88t95.5 61t128 23q67 0 123 -23.5t89.5 -59.5t52.5 -74.5t20 -73.5h-20q-6 82 -80 146.5t-185 64.5q-68 0 -123 -23.5t-90 -60.5t-59 -85.5t-34 -96t-10 -94.5
q0 -143 82 -245.5t221 -102.5q124 0 201 77t93 200zM234 920h20l103 -123l99 123h20l-113 -139h-15z" />
    <glyph glyph-name="ccaron" unicode="&#x10d;" 
d="M449 175h20q-8 -86 -65.5 -136.5t-144.5 -50.5q-106 0 -167 74t-61 184q0 119 61.5 199.5t178.5 80.5q75 0 130 -44.5t64 -123.5h-20q-12 72 -59.5 110t-114.5 38q-59 0 -103 -23t-68.5 -62t-36.5 -83t-12 -92q0 -99 55.5 -168.5t152.5 -69.5q77 0 130.5 45.5t59.5 121.5
zM137 730h20l103 -123l99 123h20l-113 -139h-15z" />
    <glyph glyph-name="Dcaron" unicode="&#x10e;" horiz-adv-x="648" 
d="M74 694v-674h204q135 0 222.5 86.5t87.5 250.5q0 77 -16.5 137t-43.5 97t-65.5 61t-78 33t-85.5 9h-225zM54 0v714h250q58 0 108.5 -17t96 -55.5t72.5 -111.5t27 -173q0 -93 -27.5 -163.5t-75.5 -111.5t-106.5 -61.5t-125.5 -20.5h-219zM144 920h20l103 -123l99 123h20
l-113 -139h-15z" />
    <glyph glyph-name="dcaron" unicode="&#x10f;" horiz-adv-x="589" 
d="M455 370v344h20v-714h-20v144h-2q-21 -70 -75.5 -113t-130.5 -43q-100 0 -159.5 75t-59.5 193q0 114 58.5 192t160.5 78q80 0 134 -42t72 -114h2zM455 256q0 118 -56.5 184t-151.5 66q-66 0 -113 -38.5t-66.5 -93.5t-19.5 -118q0 -105 52 -176.5t147 -71.5q96 0 152 72
t56 176zM576 714h29l-65 -144h-15z" />
    <glyph glyph-name="Dcroat" unicode="&#x110;" horiz-adv-x="648" 
d="M371 362h-297v-342h204q135 0 222.5 86.5t87.5 250.5q0 77 -16.5 137t-43.5 97t-65.5 61t-78 33t-85.5 9h-225v-312h297v-20zM54 362h-64v20h64v332h250q58 0 108.5 -17t96 -55.5t72.5 -111.5t27 -173q0 -93 -27.5 -163.5t-75.5 -111.5t-106.5 -61.5t-125.5 -20.5h-219
v362z" />
    <glyph glyph-name="dcroat" unicode="&#x111;" horiz-adv-x="547" 
d="M455 633v81h20v-81h72v-20h-72v-613h-20v144h-2q-21 -70 -75.5 -113t-130.5 -43q-100 0 -159.5 75t-59.5 193q0 114 58.5 192t160.5 78q80 0 134 -42t72 -114h2v243h-179v20h179zM455 256q0 118 -56.5 184t-151.5 66q-66 0 -113 -38.5t-66.5 -93.5t-19.5 -118
q0 -105 52 -176.5t147 -71.5q96 0 152 72t56 176z" />
    <glyph glyph-name="Emacron" unicode="&#x112;" horiz-adv-x="537" 
d="M74 362v-342h458v-20h-478v714h474v-20h-454v-312h427v-20h-427zM403 850v-20h-232v20h232z" />
    <glyph glyph-name="emacron" unicode="&#x113;" 
d="M475 253h-430q2 -112 51 -178.5t152 -66.5q82 0 135 43.5t66 126.5h20q-10 -87 -70.5 -138.5t-148.5 -51.5q-113 -2 -169 72.5t-56 196.5q0 123 66.5 196t158.5 73q113 0 171 -79.5t54 -193.5zM45 273h410q0 99 -53.5 166t-149.5 67q-85 0 -143 -63.5t-64 -169.5z
M369 660v-20h-232v20h232z" />
    <glyph glyph-name="Ebreve" unicode="&#x114;" horiz-adv-x="537" 
d="M74 362v-342h458v-20h-478v714h474v-20h-454v-312h427v-20h-427zM162 904h20q5 -39 32.5 -63t67.5 -24q44 0 72.5 21.5t33.5 65.5h20q-6 -50 -40 -78.5t-86 -28.5q-49 0 -81.5 29.5t-38.5 77.5z" />
    <glyph glyph-name="ebreve" unicode="&#x115;" 
d="M475 253h-430q2 -112 51 -178.5t152 -66.5q82 0 135 43.5t66 126.5h20q-10 -87 -70.5 -138.5t-148.5 -51.5q-113 -2 -169 72.5t-56 196.5q0 123 66.5 196t158.5 73q113 0 171 -79.5t54 -193.5zM45 273h410q0 99 -53.5 166t-149.5 67q-85 0 -143 -63.5t-64 -169.5z
M131 714h20q5 -39 32.5 -63t67.5 -24q44 0 72.5 21.5t33.5 65.5h20q-6 -50 -40 -78.5t-86 -28.5q-49 0 -81.5 29.5t-38.5 77.5z" />
    <glyph glyph-name="Edotaccent" unicode="&#x116;" horiz-adv-x="537" 
d="M74 362v-342h458v-20h-478v714h474v-20h-454v-312h427v-20h-427zM276 885h20v-81h-20v81z" />
    <glyph glyph-name="edotaccent" unicode="&#x117;" 
d="M475 253h-430q2 -112 51 -178.5t152 -66.5q82 0 135 43.5t66 126.5h20q-10 -87 -70.5 -138.5t-148.5 -51.5q-113 -2 -169 72.5t-56 196.5q0 123 66.5 196t158.5 73q113 0 171 -79.5t54 -193.5zM45 273h410q0 99 -53.5 166t-149.5 67q-85 0 -143 -63.5t-64 -169.5z
M240 695h20v-81h-20v81z" />
    <glyph glyph-name="Eogonek" unicode="&#x118;" horiz-adv-x="537" 
d="M532 0h-42q-57 -44 -79 -71t-22 -52q0 -19 14 -32t37 -13q47 0 75 32l17 -12q-39 -40 -92 -40q-36 0 -55.5 17.5t-19.5 45.5q0 57 96 125h-407v714h474v-20h-454v-312h427v-20h-427v-342h458v-20z" />
    <glyph glyph-name="eogonek" unicode="&#x119;" 
d="M475 253h-430q2 -112 51 -178.5t152 -66.5q82 0 135 43.5t66 126.5h20q-7 -65 -44 -111t-94 -66q-25 -8 -48 -11q-45 -36 -65 -61q-22 -26 -22 -52q0 -19 14 -32t37 -13q47 0 75 32l17 -12q-39 -40 -92 -40q-36 0 -55.5 17.5t-19.5 45.5q0 45 62 99q2 2 5 4.5t6.5 5
t5.5 4.5h-1q-113 -2 -169 72.5t-56 196.5q0 123 66.5 196t158.5 73q113 0 171 -79.5t54 -193.5zM45 273h410q0 99 -53.5 166t-149.5 67q-85 0 -143 -63.5t-64 -169.5z" />
    <glyph glyph-name="Ecaron" unicode="&#x11a;" horiz-adv-x="537" 
d="M74 362v-342h458v-20h-478v714h474v-20h-454v-312h427v-20h-427zM168 920h20l103 -123l99 123h20l-113 -139h-15z" />
    <glyph glyph-name="ecaron" unicode="&#x11b;" 
d="M475 253h-430q2 -112 51 -178.5t152 -66.5q82 0 135 43.5t66 126.5h20q-10 -87 -70.5 -138.5t-148.5 -51.5q-113 -2 -169 72.5t-56 196.5q0 123 66.5 196t158.5 73q113 0 171 -79.5t54 -193.5zM45 273h410q0 99 -53.5 166t-149.5 67q-85 0 -143 -63.5t-64 -169.5z
M130 730h20l103 -123l99 123h20l-113 -139h-15z" />
    <glyph glyph-name="Gcircumflex" unicode="&#x11c;" horiz-adv-x="722" 
d="M654 314h-277v20h297v-335h-20v178h-2q-28 -90 -104 -142t-181 -52q-159 0 -247 106.5t-88 267.5t90.5 267.5t244.5 106.5q120 0 199 -65t97 -175h-20q-18 101 -92 160.5t-184 59.5q-145 0 -230 -101t-85 -253q0 -154 83 -254t235 -100q120 0 202 78t82 196v37zM491 781
h-20l-103 123l-99 -123h-20l113 139h15z" />
    <glyph glyph-name="gcircumflex" unicode="&#x11d;" horiz-adv-x="519" 
d="M446 17v155h-2q-16 -66 -74 -105t-128 -39q-102 0 -158 70.5t-56 175.5q0 109 58 180.5t163 71.5q72 0 125 -42t70 -107h2v137h20v-497q0 -104 -55.5 -155t-158.5 -51q-84 0 -139 40t-57 122h20q2 -72 51 -107t124 -35q195 0 195 186zM445 274q0 95 -52 163.5t-144 68.5
q-96 0 -148.5 -66.5t-52.5 -165.5t51 -162.5t142 -63.5q96 0 150 64.5t54 161.5zM387 591h-20l-103 123l-99 -123h-20l113 139h15z" />
    <glyph glyph-name="Gbreve" unicode="&#x11e;" horiz-adv-x="722" 
d="M654 314h-277v20h297v-335h-20v178h-2q-28 -90 -104 -142t-181 -52q-159 0 -247 106.5t-88 267.5t90.5 267.5t244.5 106.5q120 0 199 -65t97 -175h-20q-18 101 -92 160.5t-184 59.5q-145 0 -230 -101t-85 -253q0 -154 83 -254t235 -100q120 0 202 78t82 196v37zM242 904
h20q5 -39 32.5 -63t67.5 -24q44 0 72.5 21.5t33.5 65.5h20q-6 -50 -40 -78.5t-86 -28.5q-49 0 -81.5 29.5t-38.5 77.5z" />
    <glyph glyph-name="gbreve" unicode="&#x11f;" horiz-adv-x="519" 
d="M446 17v155h-2q-16 -66 -74 -105t-128 -39q-102 0 -158 70.5t-56 175.5q0 109 58 180.5t163 71.5q72 0 125 -42t70 -107h2v137h20v-497q0 -104 -55.5 -155t-158.5 -51q-84 0 -139 40t-57 122h20q2 -72 51 -107t124 -35q195 0 195 186zM445 274q0 95 -52 163.5t-144 68.5
q-96 0 -148.5 -66.5t-52.5 -165.5t51 -162.5t142 -63.5q96 0 150 64.5t54 161.5zM128 714h20q5 -39 32.5 -63t67.5 -24q44 0 72.5 21.5t33.5 65.5h20q-6 -50 -40 -78.5t-86 -28.5q-49 0 -81.5 29.5t-38.5 77.5z" />
    <glyph glyph-name="Gdotaccent" unicode="&#x120;" horiz-adv-x="722" 
d="M654 314h-277v20h297v-335h-20v178h-2q-28 -90 -104 -142t-181 -52q-159 0 -247 106.5t-88 267.5t90.5 267.5t244.5 106.5q120 0 199 -65t97 -175h-20q-18 101 -92 160.5t-184 59.5q-145 0 -230 -101t-85 -253q0 -154 83 -254t235 -100q120 0 202 78t82 196v37zM360 885
h20v-81h-20v81z" />
    <glyph glyph-name="gdotaccent" unicode="&#x121;" horiz-adv-x="519" 
d="M446 17v155h-2q-16 -66 -74 -105t-128 -39q-102 0 -158 70.5t-56 175.5q0 109 58 180.5t163 71.5q72 0 125 -42t70 -107h2v137h20v-497q0 -104 -55.5 -155t-158.5 -51q-84 0 -139 40t-57 122h20q2 -72 51 -107t124 -35q195 0 195 186zM445 274q0 95 -52 163.5t-144 68.5
q-96 0 -148.5 -66.5t-52.5 -165.5t51 -162.5t142 -63.5q96 0 150 64.5t54 161.5zM248 695h20v-81h-20v81z" />
    <glyph glyph-name="Gcommaaccent" unicode="&#x122;" horiz-adv-x="722" 
d="M654 314h-277v20h297v-335h-20v178h-2q-28 -90 -104 -142t-181 -52q-159 0 -247 106.5t-88 267.5t90.5 267.5t244.5 106.5q120 0 199 -65t97 -175h-20q-18 101 -92 160.5t-184 59.5q-145 0 -230 -101t-85 -253q0 -154 83 -254t235 -100q120 0 202 78t82 196v37zM357 -50
h20v-78q0 -55 -58 -61v16q38 8 38 51v72z" />
    <glyph glyph-name="gcommaaccent" unicode="&#x123;" horiz-adv-x="519" 
d="M446 17v155h-2q-16 -66 -74 -105t-128 -39q-102 0 -158 70.5t-56 175.5q0 109 58 180.5t163 71.5q72 0 125 -42t70 -107h2v137h20v-497q0 -104 -55.5 -155t-158.5 -51q-84 0 -139 40t-57 122h20q2 -72 51 -107t124 -35q195 0 195 186zM445 274q0 95 -52 163.5t-144 68.5
q-96 0 -148.5 -66.5t-52.5 -165.5t51 -162.5t142 -63.5q96 0 150 64.5t54 161.5zM262 616h-20v78q0 55 58 61v-16q-38 -8 -38 -51v-72z" />
    <glyph glyph-name="Hcircumflex" unicode="&#x124;" horiz-adv-x="648" 
d="M574 362h-500v-362h-20v714h20v-332h500v332h20v-714h-20v362zM446 781h-20l-103 123l-99 -123h-20l113 139h15z" />
    <glyph glyph-name="hcircumflex" unicode="&#x125;" 
d="M55 0v714h20v-327h2q14 62 63 100.5t122 38.5q82 0 132.5 -48.5t50.5 -136.5v-341h-20v338q0 84 -46 126t-117 42q-88 0 -137.5 -62t-49.5 -153v-291h-20zM367 781h-20l-103 123l-99 -123h-20l113 139h15z" />
    <glyph glyph-name="Hbar" unicode="&#x126;" horiz-adv-x="648" 
d="M574 362h-500v-362h-20v714h20v-200h500v200h20v-714h-20v362zM74 382h500v112h-500v-112z" />
    <glyph glyph-name="hbar" unicode="&#x127;" horiz-adv-x="510" 
d="M65 633v81h20v-81h174v-20h-174v-226h2q14 62 63 100.5t122 38.5q82 0 132.5 -48.5t50.5 -136.5v-341h-20v338q0 84 -46 126t-117 42q-88 0 -137.5 -62t-49.5 -153v-291h-20v613h-67v20h67z" />
    <glyph glyph-name="Itilde" unicode="&#x128;" horiz-adv-x="128" 
d="M54 0v714h20v-714h-20zM-48 805h-20q2 31 21 55t47 24q24 0 66 -29t61 -29q39 0 49 55h20q-11 -75 -69 -75q-26 0 -66 29t-61 29t-33.5 -18t-14.5 -41z" />
    <glyph glyph-name="itilde" unicode="&#x129;" horiz-adv-x="130" 
d="M75 0h-20v514h20v-514zM-48 615h-20q2 31 21 55t47 24q24 0 66 -29t61 -29q39 0 49 55h20q-11 -75 -69 -75q-26 0 -66 29t-61 29t-33.5 -18t-14.5 -41z" />
    <glyph glyph-name="Imacron" unicode="&#x12a;" horiz-adv-x="128" 
d="M54 0v714h20v-714h-20zM180 850v-20h-232v20h232z" />
    <glyph glyph-name="imacron" unicode="&#x12b;" horiz-adv-x="130" 
d="M75 0h-20v514h20v-514zM180 660v-20h-232v20h232z" />
    <glyph glyph-name="Iogonek" unicode="&#x12e;" horiz-adv-x="128" 
d="M54 0v714h20v-714h-20zM54 0h20q-43 -43 -60.5 -70t-17.5 -53q0 -19 12.5 -32t33.5 -13q42 0 68 32l15 -12q-34 -40 -83 -40q-32 0 -50 17.5t-18 45.5q0 35 28 72q16 19 52 53z" />
    <glyph glyph-name="iogonek" unicode="&#x12f;" horiz-adv-x="130" 
d="M75 514v-514h-20v514h20zM55 0h20q-43 -43 -60.5 -70t-17.5 -53q0 -19 12.5 -32t33.5 -13q42 0 68 32l15 -12q-34 -40 -83 -40q-32 0 -50 17.5t-18 45.5q0 35 28 72q16 19 52 53zM75 714v-101h-20v101h20z" />
    <glyph glyph-name="Idotaccent" unicode="&#x130;" horiz-adv-x="128" 
d="M54 0v714h20v-714h-20zM54 901h20v-81h-20v81z" />
    <glyph glyph-name="dotlessi" unicode="&#x131;" horiz-adv-x="130" 
d="M75 0h-20v514h20v-514z" />
    <glyph glyph-name="Jcircumflex" unicode="&#x134;" horiz-adv-x="463" 
d="M384 201v513h20v-528q0 -203 -196 -203q-97 0 -143.5 53t-46.5 142v43h20v-43q0 -175 170 -175q89 0 132.5 45t43.5 153zM510 781h-20l-103 123l-99 -123h-20l113 139h15z" />
    <glyph glyph-name="jcircumflex" unicode="&#x135;" horiz-adv-x="130" 
d="M75 514v-589q0 -65 -28.5 -83.5t-95.5 -18.5v20q63 0 83.5 14.5t20.5 74.5v582h20zM182 591h-20l-103 123l-99 -123h-20l113 139h15z" />
    <glyph glyph-name="Kcommaaccent" unicode="&#x136;" horiz-adv-x="593" 
d="M238 398l-164 -145v-253h-20v714h20v-434l495 434h30l-345 -304l365 -410h-27zM296 -50h20v-78q0 -55 -58 -61v16q38 8 38 51v72z" />
    <glyph glyph-name="kcommaaccent" unicode="&#x137;" horiz-adv-x="444" 
d="M208 304l-133 -110v-194h-20v714h20v-495l355 295h29l-236 -196l253 -318h-27zM229 -50h20v-78q0 -55 -58 -61v16q38 8 38 51v72z" />
    <glyph glyph-name="Lacute" unicode="&#x139;" horiz-adv-x="481" 
d="M74 20h417v-20h-437v714h20v-694zM187 922h29l-146 -144h-15z" />
    <glyph glyph-name="lacute" unicode="&#x13a;" horiz-adv-x="130" 
d="M55 0v714h20v-714h-20zM187 922h29l-146 -144h-15z" />
    <glyph glyph-name="Lcommaaccent" unicode="&#x13b;" horiz-adv-x="481" 
d="M74 20h417v-20h-437v714h20v-694zM254 -50h20v-78q0 -55 -58 -61v16q38 8 38 51v72z" />
    <glyph glyph-name="lcommaaccent" unicode="&#x13c;" horiz-adv-x="130" 
d="M55 0v714h20v-714h-20zM56 -50h20v-78q0 -55 -58 -61v16q38 8 38 51v72z" />
    <glyph glyph-name="Lcaron" unicode="&#x13d;" horiz-adv-x="481" 
d="M74 20h417v-20h-437v714h20v-694zM229 714h29l-65 -144h-15z" />
    <glyph glyph-name="lcaron" unicode="&#x13e;" horiz-adv-x="188" 
d="M55 0v714h20v-714h-20zM175 714h29l-65 -144h-15z" />
    <glyph glyph-name="Ldot" unicode="&#x13f;" horiz-adv-x="481" 
d="M74 20h417v-20h-437v714h20v-694zM264 514h20v-81h-20v81z" />
    <glyph glyph-name="ldot" unicode="&#x140;" horiz-adv-x="180" 
d="M55 0v714h20v-714h-20zM130 514h20v-81h-20v81z" />
    <glyph glyph-name="Lslash" unicode="&#x141;" horiz-adv-x="481" 
d="M491 0h-437v269l-74 -52v24l74 52v421h20v-407l248 174v-24l-248 -174v-263h417v-20z" />
    <glyph glyph-name="lslash" unicode="&#x142;" horiz-adv-x="130" 
d="M55 714h20v-297l73 63v-25l-73 -63v-392h-20v375l-73 -63v25l73 63v314z" />
    <glyph glyph-name="Nacute" unicode="&#x143;" horiz-adv-x="648" 
d="M54 0v714h30l488 -689h2v689h20v-714h-30l-488 689h-2v-689h-20zM446 922h29l-146 -144h-15z" />
    <glyph glyph-name="nacute" unicode="&#x144;" 
d="M55 0v514h20v-127h2q14 62 63 100.5t122 38.5q82 0 132.5 -48.5t50.5 -136.5v-341h-20v338q0 84 -46 126t-117 42q-88 0 -137.5 -62t-49.5 -153v-291h-20zM361 732h29l-146 -144h-15z" />
    <glyph glyph-name="Ncommaaccent" unicode="&#x145;" horiz-adv-x="648" 
d="M54 0v714h30l488 -689h2v689h20v-714h-30l-488 689h-2v-689h-20zM306 -50h20v-78q0 -55 -58 -61v16q38 8 38 51v72z" />
    <glyph glyph-name="ncommaaccent" unicode="&#x146;" 
d="M55 0v514h20v-127h2q14 62 63 100.5t122 38.5q82 0 132.5 -48.5t50.5 -136.5v-341h-20v338q0 84 -46 126t-117 42q-88 0 -137.5 -62t-49.5 -153v-291h-20zM240 -50h20v-78q0 -55 -58 -61v16q38 8 38 51v72z" />
    <glyph glyph-name="Ncaron" unicode="&#x147;" horiz-adv-x="648" 
d="M54 0v714h30l488 -689h2v689h20v-714h-30l-488 689h-2v-689h-20zM204 920h20l103 -123l99 123h20l-113 -139h-15z" />
    <glyph glyph-name="ncaron" unicode="&#x148;" 
d="M55 0v514h20v-127h2q14 62 63 100.5t122 38.5q82 0 132.5 -48.5t50.5 -136.5v-341h-20v338q0 84 -46 126t-117 42q-88 0 -137.5 -62t-49.5 -153v-291h-20zM128 730h20l103 -123l99 123h20l-113 -139h-15z" />
    <glyph glyph-name="Omacron" unicode="&#x14c;" horiz-adv-x="721" 
d="M32 357q0 159 87.5 266.5t241.5 107.5t241.5 -107.5t87.5 -266.5t-87.5 -266.5t-241.5 -107.5t-241.5 107.5t-87.5 266.5zM52 357q2 -157 84.5 -255.5t224.5 -98.5q141 0 224 98.5t85 255.5q-2 157 -85 255.5t-224 98.5q-142 0 -224.5 -98.5t-84.5 -255.5zM480 850v-20
h-232v20h232z" />
    <glyph glyph-name="omacron" unicode="&#x14d;" horiz-adv-x="519" 
d="M48 257q0 -104 56 -176.5t156 -72.5q98 0 154.5 72.5t56.5 176.5q0 102 -56.5 175.5t-154.5 73.5q-99 0 -155.5 -73t-56.5 -176zM28 257q0 112 62 190.5t170 78.5q107 0 169 -79t62 -190q0 -112 -62 -190.5t-170 -78.5t-169.5 78.5t-61.5 190.5zM375 660v-20h-232v20h232
z" />
    <glyph glyph-name="Obreve" unicode="&#x14e;" horiz-adv-x="721" 
d="M32 357q0 159 87.5 266.5t241.5 107.5t241.5 -107.5t87.5 -266.5t-87.5 -266.5t-241.5 -107.5t-241.5 107.5t-87.5 266.5zM52 357q2 -157 84.5 -255.5t224.5 -98.5q141 0 224 98.5t85 255.5q-2 157 -85 255.5t-224 98.5q-142 0 -224.5 -98.5t-84.5 -255.5zM241 904h20
q5 -39 32.5 -63t67.5 -24q44 0 72.5 21.5t33.5 65.5h20q-6 -50 -40 -78.5t-86 -28.5q-49 0 -81.5 29.5t-38.5 77.5z" />
    <glyph glyph-name="obreve" unicode="&#x14f;" horiz-adv-x="519" 
d="M48 257q0 -104 56 -176.5t156 -72.5q98 0 154.5 72.5t56.5 176.5q0 102 -56.5 175.5t-154.5 73.5q-99 0 -155.5 -73t-56.5 -176zM28 257q0 112 62 190.5t170 78.5q107 0 169 -79t62 -190q0 -112 -62 -190.5t-170 -78.5t-169.5 78.5t-61.5 190.5zM136 714h20
q5 -39 32.5 -63t67.5 -24q44 0 72.5 21.5t33.5 65.5h20q-6 -50 -40 -78.5t-86 -28.5q-49 0 -81.5 29.5t-38.5 77.5z" />
    <glyph glyph-name="Ohungarumlaut" unicode="&#x150;" horiz-adv-x="721" 
d="M32 357q0 159 87.5 266.5t241.5 107.5t241.5 -107.5t87.5 -266.5t-87.5 -266.5t-241.5 -107.5t-241.5 107.5t-87.5 266.5zM52 357q2 -157 84.5 -255.5t224.5 -98.5q141 0 224 98.5t85 255.5q-2 157 -85 255.5t-224 98.5q-142 0 -224.5 -98.5t-84.5 -255.5zM560 922h29
l-146 -144h-15zM410 922h29l-146 -144h-15z" />
    <glyph glyph-name="ohungarumlaut" unicode="&#x151;" horiz-adv-x="519" 
d="M48 257q0 -104 56 -176.5t156 -72.5q98 0 154.5 72.5t56.5 176.5q0 102 -56.5 175.5t-154.5 73.5q-99 0 -155.5 -73t-56.5 -176zM28 257q0 112 62 190.5t170 78.5q107 0 169 -79t62 -190q0 -112 -62 -190.5t-170 -78.5t-169.5 78.5t-61.5 190.5zM457 732h29l-146 -144
h-15zM307 732h29l-146 -144h-15z" />
    <glyph glyph-name="OE" unicode="&#x152;" horiz-adv-x="1019" 
d="M558 94v529q-47 48 -90 68t-106 20q-141 0 -224.5 -97.5t-85.5 -260.5q2 -155 85 -252.5t225 -97.5q119 0 196 91zM578 382h366v-20h-366v-342h414v-20h-434v65q-81 -82 -196 -82q-155 0 -242.5 106.5t-87.5 263.5q0 103 36 187t112.5 137.5t181.5 53.5q125 0 196 -82v65
h434v-20h-414v-312z" />
    <glyph glyph-name="oe" unicode="&#x153;" horiz-adv-x="890" 
d="M856 253h-402q-2 -245 192 -245q153 0 183 165h20q-15 -87 -66.5 -136t-136.5 -49t-137 44t-64 125h-2q-37 -169 -200 -169q-106 0 -158.5 78t-52.5 191q0 71 19 129t68.5 99t123.5 41q82 0 134.5 -48t64.5 -128h2q33 172 202 176q104 2 157 -72.5t53 -185.5v-15z
M434 257q0 108 -45.5 178.5t-145.5 70.5q-97 0 -144 -71.5t-47 -177.5q0 -104 47 -176.5t144 -72.5q53 0 91 20t59.5 56t31 78.5t9.5 94.5zM454 273h382q-2 103 -48 168t-141 65q-184 0 -193 -233z" />
    <glyph glyph-name="Racute" unicode="&#x154;" horiz-adv-x="611" 
d="M74 335v-335h-20v714h292q110 0 163 -44.5t55 -138.5q2 -71 -38 -119t-115 -65v-2q85 -11 113 -57t28 -141q0 -123 17 -147h-22q-15 33 -15 150q0 48 -6.5 79t-26 57t-58 37.5t-98.5 11.5h-269zM74 694v-339h267q87 0 145 45t58 133q-2 161 -193 161h-277zM381 922h29
l-146 -144h-15z" />
    <glyph glyph-name="racute" unicode="&#x155;" horiz-adv-x="259" 
d="M75 291v-291h-20v514h20v-127h2q16 63 66 102t136 37v-20q-67 4 -114.5 -27.5t-68.5 -80t-21 -107.5zM192 732h29l-146 -144h-15z" />
    <glyph glyph-name="Rcommaaccent" unicode="&#x156;" horiz-adv-x="611" 
d="M74 335v-335h-20v714h292q110 0 163 -44.5t55 -138.5q2 -71 -38 -119t-115 -65v-2q85 -11 113 -57t28 -141q0 -123 17 -147h-22q-15 33 -15 150q0 48 -6.5 79t-26 57t-58 37.5t-98.5 11.5h-269zM74 694v-339h267q87 0 145 45t58 133q-2 161 -193 161h-277zM287 -50h20
v-78q0 -55 -58 -61v16q38 8 38 51v72z" />
    <glyph glyph-name="rcommaaccent" unicode="&#x157;" horiz-adv-x="259" 
d="M75 291v-291h-20v514h20v-127h2q16 63 66 102t136 37v-20q-67 4 -114.5 -27.5t-68.5 -80t-21 -107.5zM56 -50h20v-78q0 -55 -58 -61v16q38 8 38 51v72z" />
    <glyph glyph-name="Rcaron" unicode="&#x158;" horiz-adv-x="611" 
d="M74 335v-335h-20v714h292q110 0 163 -44.5t55 -138.5q2 -71 -38 -119t-115 -65v-2q85 -11 113 -57t28 -141q0 -123 17 -147h-22q-15 33 -15 150q0 48 -6.5 79t-26 57t-58 37.5t-98.5 11.5h-269zM74 694v-339h267q87 0 145 45t58 133q-2 161 -193 161h-277zM155 920h20
l103 -123l99 123h20l-113 -139h-15z" />
    <glyph glyph-name="rcaron" unicode="&#x159;" horiz-adv-x="259" 
d="M75 291v-291h-20v514h20v-127h2q16 63 66 102t136 37v-20q-67 4 -114.5 -27.5t-68.5 -80t-21 -107.5zM35 730h20l103 -123l99 123h20l-113 -139h-15z" />
    <glyph glyph-name="Sacute" unicode="&#x15a;" horiz-adv-x="611" 
d="M551 514h-20q-7 197 -232 197q-41 0 -78 -8t-71 -25.5t-54.5 -51t-20.5 -79.5q0 -19 4 -35.5t9.5 -29t17 -24t20.5 -19.5t26.5 -16t28.5 -12.5t33.5 -10.5t34 -9t36.5 -8.5t36 -8.5q9 -2 38.5 -9.5t38.5 -10.5t33.5 -10.5t33.5 -12t27.5 -14t25.5 -18t19 -22t16 -28
t8 -33.5t4 -41q0 -94 -74.5 -143t-177.5 -49q-130 0 -205.5 62.5t-73.5 191.5h20q0 -234 259 -234q95 0 163.5 43.5t68.5 129.5q0 26 -7 48t-16 37.5t-27.5 28.5t-33 21t-40 16t-40.5 12t-44 10.5t-42 9.5q-114 26 -154 46q-86 44 -86 142q0 51 21.5 88t58 57t77.5 29.5
t87 9.5q241 0 252 -217zM417 922h29l-146 -144h-15z" />
    <glyph glyph-name="sacute" unicode="&#x15b;" horiz-adv-x="463" 
d="M410 362h-20q0 144 -166 144q-50 0 -84 -13.5t-47.5 -35t-18 -35.5t-4.5 -25q0 -66 57 -90q18 -7 132 -38q27 -7 35 -9t32 -10t32.5 -13.5t25 -16.5t22.5 -22.5t12 -29t6 -37.5q0 -49 -28.5 -82.5t-69 -47t-88.5 -13.5q-208 0 -208 188h20q0 -168 188 -168q65 0 115.5 30
t50.5 91q0 31 -11.5 52t-40.5 35t-47 20t-62 16q-11 3 -16 4q-81 20 -115 35q-62 27 -62 106q0 50 43 89.5t131 39.5q186 0 186 -164zM343 732h29l-146 -144h-15z" />
    <glyph glyph-name="Scircumflex" unicode="&#x15c;" horiz-adv-x="611" 
d="M551 514h-20q-7 197 -232 197q-41 0 -78 -8t-71 -25.5t-54.5 -51t-20.5 -79.5q0 -19 4 -35.5t9.5 -29t17 -24t20.5 -19.5t26.5 -16t28.5 -12.5t33.5 -10.5t34 -9t36.5 -8.5t36 -8.5q9 -2 38.5 -9.5t38.5 -10.5t33.5 -10.5t33.5 -12t27.5 -14t25.5 -18t19 -22t16 -28
t8 -33.5t4 -41q0 -94 -74.5 -143t-177.5 -49q-130 0 -205.5 62.5t-73.5 191.5h20q0 -234 259 -234q95 0 163.5 43.5t68.5 129.5q0 26 -7 48t-16 37.5t-27.5 28.5t-33 21t-40 16t-40.5 12t-44 10.5t-42 9.5q-114 26 -154 46q-86 44 -86 142q0 51 21.5 88t58 57t77.5 29.5
t87 9.5q241 0 252 -217zM428 781h-20l-103 123l-99 -123h-20l113 139h15z" />
    <glyph glyph-name="scircumflex" unicode="&#x15d;" horiz-adv-x="463" 
d="M410 362h-20q0 144 -166 144q-50 0 -84 -13.5t-47.5 -35t-18 -35.5t-4.5 -25q0 -66 57 -90q18 -7 132 -38q27 -7 35 -9t32 -10t32.5 -13.5t25 -16.5t22.5 -22.5t12 -29t6 -37.5q0 -49 -28.5 -82.5t-69 -47t-88.5 -13.5q-208 0 -208 188h20q0 -168 188 -168q65 0 115.5 30
t50.5 91q0 31 -11.5 52t-40.5 35t-47 20t-62 16q-11 3 -16 4q-81 20 -115 35q-62 27 -62 106q0 50 43 89.5t131 39.5q186 0 186 -164zM356 591h-20l-103 123l-99 -123h-20l113 139h15z" />
    <glyph glyph-name="Scedilla" unicode="&#x15e;" horiz-adv-x="611" 
d="M206 -170l9 19q36 -17 71 -17q31 0 50.5 15.5t19.5 39.5q0 43 -53 43q-32 0 -54 -13l-15 10l44 57q-38 3 -78 14q-80 22 -123.5 81.5t-42.5 157.5h20q0 -234 259 -234q95 0 163.5 43.5t68.5 129.5q0 26 -7 48t-16 37.5t-27.5 28.5t-33 21t-40 16t-40.5 12t-44 10.5
t-42 9.5q-114 26 -154 46q-86 44 -86 142q0 51 21.5 88t58 57t77.5 29.5t87 9.5q241 0 252 -217h-20q-7 197 -232 197q-41 0 -78 -8t-71 -25.5t-54.5 -51t-20.5 -79.5q0 -19 4 -35.5t9.5 -29t17 -24t20.5 -19.5t26.5 -16t28.5 -12.5t33.5 -10.5t34 -9t36.5 -8.5t36 -8.5
q9 -2 38.5 -9.5t38.5 -10.5t33.5 -10.5t33.5 -12t27.5 -14t25.5 -18t19 -22t16 -28t8 -33.5t4 -41q0 -94 -74.5 -143t-177.5 -49h-15l-28 -39q14 6 33 6q34 0 54.5 -15t21.5 -45q0 -34 -26.5 -56t-66.5 -22q-42 0 -80 18z" />
    <glyph glyph-name="Scedilla" unicode="&#xf6c1;" horiz-adv-x="611" 
d="M206 -170l9 19q36 -17 71 -17q31 0 50.5 15.5t19.5 39.5q0 43 -53 43q-32 0 -54 -13l-15 10l44 57q-38 3 -78 14q-80 22 -123.5 81.5t-42.5 157.5h20q0 -234 259 -234q95 0 163.5 43.5t68.5 129.5q0 26 -7 48t-16 37.5t-27.5 28.5t-33 21t-40 16t-40.5 12t-44 10.5
t-42 9.5q-114 26 -154 46q-86 44 -86 142q0 51 21.5 88t58 57t77.5 29.5t87 9.5q241 0 252 -217h-20q-7 197 -232 197q-41 0 -78 -8t-71 -25.5t-54.5 -51t-20.5 -79.5q0 -19 4 -35.5t9.5 -29t17 -24t20.5 -19.5t26.5 -16t28.5 -12.5t33.5 -10.5t34 -9t36.5 -8.5t36 -8.5
q9 -2 38.5 -9.5t38.5 -10.5t33.5 -10.5t33.5 -12t27.5 -14t25.5 -18t19 -22t16 -28t8 -33.5t4 -41q0 -94 -74.5 -143t-177.5 -49h-15l-28 -39q14 6 33 6q34 0 54.5 -15t21.5 -45q0 -34 -26.5 -56t-66.5 -22q-42 0 -80 18z" />
    <glyph glyph-name="scedilla" unicode="&#x15f;" horiz-adv-x="463" 
d="M134 -170l9 19q36 -17 71 -17q31 0 50.5 15.5t19.5 39.5q0 43 -53 43q-32 0 -54 -13l-15 10l48 62q-81 6 -127 44q-53 47 -53 143h20q0 -168 188 -168q65 0 115.5 30t50.5 91q0 31 -11.5 52t-40.5 35t-47 20t-62 16q-11 3 -16 4q-81 20 -115 35q-62 27 -62 106
q0 50 43 89.5t131 39.5q186 0 186 -164h-20q0 144 -166 144q-50 0 -84 -13.5t-47.5 -35t-18 -35.5t-4.5 -25q0 -66 57 -90q18 -7 132 -38q27 -7 35 -9t32 -10t32.5 -13.5t25 -16.5t22.5 -22.5t12 -29t6 -37.5q0 -49 -28.5 -82.5t-69 -47t-88.5 -13.5h-8l-32 -44q14 6 33 6
q34 0 54.5 -15t21.5 -45q0 -34 -26.5 -56t-66.5 -22q-42 0 -80 18z" />
    <glyph glyph-name="scedilla" unicode="&#xf6c2;" horiz-adv-x="463" 
d="M134 -170l9 19q36 -17 71 -17q31 0 50.5 15.5t19.5 39.5q0 43 -53 43q-32 0 -54 -13l-15 10l48 62q-81 6 -127 44q-53 47 -53 143h20q0 -168 188 -168q65 0 115.5 30t50.5 91q0 31 -11.5 52t-40.5 35t-47 20t-62 16q-11 3 -16 4q-81 20 -115 35q-62 27 -62 106
q0 50 43 89.5t131 39.5q186 0 186 -164h-20q0 144 -166 144q-50 0 -84 -13.5t-47.5 -35t-18 -35.5t-4.5 -25q0 -66 57 -90q18 -7 132 -38q27 -7 35 -9t32 -10t32.5 -13.5t25 -16.5t22.5 -22.5t12 -29t6 -37.5q0 -49 -28.5 -82.5t-69 -47t-88.5 -13.5h-8l-32 -44q14 6 33 6
q34 0 54.5 -15t21.5 -45q0 -34 -26.5 -56t-66.5 -22q-42 0 -80 18z" />
    <glyph glyph-name="Scaron" unicode="&#x160;" horiz-adv-x="611" 
d="M551 514h-20q-7 197 -232 197q-41 0 -78 -8t-71 -25.5t-54.5 -51t-20.5 -79.5q0 -19 4 -35.5t9.5 -29t17 -24t20.5 -19.5t26.5 -16t28.5 -12.5t33.5 -10.5t34 -9t36.5 -8.5t36 -8.5q9 -2 38.5 -9.5t38.5 -10.5t33.5 -10.5t33.5 -12t27.5 -14t25.5 -18t19 -22t16 -28
t8 -33.5t4 -41q0 -94 -74.5 -143t-177.5 -49q-130 0 -205.5 62.5t-73.5 191.5h20q0 -234 259 -234q95 0 163.5 43.5t68.5 129.5q0 26 -7 48t-16 37.5t-27.5 28.5t-33 21t-40 16t-40.5 12t-44 10.5t-42 9.5q-114 26 -154 46q-86 44 -86 142q0 51 21.5 88t58 57t77.5 29.5
t87 9.5q241 0 252 -217zM184 920h20l103 -123l99 123h20l-113 -139h-15z" />
    <glyph glyph-name="scaron" unicode="&#x161;" horiz-adv-x="463" 
d="M410 362h-20q0 144 -166 144q-50 0 -84 -13.5t-47.5 -35t-18 -35.5t-4.5 -25q0 -66 57 -90q18 -7 132 -38q27 -7 35 -9t32 -10t32.5 -13.5t25 -16.5t22.5 -22.5t12 -29t6 -37.5q0 -49 -28.5 -82.5t-69 -47t-88.5 -13.5q-208 0 -208 188h20q0 -168 188 -168q65 0 115.5 30
t50.5 91q0 31 -11.5 52t-40.5 35t-47 20t-62 16q-11 3 -16 4q-81 20 -115 35q-62 27 -62 106q0 50 43 89.5t131 39.5q186 0 186 -164zM112 730h20l103 -123l99 123h20l-113 -139h-15z" />
    <glyph glyph-name="Tcommaaccent" unicode="&#x162;" 
d="M240 694h-257v20h534v-20h-257v-694h-20v694zM241 -50h20v-78q0 -55 -58 -61v16q38 8 38 51v72z" />
    <glyph glyph-name="tcommaaccent" unicode="&#x163;" horiz-adv-x="241" 
d="M226 494h-116v-394q0 -27 6 -44.5t17.5 -24.5t21 -9t24.5 -2q37 0 44 3v-20q-36 -3 -49 -3q-84 0 -84 96v398h-95v20h95v162h20v-162h116v-20zM143 -50h20v-78q0 -55 -58 -61v16q38 8 38 51v72z" />
    <glyph glyph-name="Tcaron" unicode="&#x164;" 
d="M240 694h-257v20h534v-20h-257v-694h-20v694zM129 920h20l103 -123l99 123h20l-113 -139h-15z" />
    <glyph glyph-name="tcaron" unicode="&#x165;" horiz-adv-x="267" 
d="M254 714h29l-65 -144h-15zM226 494h-116v-394q0 -27 6 -44.5t17.5 -24.5t21 -9t24.5 -2q37 0 44 3v-20q-36 -3 -49 -3q-84 0 -84 96v398h-95v20h95v162h20v-162h116v-20z" />
    <glyph glyph-name="Tbar" unicode="&#x166;" 
d="M240 694h-257v20h534v-20h-257v-210h166v-20h-166v-464h-20v464h-166v20h166v210z" />
    <glyph glyph-name="tbar" unicode="&#x167;" horiz-adv-x="241" 
d="M226 494h-116v-148h123v-20h-123v-226q0 -27 6 -44.5t17.5 -24.5t21 -9t24.5 -2q37 0 44 3v-20q-36 -3 -49 -3q-84 0 -84 96v230h-103v20h103v148h-95v20h95v162h20v-162h116v-20z" />
    <glyph glyph-name="Utilde" unicode="&#x168;" horiz-adv-x="632" 
d="M558 266v448h20v-448q0 -142 -67 -212.5t-195 -70.5t-195 70.5t-67 212.5v448h20v-448q0 -263 242 -263t242 263zM209 805h-20q2 31 21 55t47 24q24 0 66 -29t61 -29q39 0 49 55h20q-11 -75 -69 -75q-26 0 -66 29t-61 29t-33.5 -18t-14.5 -41z" />
    <glyph glyph-name="utilde" unicode="&#x169;" 
d="M445 514v-514h-20v127h-2q-14 -62 -63 -100.5t-122 -38.5q-82 0 -132.5 48.5t-50.5 136.5v341h20v-338q0 -84 46 -126t117 -42q88 0 137.5 62t49.5 153v291h20zM138 615h-20q2 31 21 55t47 24q24 0 66 -29t61 -29q39 0 49 55h20q-11 -75 -69 -75q-26 0 -66 29t-61 29
t-33.5 -18t-14.5 -41z" />
    <glyph glyph-name="Umacron" unicode="&#x16a;" horiz-adv-x="632" 
d="M558 266v448h20v-448q0 -142 -67 -212.5t-195 -70.5t-195 70.5t-67 212.5v448h20v-448q0 -263 242 -263t242 263zM436 850v-20h-232v20h232z" />
    <glyph glyph-name="umacron" unicode="&#x16b;" 
d="M445 514v-514h-20v127h-2q-14 -62 -63 -100.5t-122 -38.5q-82 0 -132.5 48.5t-50.5 136.5v341h20v-338q0 -84 46 -126t117 -42q88 0 137.5 62t49.5 153v291h20zM366 660v-20h-232v20h232z" />
    <glyph glyph-name="Ubreve" unicode="&#x16c;" horiz-adv-x="632" 
d="M558 266v448h20v-448q0 -142 -67 -212.5t-195 -70.5t-195 70.5t-67 212.5v448h20v-448q0 -263 242 -263t242 263zM197 904h20q5 -39 32.5 -63t67.5 -24q44 0 72.5 21.5t33.5 65.5h20q-6 -50 -40 -78.5t-86 -28.5q-49 0 -81.5 29.5t-38.5 77.5z" />
    <glyph glyph-name="ubreve" unicode="&#x16d;" 
d="M445 514v-514h-20v127h-2q-14 -62 -63 -100.5t-122 -38.5q-82 0 -132.5 48.5t-50.5 136.5v341h20v-338q0 -84 46 -126t117 -42q88 0 137.5 62t49.5 153v291h20zM128 714h20q5 -39 32.5 -63t67.5 -24q44 0 72.5 21.5t33.5 65.5h20q-6 -50 -40 -78.5t-86 -28.5
q-49 0 -81.5 29.5t-38.5 77.5z" />
    <glyph glyph-name="Uring" unicode="&#x16e;" horiz-adv-x="632" 
d="M558 266v448h20v-448q0 -142 -67 -212.5t-195 -70.5t-195 70.5t-67 212.5v448h20v-448q0 -263 242 -263t242 263zM386 850q0 28 -20 48t-48 20t-48 -20t-20 -48t20 -48t48 -20t48 20t20 48zM406 850q0 -36 -26 -62t-62 -26t-62 26t-26 62t26 62t62 26t62 -26t26 -62z" />
    <glyph glyph-name="uring" unicode="&#x16f;" 
d="M445 514v-514h-20v127h-2q-14 -62 -63 -100.5t-122 -38.5q-82 0 -132.5 48.5t-50.5 136.5v341h20v-338q0 -84 46 -126t117 -42q88 0 137.5 62t49.5 153v291h20zM318 670q0 28 -20 48t-48 20t-48 -20t-20 -48t20 -48t48 -20t48 20t20 48zM338 670q0 -36 -26 -62t-62 -26
t-62 26t-26 62t26 62t62 26t62 -26t26 -62z" />
    <glyph glyph-name="Uhungarumlaut" unicode="&#x170;" horiz-adv-x="632" 
d="M558 266v448h20v-448q0 -142 -67 -212.5t-195 -70.5t-195 70.5t-67 212.5v448h20v-448q0 -263 242 -263t242 263zM519 922h29l-146 -144h-15zM369 922h29l-146 -144h-15z" />
    <glyph glyph-name="uhungarumlaut" unicode="&#x171;" 
d="M445 514v-514h-20v127h-2q-14 -62 -63 -100.5t-122 -38.5q-82 0 -132.5 48.5t-50.5 136.5v341h20v-338q0 -84 46 -126t117 -42q88 0 137.5 62t49.5 153v291h20zM447 732h29l-146 -144h-15zM297 732h29l-146 -144h-15z" />
    <glyph glyph-name="Uogonek" unicode="&#x172;" horiz-adv-x="632" 
d="M558 266v448h20v-448q0 -142 -68 -213q-62 -65 -173 -69q-41 -34 -57 -55q-22 -26 -22 -52q0 -19 14 -32t37 -13q47 0 75 32l17 -12q-39 -40 -92 -40q-36 0 -55.5 17.5t-19.5 45.5q0 45 62 99q3 3 11 9q-122 3 -186 70q-67 70 -67 213v448h20v-448q0 -263 242 -263
t242 263z" />
    <glyph glyph-name="uogonek" unicode="&#x173;" 
d="M445 514v-514h-20v127h-2q-11 -45 -41 -79t-75 -49q-17 -6 -30 -8q-46 -36 -67 -62q-22 -26 -22 -52q0 -19 14 -32t37 -13q47 0 75 32l17 -12q-39 -40 -92 -40q-36 0 -55.5 17.5t-19.5 45.5q0 45 62 99q2 2 5 4.5t6.5 5t5.5 4.5h-5q-82 0 -132.5 48.5t-50.5 136.5v341h20
v-338q0 -84 46 -126t117 -42q88 0 137.5 62t49.5 153v291h20z" />
    <glyph glyph-name="Wcircumflex" unicode="&#x174;" horiz-adv-x="870" 
d="M661 25l199 689h20l-207 -714h-27l-210 689h-2l-206 -689h-27l-211 714h21l202 -689h2l206 689h29l209 -689h2zM556 781h-20l-103 123l-99 -123h-20l113 139h15z" />
    <glyph glyph-name="wcircumflex" unicode="&#x175;" horiz-adv-x="685" 
d="M517 20l156 494h20l-164 -514h-26l-160 494h-2l-161 -494h-28l-160 514h20l153 -494h2l159 494h31l158 -494h2zM463 591h-20l-103 123l-99 -123h-20l113 139h15z" />
    <glyph glyph-name="Ycircumflex" unicode="&#x176;" horiz-adv-x="538" 
d="M269 322l275 392h24l-289 -413v-301h-20v301l-289 413h25zM390 781h-20l-103 123l-99 -123h-20l113 139h15z" />
    <glyph glyph-name="ycircumflex" unicode="&#x177;" horiz-adv-x="407" 
d="M214 27l184 487h21l-237 -619q-10 -25 -23.5 -40t-33 -22t-35.5 -8.5t-44 -1.5v20q56 0 79.5 11t40.5 55l37 96l-215 509h22zM335 591h-20l-103 123l-99 -123h-20l113 139h15z" />
    <glyph glyph-name="Ydieresis" unicode="&#x178;" horiz-adv-x="538" 
d="M269 322l275 392h24l-289 -413v-301h-20v301l-289 413h25zM357 804h-20v81h20v-81zM201 804h-20v81h20v-81z" />
    <glyph glyph-name="Zacute" unicode="&#x179;" 
d="M1 20h507v-20h-527v27l499 667h-471v20h491v-27zM373 922h29l-146 -144h-15z" />
    <glyph glyph-name="zacute" unicode="&#x17a;" horiz-adv-x="407" 
d="M26 20h376v-20h-397v25l360 469h-333v20h354v-25zM330 732h29l-146 -144h-15z" />
    <glyph glyph-name="Zdotaccent" unicode="&#x17b;" 
d="M1 20h507v-20h-527v27l499 667h-471v20h491v-27zM239 885h20v-81h-20v81z" />
    <glyph glyph-name="zdotaccent" unicode="&#x17c;" horiz-adv-x="407" 
d="M26 20h376v-20h-397v25l360 469h-333v20h354v-25zM197 695h20v-81h-20v81z" />
    <glyph glyph-name="Zcaron" unicode="&#x17d;" 
d="M1 20h507v-20h-527v27l499 667h-471v20h491v-27zM128 920h20l103 -123l99 123h20l-113 -139h-15z" />
    <glyph glyph-name="zcaron" unicode="&#x17e;" horiz-adv-x="407" 
d="M26 20h376v-20h-397v25l360 469h-333v20h354v-25zM84 730h20l103 -123l99 123h20l-113 -139h-15z" />
    <glyph glyph-name="florin" unicode="&#x192;" horiz-adv-x="556" 
d="M281 411l-92 -466q-25 -122 -126 -122q-31 0 -50 6l5 20q21 -6 42 -6q88 0 108 106l91 462h-119l4 20h119l39 195q21 105 132 105q31 0 55 -7l-4 -19q-32 6 -53 6q-47 0 -73 -21.5t-37 -74.5l-37 -184h127l-4 -20h-127z" />
    <glyph glyph-name="Scommaaccent" unicode="&#x218;" horiz-adv-x="611" 
d="M551 514h-20q-7 197 -232 197q-41 0 -78 -8t-71 -25.5t-54.5 -51t-20.5 -79.5q0 -19 4 -35.5t9.5 -29t17 -24t20.5 -19.5t26.5 -16t28.5 -12.5t33.5 -10.5t34 -9t36.5 -8.5t36 -8.5q9 -2 38.5 -9.5t38.5 -10.5t33.5 -10.5t33.5 -12t27.5 -14t25.5 -18t19 -22t16 -28
t8 -33.5t4 -41q0 -94 -74.5 -143t-177.5 -49q-130 0 -205.5 62.5t-73.5 191.5h20q0 -234 259 -234q95 0 163.5 43.5t68.5 129.5q0 26 -7 48t-16 37.5t-27.5 28.5t-33 21t-40 16t-40.5 12t-44 10.5t-42 9.5q-114 26 -154 46q-86 44 -86 142q0 51 21.5 88t58 57t77.5 29.5
t87 9.5q241 0 252 -217zM298 -50h20v-78q0 -55 -58 -61v16q38 8 38 51v72z" />
    <glyph glyph-name="scommaaccent" unicode="&#x219;" horiz-adv-x="463" 
d="M410 362h-20q0 144 -166 144q-50 0 -84 -13.5t-47.5 -35t-18 -35.5t-4.5 -25q0 -66 57 -90q18 -7 132 -38q27 -7 35 -9t32 -10t32.5 -13.5t25 -16.5t22.5 -22.5t12 -29t6 -37.5q0 -49 -28.5 -82.5t-69 -47t-88.5 -13.5q-208 0 -208 188h20q0 -168 188 -168q65 0 115.5 30
t50.5 91q0 31 -11.5 52t-40.5 35t-47 20t-62 16q-11 3 -16 4q-81 20 -115 35q-62 27 -62 106q0 50 43 89.5t131 39.5q186 0 186 -164zM225 -50h20v-78q0 -55 -58 -61v16q38 8 38 51v72z" />
    <glyph glyph-name="uni021A" unicode="&#x21a;" 
d="M240 694h-257v20h534v-20h-257v-694h-20v694zM241 -50h20v-78q0 -55 -58 -61v16q38 8 38 51v72z" />
    <glyph glyph-name="uni021B" unicode="&#x21b;" horiz-adv-x="241" 
d="M226 494h-116v-394q0 -27 6 -44.5t17.5 -24.5t21 -9t24.5 -2q37 0 44 3v-20q-36 -3 -49 -3q-84 0 -84 96v398h-95v20h95v162h20v-162h116v-20zM143 -50h20v-78q0 -55 -58 -61v16q38 8 38 51v72z" />
    <glyph glyph-name="circumflex" unicode="&#x2c6;" horiz-adv-x="130" 
d="M186 591h-20l-103 123l-99 -123h-20l113 139h15z" />
    <glyph glyph-name="caron" unicode="&#x2c7;" horiz-adv-x="130" 
d="M-56 730h20l103 -123l99 123h20l-113 -139h-15z" />
    <glyph glyph-name="uni02C9" unicode="&#x2c9;" horiz-adv-x="130" 
d="M181 660v-20h-232v20h232z" />
    <glyph glyph-name="breve" unicode="&#x2d8;" horiz-adv-x="130" 
d="M-58 714h20q5 -39 32.5 -63t67.5 -24q44 0 72.5 21.5t33.5 65.5h20q-6 -50 -40 -78.5t-86 -28.5q-49 0 -81.5 29.5t-38.5 77.5z" />
    <glyph glyph-name="dotaccent" unicode="&#x2d9;" horiz-adv-x="130" 
d="M55 695h20v-81h-20v81z" />
    <glyph glyph-name="ring" unicode="&#x2da;" horiz-adv-x="130" 
d="M133 670q0 28 -20 48t-48 20t-48 -20t-20 -48t20 -48t48 -20t48 20t20 48zM153 670q0 -36 -26 -62t-62 -26t-62 26t-26 62t26 62t62 26t62 -26t26 -62z" />
    <glyph glyph-name="ogonek" unicode="&#x2db;" horiz-adv-x="130" 
d="M81 0h29q-57 -44 -79 -71t-22 -52q0 -19 14 -32t37 -13q47 0 75 32l17 -12q-39 -40 -92 -40q-36 0 -55.5 17.5t-19.5 45.5q0 57 96 125z" />
    <glyph glyph-name="tilde" unicode="&#x2dc;" horiz-adv-x="130" 
d="M-47 615h-20q2 31 21 55t47 24q24 0 66 -29t61 -29q39 0 49 55h20q-11 -75 -69 -75q-26 0 -66 29t-61 29t-33.5 -18t-14.5 -41z" />
    <glyph glyph-name="hungarumlaut" unicode="&#x2dd;" horiz-adv-x="130" 
d="M237 732h29l-146 -144h-15zM87 732h29l-146 -144h-15z" />
    <glyph glyph-name="uni0394" unicode="&#x394;" horiz-adv-x="611" 
d="M573 18l-270 654l-266 -654h536zM600 0h-589l289 712h7z" />
    <glyph glyph-name="uni03A9" unicode="&#x3a9;" horiz-adv-x="722" 
d="M662 0h-215v152q93 20 144.5 91t51.5 168q0 119 -82 205.5t-200 86.5t-199.5 -86.5t-81.5 -205.5q0 -97 53 -171t145 -88v-152h-217v19h198v117q-96 26 -147 101t-51 177q0 126 87 216.5t213 90.5q127 0 213.5 -90.5t86.5 -217.5q0 -104 -49.5 -176.5t-146.5 -99.5v-118
h197v-19z" />
    <glyph glyph-name="uni03BC" unicode="&#x3bc;" horiz-adv-x="556" 
d="M472 514v-514h-20v127h-2q-14 -62 -63 -100.5t-122 -38.5q-118 0 -160 93h-2v-258h-20v691h19v-338q0 -84 46 -126t117 -42q88 0 137.5 62t49.5 153v291h20z" />
    <glyph glyph-name="pi" unicode="&#x3c0;" horiz-adv-x="556" 
d="M517 30v-21q-20 -13 -44 -13q-16 0 -27.5 6t-17 13t-8 22t-3 23.5t-0.5 26.5v348h-298v-435h-18v435h-72v18h482v-18h-76v-351q0 -17 0.5 -24t3.5 -20.5t11.5 -19.5t22.5 -6q25 0 44 16z" />
    <glyph glyph-name="endash" unicode="&#x2013;" 
d="M0 258v20h500v-20h-500z" />
    <glyph glyph-name="emdash" unicode="&#x2014;" horiz-adv-x="1000" 
d="M870 278v-20h-740v20h740z" />
    <glyph glyph-name="quoteleft" unicode="&#x2018;" horiz-adv-x="167" 
d="M93 489h-20v118q0 52 9 72t36 35v-20q-25 -16 -25 -87v-118z" />
    <glyph glyph-name="quoteright" unicode="&#x2019;" horiz-adv-x="167" 
d="M74 714h20v-118q0 -52 -9 -72t-36 -35v20q25 16 25 87v118z" />
    <glyph glyph-name="quotesinglbase" unicode="&#x201a;" horiz-adv-x="167" 
d="M73 98h20v-98q0 -47 -10 -74.5t-35 -44.5v20q25 22 25 99v98z" />
    <glyph glyph-name="quotedblleft" unicode="&#x201c;" horiz-adv-x="278" 
d="M203 489h-20v118q0 52 9 72t36 35v-20q-25 -16 -25 -87v-118zM103 489h-20v118q0 52 9 72t36 35v-20q-25 -16 -25 -87v-118z" />
    <glyph glyph-name="quotedblright" unicode="&#x201d;" horiz-adv-x="278" 
d="M75 714h20v-118q0 -52 -9 -72t-36 -35v20q25 16 25 87v118zM175 714h20v-118q0 -52 -9 -72t-36 -35v20q25 16 25 87v118z" />
    <glyph glyph-name="quotedblbase" unicode="&#x201e;" horiz-adv-x="278" 
d="M75 98h20v-98q0 -47 -10 -74.5t-35 -44.5v20q25 22 25 99v98zM175 98h20v-98q0 -47 -10 -74.5t-35 -44.5v20q25 22 25 99v98z" />
    <glyph glyph-name="dagger" unicode="&#x2020;" horiz-adv-x="556" 
d="M268 714h20v-243h208v-20h-208v-591h-20v591h-208v20h208v243z" />
    <glyph glyph-name="daggerdbl" unicode="&#x2021;" horiz-adv-x="556" 
d="M268 57h-208v20h208v420h-208v20h208v197h20v-197h208v-20h-208v-420h208v-20h-208v-197h-20v197z" />
    <glyph glyph-name="bullet" unicode="&#x2022;" 
d="M72 357q0 74 52 126t126 52t126.5 -52t52.5 -126t-52.5 -126.5t-126.5 -52.5t-126 52.5t-52 126.5z" />
    <glyph glyph-name="ellipsis" unicode="&#x2026;" horiz-adv-x="1000" 
d="M843 98v-98h-20v98h20zM510 98v-98h-20v98h20zM177 98v-98h-20v98h20z" />
    <glyph glyph-name="perthousand" unicode="&#x2030;" horiz-adv-x="1037" 
d="M89 -34l476 748h23l-476 -748h-23zM729 157q0 -64 34 -106.5t98 -42.5t99.5 43t35.5 106q0 71 -34 112t-101 41q-66 0 -99 -41.5t-33 -111.5zM709 157q0 77 40.5 125t111.5 48q74 0 114.5 -47.5t40.5 -124.5q0 -72 -41.5 -121t-113.5 -49q-74 0 -113 49t-39 120zM369 157
q0 -64 34 -106.5t98 -42.5t99.5 43t35.5 106q0 71 -34 112t-101 41q-66 0 -99 -41.5t-33 -111.5zM349 157q0 77 40.5 125t111.5 48q74 0 114.5 -47.5t40.5 -124.5q0 -72 -41.5 -121t-113.5 -49q-74 0 -113 49t-39 120zM41 519q0 -64 34 -106.5t98 -42.5t99.5 43t35.5 106
q0 71 -34 112t-101 41q-66 0 -99 -41.5t-33 -111.5zM21 519q0 77 40.5 125t111.5 48q74 0 114.5 -47.5t40.5 -124.5q0 -72 -41.5 -121t-113.5 -49q-74 0 -113 49t-39 120z" />
    <glyph glyph-name="guilsinglleft" unicode="&#x2039;" horiz-adv-x="259" 
d="M169 156v-35l-103 139v16l103 139v-35l-83 -112z" />
    <glyph glyph-name="guilsinglright" unicode="&#x203a;" horiz-adv-x="259" 
d="M90 380v35l103 -139v-16l-103 -139v35l83 112z" />
    <glyph glyph-name="fraction" unicode="&#x2044;" horiz-adv-x="167" 
d="M-166 -34l476 748h23l-476 -748h-23z" />
    <glyph glyph-name="Euro" unicode="&#x20ac;" horiz-adv-x="556" 
d="M567 100v-27q-87 -88 -210 -88q-120 0 -198.5 80.5t-97.5 203.5h-61l7 17h53q-2 14 -2 21v21q0 20 2 58h-60l7 17h55q16 128 96 210t206 82q102 0 186 -66l-9 -16q-83 64 -178 64q-117 0 -191.5 -77.5t-89.5 -196.5h407l-9 -17h-400q-2 -32 -2 -48q0 -26 3 -52h378
l-9 -17h-367q19 -115 92 -190.5t185 -75.5q125 0 207 97z" />
    <glyph glyph-name="afii61289" unicode="&#x2113;" 
d="M286 -14q-44 0 -72.5 27t-28.5 88v164l-61 -71h-2l-10 10l73 83v274q0 79 27 119.5t67 40.5q36 0 58.5 -30t22.5 -83q0 -140 -157 -327v-177q0 -55 25.5 -78t59.5 -23q49 0 88 40h2l9 -11q-45 -46 -101 -46zM343 605q0 44 -19 71.5t-45 27.5q-32 0 -54 -35.5t-22 -107.5
v-258q65 79 102.5 158.5t37.5 143.5z" />
    <glyph glyph-name="trademark" unicode="&#x2122;" horiz-adv-x="990" 
d="M496 302v412h34l162 -384l162 384h34v-412h-20v392h-2l-164 -392h-20l-164 392h-2v-392h-20zM232 302v392h-150v20h320v-20h-150v-392h-20z" />
    <glyph glyph-name="Omega" unicode="&#x2126;" horiz-adv-x="722" 
d="M662 0h-215v152q93 20 144.5 91t51.5 168q0 119 -82 205.5t-200 86.5t-199.5 -86.5t-81.5 -205.5q0 -97 53 -171t145 -88v-152h-217v19h198v117q-96 26 -147 101t-51 177q0 126 87 216.5t213 90.5q127 0 213.5 -90.5t86.5 -217.5q0 -104 -49.5 -176.5t-146.5 -99.5v-118
h197v-19z" />
    <glyph glyph-name="estimated" unicode="&#x212e;" horiz-adv-x="600" 
d="M561 259h-404v-181q59 -59 145 -59q122 0 193 120l35 -21q-46 -72 -98 -103.5t-130 -31.5q-115 0 -186.5 79t-71.5 197q0 119 71 197.5t187 78.5q115 0 186.5 -77t72.5 -199zM157 295h291v145q-63 60 -147 60t-144 -60v-145z" />
    <glyph glyph-name="partialdiff" unicode="&#x2202;" horiz-adv-x="444" 
d="M385 293q-79 111 -181 111q-76 0 -117 -59t-41 -138q0 -75 41.5 -139.5t112.5 -64.5q46 0 83.5 30t58.5 76.5t32 94t11 89.5zM408 374q0 -46 -4.5 -91.5t-18 -101t-35.5 -97t-61 -69.5t-90 -28q-78 0 -125.5 70t-47.5 152q0 87 48 149.5t133 62.5q53 0 101 -28.5
t79 -75.5q2 46 2 70q0 50 -9.5 100.5t-29.5 101t-60 82.5t-94 32q-56 0 -120 -46l-11 16q69 47 131 47q61 0 105 -34t66 -89.5t31.5 -110.5t9.5 -112z" />
    <glyph glyph-name="Delta" unicode="&#x2206;" horiz-adv-x="611" 
d="M573 18l-270 654l-266 -654h536zM600 0h-589l289 712h7z" />
    <glyph glyph-name="product" unicode="&#x220f;" horiz-adv-x="704" 
d="M611 -214h-18v982h-482v-982h-18v1000h518v-1000z" />
    <glyph glyph-name="summation" unicode="&#x2211;" horiz-adv-x="593" 
d="M548 -214h-504v18l341 486l-326 478v18h479v-18h-456l326 -478l-341 -486h481v-18z" />
    <glyph glyph-name="minus" unicode="&#x2212;" horiz-adv-x="600" 
d="M552 243h-504v20h504v-20z" />
    <glyph glyph-name="uni2215" unicode="&#x2215;" horiz-adv-x="167" 
d="M-166 -34l476 748h23l-476 -748h-23z" />
    <glyph glyph-name="uni2219" unicode="&#x2219;" horiz-adv-x="278" 
d="M107 340q0 14 9 23t23 9t23 -9t9 -23t-9 -23t-23 -9t-23 9t-9 23z" />
    <glyph glyph-name="radical" unicode="&#x221a;" horiz-adv-x="444" 
d="M444 777l-219 -996h-10l-188 386l-44 -21l-6 15l58 28l180 -373l211 962z" />
    <glyph glyph-name="infinity" unicode="&#x221e;" horiz-adv-x="722" 
d="M349 240q-115 107 -181 107q-43 0 -69.5 -30.5t-26.5 -74.5q0 -48 27 -77t74 -29q32 0 68 19t55 35.5t53 49.5zM650 242q0 44 -26.5 74.5t-70.5 30.5q-9 0 -19.5 -2t-19 -5t-20 -9t-19 -10t-19.5 -13t-18 -13t-18.5 -14.5t-16 -13.5t-16.5 -14t-14 -12q28 -27 38.5 -36.5
t38 -31t50.5 -30t47 -8.5q49 0 76 29t27 78zM668 242q0 -56 -32.5 -90.5t-87.5 -34.5q-23 0 -43.5 6t-41.5 20t-34 24t-35.5 31.5t-32.5 29.5q-12 -10 -40.5 -35.5t-44.5 -38t-44 -24.5t-57 -12q-56 0 -88.5 33.5t-32.5 90.5q0 52 33 87.5t84 35.5q17 0 36 -6t33 -12.5
t34.5 -21.5t29.5 -22.5t30.5 -26t26.5 -22.5q37 33 58 50.5t60.5 39t70.5 21.5q52 0 85 -35t33 -88z" />
    <glyph glyph-name="integral" unicode="&#x222b;" horiz-adv-x="537" 
d="M358 758q0 -10 -6.5 -16t-16.5 -6q-7 0 -11.5 2t-10.5 9.5t-8 9.5q-1 0 -3 1l-2 1q-28 0 -42 -94q-4 -44 -4 -132v-487q0 -2 0.5 -32t0 -46.5t-2.5 -48t-8 -51t-15 -40.5t-24.5 -31.5t-36.5 -10.5q-13 0 -22.5 7.5t-9.5 19.5q0 10 6 16.5t16 6.5q11 0 21.5 -11.5
t13.5 -11.5q42 0 42 180v25v507l-1 31q0 32 0.5 47t2.5 47.5t8 51.5t15.5 41t25 32.5t36.5 10.5q14 0 25 -7t11 -21z" />
    <glyph glyph-name="approxequal" unicode="&#x2248;" horiz-adv-x="593" 
d="M520 210h18q-20 -66 -70 -90q-32 -15 -45 -11q-86 20 -139 37q-112 40 -142 40q-32 0 -58 -25t-37 -58h-18q20 66 70 90q32 14 44 11q11 -3 44.5 -10.5t51.5 -12.5q10 -3 51 -18t77 -25.5t56 -10.5q34 0 60.5 24t36.5 59zM520 376h18q-20 -66 -70 -90q-32 -15 -45 -11
q-82 19 -139 37q-5 1 -38.5 13t-61 19.5t-42.5 7.5q-33 0 -58 -24.5t-37 -58.5h-18q13 42 43 71.5t71 29.5q5 0 45 -8l-45 8q60 -13 151 -43q95 -35 129 -35t60 24.5t37 59.5z" />
    <glyph glyph-name="notequal" unicode="&#x2260;" horiz-adv-x="593" 
d="M537 140h-285l-75 -140l-16 8l71 132h-177v18h186l89 166h-275v18h284l76 140l16 -8l-71 -132h177v-18h-187l-88 -166h275v-18z" />
    <glyph glyph-name="lessequal" unicode="&#x2264;" horiz-adv-x="593" 
d="M537 -3h-482v18h482v-18zM537 55l-482 205v18l482 207v-19l-461 -197l461 -195v-19z" />
    <glyph glyph-name="greaterequal" unicode="&#x2265;" horiz-adv-x="593" 
d="M537 -3h-482v18h482v-18zM537 260l-482 -205v19l461 195l-461 197v19l482 -207v-18z" />
    <glyph glyph-name="lozenge" unicode="&#x25ca;" horiz-adv-x="593" 
d="M451 356l-155 357l-154 -357l154 -357zM471 356l-171 -391h-8l-170 391l170 391h8z" />
    <glyph glyph-name="commaaccent" unicode="&#xf004;" horiz-adv-x="278" 
d="M129 -50h20v-78q0 -55 -58 -61v16q38 8 38 51v72z" />
    <glyph glyph-name="commaaccent" unicode="&#xf6c3;" horiz-adv-x="278" 
d="M129 -50h20v-78q0 -55 -58 -61v16q38 8 38 51v72z" />
    <glyph glyph-name="dotlessj" unicode="&#xf6be;" horiz-adv-x="130" 
d="M75 514v-589q0 -65 -28.5 -83.5t-95.5 -18.5v20q63 0 83.5 14.5t20.5 74.5v582h20z" />
    <glyph glyph-name="dotlessj" unicode="&#xfb0f;" horiz-adv-x="130" 
d="M75 514v-589q0 -65 -28.5 -83.5t-95.5 -18.5v20q63 0 83.5 14.5t20.5 74.5v582h20z" />
    <glyph glyph-name="uniF8FF" unicode="&#xf8ff;" horiz-adv-x="512" 
d="M222 117h56v67h-56v-67zM225 234h46q0 52 6 72q6 19 43 52q37 34 50 60t13 60q0 59 -35 95t-89 36q-56 0 -92 -34t-43 -103l50 -8q11 95 82 95q31 0 53.5 -24.5t22.5 -60.5q0 -20 -9.5 -37t-40.5 -46q-31 -31 -46 -59q-13 -25 -13 -81zM462 50h-412v617h412v-617z
M512 718h-512v-718h512v718z" />
    <glyph glyph-name="commaaccent.alt" horiz-adv-x="278" 
d="M139 616h-20v78q0 55 58 61v-16q-38 -8 -38 -51v-72z" />
    <glyph glyph-name="caron.alt" horiz-adv-x="130" 
d="M101 714h29l-65 -144h-15z" />
    <glyph glyph-name="grave.cap" horiz-adv-x="130" 
d="M101 778l-139 144h29l125 -144h-15z" />
    <glyph glyph-name="acute.cap" horiz-adv-x="130" 
d="M142 922h29l-146 -144h-15z" />
    <glyph glyph-name="circumflex.cap" horiz-adv-x="130" 
d="M186 778h-20l-103 123l-99 -123h-20l113 139h15z" />
    <glyph glyph-name="caron.cap" horiz-adv-x="130" 
d="M-56 917h20l103 -123l99 123h20l-113 -139h-15z" />
    <glyph glyph-name="tilde.cap" horiz-adv-x="130" 
d="M-47 805h-20q2 31 21 55t47 24q24 0 66 -29t61 -29q39 0 49 55h20q-11 -75 -69 -75q-26 0 -66 29t-61 29t-33.5 -18t-14.5 -41z" />
    <glyph glyph-name="dieresis.cap" horiz-adv-x="130" 
d="M153 804h-20v81h20v-81zM-3 804h-20v81h20v-81z" />
    <glyph glyph-name="macron.cap" horiz-adv-x="130" 
d="M181 850v-20h-232v20h232z" />
    <glyph glyph-name="breve.cap" horiz-adv-x="130" 
d="M-58 904h20q5 -39 32.5 -63t67.5 -24q44 0 72.5 21.5t33.5 65.5h20q-6 -50 -40 -78.5t-86 -28.5q-49 0 -81.5 29.5t-38.5 77.5z" />
    <glyph glyph-name="ring.cap" horiz-adv-x="130" 
d="M133 850q0 28 -20 48t-48 20t-48 -20t-20 -48t20 -48t48 -20t48 20t20 48zM153 850q0 -36 -26 -62t-62 -26t-62 26t-26 62t26 62t62 26t62 -26t26 -62z" />
    <glyph glyph-name="hungarumlaut.cap" horiz-adv-x="130" 
d="M237 922h29l-146 -144h-15zM87 922h29l-146 -144h-15z" />
    <glyph glyph-name="dotaccent.cap" horiz-adv-x="130" 
d="M55 885h20v-81h-20v81z" />
  </font>
</defs>
</svg>
